<svg width="66" height="72" viewBox="0 0 66 72" fill="none" xmlns="http://www.w3.org/2000/svg">
<path d="M65.34 71.46L55.35 71.64L0.27 72L0.63 0.179997H65.25L65.16 10.71L65.34 71.46ZM63.54 16.74L63.27 1.61999H59.58L47.7 1.71L2.07 1.89L1.98 5.58L1.89 70.29L34.29 69.84L63.27 70.02V65.43V52.92L63.54 16.74ZM62.01 3.23999C62.07 3.36 61.98 3.54 61.74 3.78C61.56 3.84 61.41 3.78 61.29 3.6V2.97C61.59 2.97 61.83 3.06 62.01 3.23999ZM62.28 4.94999C62.28 5.07 62.19 5.28 62.01 5.58C61.83 5.58 61.65 5.4 61.47 5.04C61.53 4.86 61.65 4.77 61.83 4.77C62.07 4.71 62.22 4.77 62.28 4.94999ZM60.03 3.78C60.03 3.72 59.91 3.80999 59.67 4.05C59.55 4.05 59.4 3.96 59.22 3.78C59.22 3.66 59.31 3.48 59.49 3.23999C59.55 3.23999 59.73 3.42 60.03 3.78ZM58.05 2.79C58.11 2.91 58.02 3.09 57.78 3.33C57.6 3.39 57.45 3.36 57.33 3.23999V2.61C57.57 2.55 57.81 2.61 58.05 2.79ZM61.2 6.21C61.32 6.33 61.2 6.54 60.84 6.84C60.84 6.84 60.72 6.78 60.48 6.66V6.03C60.78 5.97 61.02 6.03 61.2 6.21ZM62.19 7.92C62.07 8.1 61.92 8.25 61.74 8.37C61.56 8.43 61.44 8.37 61.38 8.19L61.47 7.56C61.83 7.56 62.07 7.68 62.19 7.92ZM55.17 2.7C55.23 2.88 55.11 3.12 54.81 3.42C54.51 3.3 54.36 3.08999 54.36 2.79C54.6 2.43 54.87 2.4 55.17 2.7ZM61.92 9.89999C61.74 10.26 61.5 10.38 61.2 10.26C61.02 10.14 61.02 9.9 61.2 9.54C61.44 9.54 61.68 9.66 61.92 9.89999ZM62.28 12.06C62.28 12 62.16 12.18 61.92 12.6C61.62 12.18 61.47 11.94 61.47 11.88C61.59 11.76 61.77 11.73 62.01 11.79C62.19 11.79 62.28 11.88 62.28 12.06ZM52.92 3.23999C52.86 3.3 52.77 3.39 52.65 3.51C52.53 3.45 52.35 3.33 52.11 3.15C52.05 2.97 52.2 2.82 52.56 2.7C52.56 2.7 52.68 2.88 52.92 3.23999ZM60.93 11.34C60.93 11.58 60.84 11.73 60.66 11.79C60.54 11.73 60.36 11.64 60.12 11.52C60.06 11.22 60.18 11.04 60.48 10.98C60.78 10.92 60.93 11.04 60.93 11.34ZM59.4 10.53C58.44 12.51 56.7 13.5 54.18 13.5C54.72 13.2 55.29 12.9 55.89 12.6C56.55 12.24 57 11.79 57.24 11.25C57.96 9.93 57.93 8.73 57.15 7.65C56.61 6.93 55.5 6.41999 53.82 6.12C53.58 5.94 53.52 5.55 53.64 4.94999C54.18 4.05 55.29 3.75 56.97 4.05C57.75 4.29 58.5 4.89 59.22 5.85C60.24 7.35 60.3 8.91 59.4 10.53ZM62.46 14.31C62.46 14.49 62.4 14.67 62.28 14.85L61.65 14.67C61.65 14.49 61.77 14.28 62.01 14.04C62.25 13.98 62.4 14.07 62.46 14.31ZM50.58 3.23999C50.58 3.42 50.55 3.54 50.49 3.6C50.49 3.6 50.25 3.54 49.77 3.42C49.83 3.24 49.98 3.03 50.22 2.79C50.28 2.79 50.4 2.94 50.58 3.23999ZM55.35 7.92C55.41 8.1 55.29 8.28 54.99 8.46C54.81 8.52 54.69 8.46 54.63 8.28V7.65C54.93 7.65 55.17 7.74 55.35 7.92ZM51.93 4.59C51.99 4.77 51.87 4.98 51.57 5.22C51.45 5.1 51.3 4.89 51.12 4.59C51.24 4.47 51.39 4.41 51.57 4.41C51.81 4.41 51.93 4.47 51.93 4.59ZM60.48 13.59C60.48 13.77 60.33 13.98 60.03 14.22C59.73 13.8 59.61 13.56 59.67 13.5C59.91 13.2 60.18 13.23 60.48 13.59ZM52.74 6.48C52.74 6.66 52.62 6.87 52.38 7.11C52.08 6.69 51.93 6.48 51.93 6.48C52.05 6.36 52.2 6.3 52.38 6.3C52.56 6.3 52.68 6.36 52.74 6.48ZM48.33 3.15C48.39 3.27 48.27 3.48 47.97 3.78C47.73 3.78 47.61 3.51 47.61 2.97C47.91 2.91 48.15 2.97 48.33 3.15ZM49.77 4.77C49.83 4.95 49.74 5.07 49.5 5.13C49.32 5.19 49.14 5.13 48.96 4.94999C48.96 4.77 49.08 4.56 49.32 4.32C49.32 4.32 49.47 4.47 49.77 4.77ZM62.55 17.73C62.61 17.91 62.49 18.09 62.19 18.27C62.01 18.33 61.86 18.21 61.74 17.91L61.83 17.46C62.07 17.46 62.31 17.55 62.55 17.73ZM54.54 9.63C54.48 9.81 54.3 9.99 54 10.17C53.7 9.81 53.61 9.57 53.73 9.45C54.21 9.27 54.48 9.33 54.54 9.63ZM58.86 14.58C58.8 14.64 58.59 14.67 58.23 14.67C57.99 14.61 57.99 14.4 58.23 14.04C58.35 13.92 58.5 13.92 58.68 14.04C58.8 14.22 58.86 14.4 58.86 14.58ZM53.19 8.82C52.95 9 52.71 9.05999 52.47 9C52.29 8.82 52.29 8.64 52.47 8.46C52.71 8.1 52.89 8.13 53.01 8.55C53.01 8.61 53.07 8.7 53.19 8.82ZM60.48 16.29C60.48 16.53 60.36 16.71 60.12 16.83C59.88 16.89 59.73 16.83 59.67 16.65L59.76 16.11C60.12 16.11 60.36 16.17 60.48 16.29ZM45.81 3.15C45.81 3.27 45.69 3.48 45.45 3.78C45.15 3.6 44.97 3.42 44.91 3.23999C45.33 2.82 45.63 2.79 45.81 3.15ZM52.47 10.8C52.05 10.92 51.81 10.98 51.75 10.98C51.63 10.74 51.63 10.53 51.75 10.35C52.05 9.93 52.29 10.08 52.47 10.8ZM61.11 19.35C61.11 19.35 60.96 19.47 60.66 19.71C60.54 19.71 60.39 19.65 60.21 19.53C60.27 19.23 60.42 18.99 60.66 18.81L61.11 19.35ZM62.64 20.79C62.7 20.91 62.58 21.09 62.28 21.33C62.04 21.39 61.92 21.15 61.92 20.61C62.1 20.55 62.34 20.61 62.64 20.79ZM46.35 5.22C46.29 5.34 46.17 5.49 45.99 5.67C45.81 5.91 45.66 5.85 45.54 5.49L45.63 4.94999C45.81 4.94999 46.05 5.03999 46.35 5.22ZM58.59 16.74C58.65 17.04 58.68 17.31 58.68 17.55C58.68 18.63 58.23 19.47 57.33 20.07C56.73 20.31 56.25 20.28 55.89 19.98C56.01 19.08 55.83 17.82 55.35 16.2C54.57 15.3 53.55 14.85 52.29 14.85C51.81 14.85 51.33 14.94 50.85 15.12C50.25 14.52 48.9 13.47 46.8 11.97C48.12 10.83 48.78 9.72 48.78 8.63999C48.78 7.74 48.36 6.93 47.52 6.21C48.06 5.85 48.57 5.73 49.05 5.85C49.77 6.21 50.37 6.81 50.85 7.65C51.51 8.67 51.51 9.63 50.85 10.53C50.43 10.77 50.01 11.25 49.59 11.97V12.06C49.89 11.94 51.15 11.7 53.37 11.34C54.93 11.04 56.07 10.5 56.79 9.72C56.91 10.26 56.82 10.77 56.52 11.25C56.22 11.67 55.68 12.09 54.9 12.51C54.12 12.93 53.58 13.35 53.28 13.77L53.46 13.95C54.9 14.19 55.89 14.43 56.43 14.67C57.51 15.15 58.23 15.84 58.59 16.74ZM43.11 3.23999C43.05 3.3 42.96 3.39 42.84 3.51L42.3 3.42C42.24 3.12 42.33 2.88 42.57 2.7C42.63 2.7 42.81 2.88 43.11 3.23999ZM47.07 7.82999C47.07 8.07 47.04 8.19 46.98 8.19C46.74 8.25 46.53 8.16 46.35 7.92C46.29 7.8 46.44 7.62 46.8 7.38C46.98 7.32 47.07 7.47 47.07 7.82999ZM44.1 4.86C44.04 5.1 43.92 5.28 43.74 5.4C43.74 5.4 43.56 5.28 43.2 5.04C43.2 4.86 43.32 4.71 43.56 4.59C43.86 4.53 44.04 4.61999 44.1 4.86ZM59.67 20.88C59.43 21 59.16 21.06 58.86 21.06C58.74 20.88 58.74 20.7 58.86 20.52L59.13 20.25C59.25 20.37 59.43 20.58 59.67 20.88ZM62.37 23.85C62.25 24.03 62.01 24.09 61.65 24.03C61.53 23.85 61.53 23.64 61.65 23.4C61.83 23.04 62.04 23.13 62.28 23.67C62.28 23.73 62.31 23.79 62.37 23.85ZM45.54 7.11C45.54 7.29 45.48 7.38 45.36 7.38C45.12 7.44 44.91 7.38 44.73 7.2C44.79 6.9 44.94 6.72 45.18 6.66C45.3 6.6 45.42 6.75 45.54 7.11ZM60.48 22.5C60.3 22.68 60.06 22.74 59.76 22.68C59.64 22.5 59.64 22.32 59.76 22.14C59.94 21.72 60.18 21.78 60.48 22.32C60.48 22.44 60.48 22.5 60.48 22.5ZM40.5 3.15C40.26 3.39 40.05 3.51 39.87 3.51C39.75 3.33 39.72 3.08999 39.78 2.79C39.96 2.61 40.2 2.73 40.5 3.15ZM41.76 5.22C41.58 5.46 41.43 5.49 41.31 5.30999C41.13 5.30999 41.01 5.16 40.95 4.86C41.07 4.8 41.28 4.71 41.58 4.59C41.7 5.01 41.76 5.22 41.76 5.22ZM46.71 9.89999C46.77 10.02 46.74 10.17 46.62 10.35C46.38 10.41 46.17 10.35 45.99 10.17C45.99 10.17 46.08 9.96 46.26 9.54C46.44 9.48 46.59 9.6 46.71 9.89999ZM53.28 16.47C53.34 16.53 53.28 16.65 53.1 16.83C52.86 16.83 52.65 16.74 52.47 16.56C52.41 16.32 52.53 16.14 52.83 16.02C53.13 15.96 53.28 16.11 53.28 16.47ZM54.45 17.55C54.51 17.73 54.39 17.97 54.09 18.27C53.67 17.97 53.55 17.7 53.73 17.46C54.09 17.34 54.33 17.37 54.45 17.55ZM57.87 21.69C57.63 21.99 57.45 22.14 57.33 22.14C57.09 22.08 57.03 21.81 57.15 21.33C57.39 21.33 57.63 21.45 57.87 21.69ZM45.18 9.18C44.88 9.42 44.64 9.51 44.46 9.45C44.4 9.27 44.4 9.06 44.46 8.82C44.58 8.58 44.73 8.55 44.91 8.73C45.09 8.85 45.18 9 45.18 9.18ZM60.93 24.93C60.99 25.05 60.96 25.2 60.84 25.38C60.6 25.44 60.39 25.38 60.21 25.2C60.21 25.02 60.3 24.81 60.48 24.57C60.66 24.51 60.81 24.63 60.93 24.93ZM43.02 7.47C42.9 7.65 42.72 7.68 42.48 7.56C42.42 7.5 42.33 7.35 42.21 7.11C42.21 7.11 42.42 7.02 42.84 6.84C42.96 7.14 43.02 7.35 43.02 7.47ZM62.37 26.91C62.19 27.09 61.98 27.15 61.74 27.09C61.5 27.03 61.47 26.85 61.65 26.55C61.95 26.07 62.19 26.19 62.37 26.91ZM58.86 23.94C58.8 24.24 58.62 24.39 58.32 24.39C58.08 24.33 58.02 24.09 58.14 23.67C58.56 23.61 58.8 23.7 58.86 23.94ZM38.16 3.23999C38.1 3.42 37.92 3.57 37.62 3.68999C37.44 3.63 37.35 3.51 37.35 3.33C37.29 3.21 37.38 3.03 37.62 2.79C37.8 2.79 37.98 2.94 38.16 3.23999ZM43.11 8.91C43.05 9.15 42.84 9.18 42.48 9C42.42 9 42.39 8.82 42.39 8.46C42.69 7.98 42.93 8.13 43.11 8.91ZM40.41 6.03C40.65 6.27 40.59 6.45 40.23 6.56999L39.6 6.39C39.6 6.21 39.72 5.99999 39.96 5.75999C39.96 5.75999 40.11 5.85 40.41 6.03ZM38.61 4.86C38.67 5.04 38.55 5.28 38.25 5.58C38.13 5.52 37.98 5.37 37.8 5.13C37.8 5.07 37.86 4.95 37.98 4.77C38.16 4.71 38.37 4.74 38.61 4.86ZM62.55 29.07C62.55 29.07 62.4 29.28 62.1 29.7C61.8 29.34 61.68 29.1 61.74 28.98C62.1 28.86 62.37 28.89 62.55 29.07ZM41.04 7.82999C41.22 8.01 41.16 8.19 40.86 8.37C40.86 8.37 40.65 8.31 40.23 8.19C40.17 7.89 40.29 7.68 40.59 7.56C40.59 7.56 40.74 7.65 41.04 7.82999ZM59.67 26.64C59.73 26.7 59.64 26.91 59.4 27.27C59.04 27.09 58.86 26.88 58.86 26.64C59.1 26.22 59.37 26.22 59.67 26.64ZM35.55 2.97C35.61 3.27 35.46 3.51 35.1 3.68999C35.04 3.68999 34.95 3.53999 34.83 3.23999V2.88C35.01 2.88 35.25 2.91 35.55 2.97ZM60.66 28.53C60.72 28.77 60.57 28.98 60.21 29.16C59.85 28.98 59.76 28.71 59.94 28.35C60.24 28.29 60.48 28.35 60.66 28.53ZM36.45 4.94999C36.51 5.13 36.39 5.34 36.09 5.58C35.79 5.34 35.64 5.16 35.64 5.04C35.82 4.62 36.09 4.59 36.45 4.94999ZM38.61 7.92C38.25 8.1 38.19 8.19 38.43 8.19C38.13 8.31 37.92 8.22 37.8 7.92C37.74 7.74 37.89 7.56 38.25 7.38C38.25 7.38 38.37 7.56 38.61 7.92ZM62.73 32.22C62.25 32.34 62.01 32.4 62.01 32.4C61.89 32.22 61.89 32.04 62.01 31.86C62.07 31.68 62.19 31.62 62.37 31.68C62.49 31.74 62.58 31.86 62.64 32.04L62.73 32.22ZM61.02 30.69C60.78 31.05 60.6 31.23 60.48 31.23C60.24 31.11 60.18 30.84 60.3 30.42C60.54 30.42 60.78 30.51 61.02 30.69ZM32.85 2.97C32.91 3.27 32.79 3.51 32.49 3.68999C32.37 3.63 32.28 3.54 32.22 3.42C32.16 3.3 32.1 3.15 32.04 2.97C32.46 2.79 32.73 2.79 32.85 2.97ZM36.81 7.2C36.81 7.38 36.66 7.59 36.36 7.82999C36.24 7.77 36.12 7.62 36 7.38C36.06 7.26 36.15 7.14 36.27 7.01999C36.51 7.01999 36.69 7.08 36.81 7.2ZM33.75 4.77C33.81 4.88999 33.78 5.03999 33.66 5.22C33.54 5.22 33.33 5.16 33.03 5.04C33.03 4.92 33.12 4.71 33.3 4.41C33.48 4.41 33.63 4.53 33.75 4.77ZM62.64 34.47C62.4 34.71 62.16 34.74 61.92 34.56C61.92 34.56 61.89 34.44 61.83 34.2L62.28 33.84C62.52 34.08 62.64 34.29 62.64 34.47ZM34.83 6.75C34.77 6.99 34.65 7.17 34.47 7.29C34.17 7.17 33.99 7.05 33.93 6.93C33.93 6.75 34.05 6.6 34.29 6.48C34.59 6.42 34.77 6.51 34.83 6.75ZM30.51 3.42C30.33 3.54 30.12 3.54 29.88 3.42C29.76 3.18 29.7 3.06 29.7 3.06L30.33 2.7C30.51 2.88 30.57 3.12 30.51 3.42ZM62.82 36.36C62.82 36.6 62.73 36.72 62.55 36.72L62.01 36.54C62.01 36.36 62.1 36.15 62.28 35.91C62.52 35.91 62.7 36.06 62.82 36.36ZM30.78 4.77C30.6 5.13 30.39 5.28 30.15 5.22C29.91 4.98 29.85 4.77 29.97 4.59C30.15 4.35 30.42 4.41 30.78 4.77ZM60.21 34.38C60.15 34.56 59.97 34.68 59.67 34.74C59.55 34.74 59.46 34.68 59.4 34.56C59.34 34.32 59.43 34.11 59.67 33.93C59.73 33.93 59.91 34.08 60.21 34.38ZM32.4 6.3C32.4 6.42 32.28 6.63 32.04 6.93C31.56 6.63 31.44 6.39 31.68 6.21C32.04 5.97 32.28 6 32.4 6.3ZM27.54 3.23999C27.42 3.53999 27.24 3.6 27 3.42L26.73 3.06C26.85 2.82 27.06 2.7 27.36 2.7L27.54 3.23999ZM61.11 36.99C60.93 37.23 60.72 37.32 60.48 37.26C60.24 37.14 60.21 36.93 60.39 36.63C60.57 36.33 60.81 36.45 61.11 36.99ZM62.73 38.79C62.73 38.91 62.58 39.12 62.28 39.42C61.86 39.12 61.77 38.88 62.01 38.7C62.25 38.52 62.49 38.55 62.73 38.79ZM30.15 6.56999C30.15 6.86999 30 7.05 29.7 7.11C29.64 7.17 29.52 7.02 29.34 6.66C29.34 6.6 29.4 6.51 29.52 6.39C29.76 6.33 29.97 6.39 30.15 6.56999ZM28.35 5.04C28.29 5.22 28.2 5.30999 28.08 5.30999L27.45 5.22C27.51 4.86 27.63 4.65 27.81 4.59C27.99 4.59 28.17 4.74 28.35 5.04ZM57.51 34.2C57.51 34.5 57.36 34.71 57.06 34.83C56.82 34.71 56.7 34.5 56.7 34.2C56.94 33.72 57.21 33.72 57.51 34.2ZM59.04 35.64C59.16 36.06 59.1 36.42 58.86 36.72C58.68 37.02 58.38 37.17 57.96 37.17C57.9 37.23 57.66 37.14 57.24 36.9C56.88 36.66 56.79 36.24 56.97 35.64C57.15 35.28 57.39 35.07 57.69 35.01C58.23 34.89 58.68 35.1 59.04 35.64ZM61.2 38.88C61.26 39.18 61.17 39.39 60.93 39.51C60.81 39.57 60.63 39.39 60.39 38.97C60.81 38.73 61.08 38.7 61.2 38.88ZM24.84 3.06C24.42 3.36 24.21 3.51 24.21 3.51C23.97 3.27 23.91 3 24.03 2.7C24.15 2.58 24.36 2.61 24.66 2.79C24.66 2.79 24.72 2.88 24.84 3.06ZM25.74 4.59C25.8 4.83 25.71 4.98 25.47 5.04C25.35 4.98 25.2 4.88999 25.02 4.77C24.9 4.59 25.05 4.41 25.47 4.23C25.53 4.23 25.62 4.35 25.74 4.59ZM59.22 37.89C59.22 38.07 59.1 38.28 58.86 38.52C58.56 38.28 58.41 38.07 58.41 37.89C58.47 37.71 58.62 37.62 58.86 37.62C59.04 37.62 59.16 37.71 59.22 37.89ZM27.54 6.75C27.6 6.93 27.51 7.13999 27.27 7.38C27.09 7.32 26.94 7.17 26.82 6.93C26.82 6.81 26.91 6.69 27.09 6.56999C27.21 6.51 27.36 6.57 27.54 6.75ZM62.46 42.3C62.28 42.48 62.04 42.54 61.74 42.48C61.62 42.3 61.62 42.09 61.74 41.85C62.04 41.37 62.28 41.52 62.46 42.3ZM57.06 37.35C56.94 37.53 56.79 37.68 56.61 37.8C56.43 37.86 56.31 37.8 56.25 37.62V37.08C56.67 37.08 56.94 37.17 57.06 37.35ZM60.66 41.31C60.66 41.55 60.51 41.76 60.21 41.94C59.97 41.82 59.85 41.61 59.85 41.31C60.03 40.89 60.3 40.89 60.66 41.31ZM22.14 2.97C22.14 3.15 22.02 3.33 21.78 3.51C21.54 3.57 21.39 3.51 21.33 3.33V2.79C21.51 2.79 21.78 2.85 22.14 2.97ZM23.58 4.77C23.16 5.13 22.92 5.28 22.86 5.22C22.68 5.1 22.65 4.89 22.77 4.59C22.83 4.41 23.04 4.41 23.4 4.59C23.64 4.71 23.7 4.77 23.58 4.77ZM24.84 6.84C24.78 6.96 24.57 6.96 24.21 6.84C24.09 6.78 24.03 6.66 24.03 6.48C24.21 6.3 24.42 6.18 24.66 6.12C24.78 6.6 24.84 6.84 24.84 6.84ZM62.28 45C62.16 45.24 61.95 45.33 61.65 45.27C61.41 45.15 61.38 44.94 61.56 44.64C61.74 44.34 61.98 44.46 62.28 45ZM60.39 43.65C60.39 43.95 60.27 44.13 60.03 44.19C59.91 44.19 59.79 44.16 59.67 44.1V43.47C59.91 43.47 60.15 43.53 60.39 43.65ZM20.88 4.68C20.88 4.8 20.82 4.92 20.7 5.04H20.07C20.01 4.86 20.1 4.62 20.34 4.32C20.58 4.32 20.76 4.44 20.88 4.68ZM22.41 6.66C22.05 7.02 21.81 7.14 21.69 7.01999C21.69 7.01999 21.66 6.81 21.6 6.39C21.78 6.21 22.05 6.3 22.41 6.66ZM18.99 2.97C18.87 2.73 18.81 2.97 18.81 3.68999C18.39 3.45 18.18 3.24 18.18 3.06C18.24 3 18.36 2.91 18.54 2.79C18.78 2.73 18.93 2.79 18.99 2.97ZM23.58 7.92L23.4 8.46C23.22 8.46 23.01 8.37 22.77 8.19C22.71 8.01 22.83 7.83 23.13 7.65C23.25 7.65 23.4 7.74 23.58 7.92ZM62.64 47.97C62.58 48.21 62.46 48.36 62.28 48.42C62.22 48.42 62.1 48.39 61.92 48.33V47.7C62.16 47.7 62.4 47.79 62.64 47.97ZM18.36 4.77C18.3 4.88999 18.18 5.03999 18 5.22C17.88 5.22 17.73 5.16 17.55 5.04C17.55 4.86 17.61 4.65 17.73 4.41C17.85 4.41 18.06 4.53 18.36 4.77ZM16.56 2.97C16.5 3.15 16.41 3.36 16.29 3.6C15.99 3.48 15.78 3.33 15.66 3.15C15.72 2.97 15.87 2.85 16.11 2.79C16.35 2.79 16.5 2.85 16.56 2.97ZM20.34 6.93C20.4 7.17 20.28 7.41 19.98 7.65C19.98 7.65 19.83 7.5 19.53 7.2C19.47 6.96 19.56 6.84 19.8 6.84C19.92 6.78 20.1 6.81 20.34 6.93ZM59.04 45.99C59.1 46.17 58.95 46.38 58.59 46.62C58.47 46.62 58.38 46.59 58.32 46.53V45.81C58.56 45.81 58.8 45.87 59.04 45.99ZM62.37 50.13C62.43 50.25 62.4 50.4 62.28 50.58C61.98 50.58 61.74 50.49 61.56 50.31C61.62 50.07 61.74 49.89 61.92 49.77C62.16 49.65 62.31 49.77 62.37 50.13ZM18.09 6.93C18.15 7.05 18.09 7.14 17.91 7.2H17.28C17.28 6.9 17.34 6.66 17.46 6.48C17.7 6.42 17.91 6.57 18.09 6.93ZM16.65 5.58C16.47 5.94 16.2 6.03 15.84 5.85C15.78 5.43 15.9 5.16 16.2 5.04C16.32 5.16 16.47 5.34 16.65 5.58ZM13.41 3.06C13.41 3.06 13.29 3.24 13.05 3.6C12.87 3.65999 12.72 3.53999 12.6 3.23999C12.54 2.94 12.63 2.76 12.87 2.7C12.87 2.76 13.05 2.88 13.41 3.06ZM14.67 5.22C14.49 5.34 14.28 5.34 14.04 5.22C13.86 5.03999 13.86 4.88999 14.04 4.77L14.4 4.41C14.7 4.76999 14.79 5.03999 14.67 5.22ZM62.46 52.47C62.4 52.71 62.25 52.95 62.01 53.19C61.71 52.89 61.59 52.65 61.65 52.47C61.95 52.11 62.22 52.11 62.46 52.47ZM17.73 9.54C17.67 9.66 17.46 9.69 17.1 9.63C17.04 9.57 16.98 9.42 16.92 9.18L17.46 8.91C17.7 9.27 17.79 9.48 17.73 9.54ZM14.85 6.84C14.91 6.9 14.85 7.02 14.67 7.2H14.13C14.13 7.02 14.19 6.78 14.31 6.48C14.55 6.42 14.73 6.54 14.85 6.84ZM10.98 2.97C11.04 3.15 10.95 3.27 10.71 3.33H10.26C10.14 3.09 10.14 2.85 10.26 2.61C10.56 2.55 10.8 2.67 10.98 2.97ZM57.24 49.05C57.24 49.17 57.09 49.41 56.79 49.77C56.55 49.53 56.43 49.29 56.43 49.05C56.67 48.87 56.88 48.84 57.06 48.96C57.12 49.14 57.18 49.17 57.24 49.05ZM12.6 4.49999C12.54 4.68 12.39 4.89 12.15 5.13C11.97 5.13 11.85 4.98 11.79 4.68C11.73 4.5 11.79 4.38 11.97 4.32C12.15 4.32 12.36 4.38 12.6 4.49999ZM18.81 11.25C18.87 11.37 18.84 11.46 18.72 11.52H18C18 11.34 18.09 11.1 18.27 10.8C18.45 10.8 18.63 10.95 18.81 11.25ZM60.48 53.46C60.48 53.46 60.39 53.58 60.21 53.82C60.03 53.82 59.85 53.76 59.67 53.64C59.73 53.46 59.82 53.25 59.94 53.01C60 53.01 60.18 53.16 60.48 53.46ZM62.28 55.8C61.92 55.98 61.68 56.07 61.56 56.07C61.38 55.95 61.35 55.74 61.47 55.44C61.71 55.08 61.98 55.2 62.28 55.8ZM12.78 7.2C12.78 7.38 12.72 7.53 12.6 7.65H12.06C12.06 7.47 12.15 7.23 12.33 6.93C12.51 6.93 12.66 7.02 12.78 7.2ZM11.07 5.94C10.95 6.12 10.74 6.15 10.44 6.03C10.32 5.97 10.26 5.85 10.26 5.67L10.71 5.30999C11.01 5.60999 11.13 5.82 11.07 5.94ZM8.64 2.97C8.7 3.09 8.61 3.3 8.37 3.6C8.19 3.65999 8.04 3.45 7.92 2.97C8.16 2.61 8.4 2.61 8.64 2.97ZM16.74 12.06C16.32 12.3 16.11 12.42 16.11 12.42C15.93 12.3 15.9 12.06 16.02 11.7C16.14 11.64 16.38 11.76 16.74 12.06ZM18 13.32C17.94 13.5 17.76 13.62 17.46 13.68H17.19C17.19 13.44 17.28 13.2 17.46 12.96C17.58 12.9 17.76 13.02 18 13.32ZM59.67 55.62C59.55 55.86 59.31 55.95 58.95 55.89C58.89 55.77 58.92 55.56 59.04 55.26C59.22 55.02 59.43 55.14 59.67 55.62ZM60.93 56.88C60.93 57.12 60.84 57.3 60.66 57.42C60.48 57.42 60.33 57.33 60.21 57.15V56.7C60.57 56.7 60.81 56.76 60.93 56.88ZM62.19 58.32C62.25 58.56 62.19 58.68 62.01 58.68C61.77 58.74 61.53 58.68 61.29 58.5C61.65 58.08 61.89 57.9 62.01 57.96L62.19 58.32ZM9.09 5.85C8.91 5.97 8.7 5.97 8.46 5.85C8.4 5.85 8.37 5.73 8.37 5.49C8.49 5.31 8.67 5.19 8.91 5.13C9.09 5.55 9.15 5.79 9.09 5.85ZM55.89 52.56C55.77 52.74 55.47 52.74 54.99 52.56C55.17 51.78 55.44 51.66 55.8 52.2C55.86 52.26 55.89 52.38 55.89 52.56ZM5.85 3.15C5.91 3.27 5.85 3.48 5.67 3.78C5.37 3.66 5.16 3.48 5.04 3.23999C5.16 3 5.34 2.88 5.58 2.88C5.76 3.06 5.85 3.15 5.85 3.15ZM7.11 4.94999C6.87 5.25 6.66 5.4 6.48 5.4C6.42 5.4 6.36 5.19 6.3 4.77C6.3 4.65 6.42 4.59 6.66 4.59C6.78 4.65 6.93 4.77 7.11 4.94999ZM59.13 57.06C59.13 57.18 59.01 57.36 58.77 57.6C58.41 57.42 58.29 57.21 58.41 56.97C58.77 56.61 59.01 56.64 59.13 57.06ZM62.01 60.75C61.83 60.87 61.56 60.93 61.2 60.93C61.2 60.63 61.2 60.48 61.2 60.48C61.2 60.3 61.29 60.18 61.47 60.12C61.65 60.12 61.77 60.21 61.83 60.39C61.89 60.51 61.95 60.63 62.01 60.75ZM3.78 3.78C3.66 3.84 3.42 3.81 3.06 3.68999C2.88 3.51 3.03 3.27 3.51 2.97C3.75 3.39 3.84 3.66 3.78 3.78ZM59.85 59.67C59.85 59.67 59.73 59.85 59.49 60.21C59.31 60.21 59.16 60.12 59.04 59.94L59.13 59.4C59.49 59.4 59.73 59.49 59.85 59.67ZM4.59 5.49C4.35 5.61 4.14 5.61 3.96 5.49C3.84 5.43 3.87 5.25 4.05 4.94999L4.32 4.77C4.56 5.07 4.65 5.31 4.59 5.49ZM61.29 62.46C61.35 62.58 61.23 62.79 60.93 63.09C60.69 63.09 60.57 63 60.57 62.82C60.57 62.64 60.57 62.46 60.57 62.28C60.87 62.22 61.11 62.28 61.29 62.46ZM61.47 47.52C60.93 47.88 60.57 48.6 60.39 49.68C60.21 50.76 59.94 51.51 59.58 51.93C58.2 53.37 57.51 55.38 57.51 57.96C57.51 59.04 57.63 60.48 57.87 62.28C58.23 64.62 58.44 66 58.5 66.42C58.62 66.48 58.14 66.54 57.06 66.6C56.52 66.6 56.19 66.33 56.07 65.79C54.51 64.05 53.22 63.18 52.2 63.18C50.22 63.18 48.72 64.29 47.7 66.51C46.98 64.77 47.13 63.18 48.15 61.74C49.17 60.3 50.61 59.76 52.47 60.12C53.07 60.3 54.24 61.23 55.98 62.91L56.07 62.82L53.46 54.72C53.7 54.42 54.03 54 54.45 53.46L56.79 60.3L56.88 59.76L56.97 52.02C57.39 49.14 58.35 47.37 59.85 46.71C60.15 46.65 60.69 46.92 61.47 47.52ZM8.82 10.62C8.82 10.86 8.76 11.01 8.64 11.07C8.22 10.95 8.04 10.86 8.1 10.8C8.04 10.5 8.13 10.32 8.37 10.26C8.49 10.32 8.64 10.44 8.82 10.62ZM10.35 12.87C10.23 13.05 9.99 13.08 9.63 12.96C9.63 12.96 9.6 12.84 9.54 12.6L9.99 12.24C10.29 12.54 10.41 12.75 10.35 12.87ZM59.67 62.19C59.67 62.37 59.52 62.52 59.22 62.64C58.98 62.7 58.86 62.64 58.86 62.46V61.92C59.28 61.86 59.55 61.95 59.67 62.19ZM62.19 64.71L62.1 65.16C62.04 65.16 61.98 65.19 61.92 65.25C61.62 65.19 61.44 65.07 61.38 64.89C61.38 64.71 61.5 64.56 61.74 64.44C61.98 64.38 62.13 64.47 62.19 64.71ZM59.4 38.97C58.68 44.37 56.64 49.32 53.28 53.82C49.68 58.68 45.36 61.86 40.32 63.36C38.4 63.9 36.36 64.17 34.2 64.17C30.12 64.17 26.28 63.3 22.68 61.56C21.6 61.2 20.4 61.41 19.08 62.19C18.78 62.25 18.6 62.16 18.54 61.92C18.48 61.86 18.48 61.47 18.54 60.75C19.14 59.37 19.38 58.5 19.26 58.14C18.66 56.58 17.82 54.99 16.74 53.37C15.12 55.23 14.31 56.91 14.31 58.41C14.31 58.95 14.43 59.46 14.67 59.94C14.91 60.36 15.18 60.99 15.48 61.83C15.48 61.83 14.73 61.8 13.23 61.74C12.87 61.68 12.48 61.89 12.06 62.37C11.64 62.85 11.31 63.12 11.07 63.18C10.05 63.9 8.85 64.26 7.47 64.26C6.57 64.26 5.76 64.08 5.04 63.72C3.78 63.06 3.15 61.98 3.15 60.48C3.15 59.52 3.6 58.77 4.5 58.23C5.52 57.69 6.48 57.75 7.38 58.41C7.62 58.59 7.83 59.01 8.01 59.67C8.01 60.09 7.8 60.42 7.38 60.66C7.26 60.72 6.99 60.69 6.57 60.57C6.39 60.45 6.24 60.15 6.12 59.67C6.06 59.13 5.85 58.86 5.49 58.86C5.25 58.92 5.07 59.28 4.95 59.94C4.95 60.72 5.31 61.23 6.03 61.47C6.99 61.77 7.86 61.62 8.64 61.02C10.32 59.46 11.37 56.94 11.79 53.46L12.69 46.26L13.05 41.04L13.32 33.84V27.18C13.26 20.64 12.36 15.42 10.62 11.52C9.84 9.78 8.25 8.82 5.85 8.63999C5.55 8.58 5.31 8.64 5.13 8.82C5.19 9.06 5.43 9.24 5.85 9.36C6.27 9.48 6.51 9.69 6.57 9.99C6.69 10.35 6.66 10.71 6.48 11.07C6.12 11.43 5.7 11.58 5.22 11.52C4.68 11.52 4.2 11.19 3.78 10.53C3.48 9.81 3.57 9.03 4.05 8.19C5.19 6.75 6.72 6.33 8.64 6.93C9.72 7.47 11.4 8.19 13.68 9.08999C13.86 9.08999 14.13 8.97 14.49 8.73C14.85 8.49 15.12 8.37 15.3 8.37C15.48 8.37 15.66 8.49 15.84 8.73C15.78 8.97 15.54 9.35999 15.12 9.89999C14.7 10.44 14.49 10.89 14.49 11.25C14.49 11.49 14.58 11.73 14.76 11.97C15.42 12.99 16.14 14.58 16.92 16.74C17.1 16.44 17.37 15.99 17.73 15.39C18.51 14.55 19.38 13.14 20.34 11.16C20.34 10.8 20.13 10.32 19.71 9.72C19.29 9.12 19.08 8.64 19.08 8.28C19.26 7.92 19.5 7.89 19.8 8.19C21.36 9.21 22.44 9.63 23.04 9.45C25.38 8.55 28.08 8.1 31.14 8.1C34.26 8.1 37.29 8.58 40.23 9.54C44.43 10.98 48.27 13.59 51.75 17.37C55.29 21.09 57.57 25.08 58.59 29.34C58.77 30.18 59.04 31.44 59.4 33.12C58.14 32.76 56.94 33.06 55.8 34.02C55.02 34.8 54.75 35.79 54.99 36.99C55.53 38.43 56.58 39.09 58.14 38.97H59.4ZM3.51 7.2C3.51 7.5 3.42 7.71 3.24 7.82999C3.18 7.82999 3 7.65 2.7 7.29C3.06 6.87 3.33 6.84 3.51 7.2ZM10.62 14.4C10.68 14.64 10.59 14.85 10.35 15.03C10.05 15.15 9.9 15.03 9.9 14.67L9.81 14.4C10.23 14.22 10.5 14.22 10.62 14.4ZM60.48 64.26C60.48 64.56 60.33 64.77 60.03 64.89C59.79 64.71 59.67 64.5 59.67 64.26C60.09 63.96 60.36 63.96 60.48 64.26ZM8.1 12.78C7.98 12.84 7.83 12.93 7.65 13.05C7.53 12.99 7.38 12.9 7.2 12.78C7.2 12.66 7.35 12.45 7.65 12.15C7.95 12.33 8.1 12.54 8.1 12.78ZM52.83 57.6C52.77 57.78 52.56 57.78 52.2 57.6C52.08 57.36 52.05 57.21 52.11 57.15C52.59 56.97 52.83 57.03 52.83 57.33V57.6ZM11.34 16.38C11.34 16.38 11.28 16.5 11.16 16.74C10.74 16.68 10.53 16.56 10.53 16.38C10.65 16.26 10.77 16.14 10.89 16.02C11.13 16.02 11.28 16.14 11.34 16.38ZM62.55 67.77C62.31 67.95 62.07 68.01 61.83 67.95C61.83 67.83 61.8 67.68 61.74 67.5C61.8 67.2 61.95 67.11 62.19 67.23C62.37 67.41 62.49 67.59 62.55 67.77ZM54.27 59.94C53.97 59.94 53.7 59.85 53.46 59.67C53.52 59.49 53.7 59.31 54 59.13C54.36 59.19 54.45 59.46 54.27 59.94ZM8.28 14.13C8.22 14.13 8.19 14.19 8.19 14.31C8.19 14.43 8.19 14.52 8.19 14.58C7.89 14.64 7.65 14.55 7.47 14.31C7.47 14.31 7.56 14.16 7.74 13.86C7.92 13.86 8.1 13.95 8.28 14.13ZM60.48 66.78C60.48 66.96 60.39 67.08 60.21 67.14C60.09 67.08 59.88 67.02 59.58 66.96C59.58 66.78 59.64 66.63 59.76 66.51C59.94 66.39 60.09 66.33 60.21 66.33C60.39 66.39 60.48 66.54 60.48 66.78ZM11.97 18.81C11.97 18.87 11.88 19.11 11.7 19.53C11.64 19.53 11.46 19.38 11.16 19.08C11.16 19.02 11.28 18.9 11.52 18.72C11.64 18.66 11.79 18.69 11.97 18.81ZM6.21 13.32L6.12 13.68L5.85 13.95C5.61 13.83 5.46 13.62 5.4 13.32C5.88 13.14 6.15 13.14 6.21 13.32ZM61.11 68.49C61.11 68.73 60.96 68.91 60.66 69.03C60.54 69.09 60.42 69 60.3 68.76L60.39 68.22C60.69 68.22 60.93 68.31 61.11 68.49ZM51.12 58.68C51.12 58.8 51.03 58.98 50.85 59.22C50.73 59.16 50.64 59.16 50.58 59.22C50.34 59.04 50.28 58.77 50.4 58.41C50.7 58.41 50.94 58.5 51.12 58.68ZM3.33 11.34C3.27 11.52 3.12 11.7 2.88 11.88C2.88 11.88 2.76 11.82 2.52 11.7C2.52 11.46 2.55 11.25 2.61 11.07C2.85 11.01 3.09 11.1 3.33 11.34ZM4.5 13.41C4.2 13.65 3.96 13.71 3.78 13.59C3.6 13.47 3.6 13.32 3.78 13.14L4.05 12.78C4.35 13.2 4.5 13.41 4.5 13.41ZM11.88 21.33C11.94 21.51 11.88 21.63 11.7 21.69H11.16C11.1 21.51 11.16 21.27 11.34 20.97C11.58 21.03 11.76 21.15 11.88 21.33ZM58.32 68.67C58.2 68.79 57.96 68.91 57.6 69.03C57.42 68.91 57.39 68.67 57.51 68.31C57.63 68.07 57.9 68.19 58.32 68.67ZM49.23 59.94C49.23 60.06 49.17 60.18 49.05 60.3C48.93 60.24 48.72 60.18 48.42 60.12C48.48 60 48.57 59.79 48.69 59.49C48.75 59.49 48.93 59.64 49.23 59.94ZM55.26 66.51C55.32 66.69 55.2 66.87 54.9 67.05C54.72 67.17 54.6 67.05 54.54 66.69V66.24C54.9 66.18 55.14 66.27 55.26 66.51ZM6.93 18.45C6.93 18.45 6.81 18.63 6.57 18.99C6.45 18.99 6.3 18.93 6.12 18.81C6.12 18.81 6.15 18.6 6.21 18.18C6.39 18.12 6.63 18.21 6.93 18.45ZM53.37 65.07C53.37 65.13 53.31 65.25 53.19 65.43C52.95 65.43 52.74 65.34 52.56 65.16C52.5 64.98 52.65 64.8 53.01 64.62C53.01 64.62 53.13 64.77 53.37 65.07ZM12.06 23.4C12.12 23.7 12.03 23.94 11.79 24.12C11.79 24.12 11.61 23.91 11.25 23.49C11.67 23.31 11.94 23.28 12.06 23.4ZM3.42 15.03C3.42 15.15 3.36 15.33 3.24 15.57C3.12 15.57 2.91 15.45 2.61 15.21C2.55 15.09 2.67 14.94 2.97 14.76C3.09 14.76 3.24 14.85 3.42 15.03ZM56.07 68.22C56.13 68.4 56.07 68.58 55.89 68.76C55.77 68.64 55.56 68.55 55.26 68.49C55.32 68.37 55.44 68.19 55.62 67.95C55.8 67.89 55.95 67.98 56.07 68.22ZM10.62 23.22C10.44 23.34 10.2 23.34 9.9 23.22C9.78 23.1 9.78 22.98 9.9 22.86L10.26 22.5C10.5 22.92 10.62 23.16 10.62 23.22ZM51.39 65.16C50.91 65.34 50.67 65.43 50.67 65.43C50.61 65.31 50.58 65.19 50.58 65.07C50.58 64.95 50.61 64.8 50.67 64.62C50.85 64.56 51.09 64.74 51.39 65.16ZM52.65 66.78C52.59 66.9 52.41 67.02 52.11 67.14C51.87 67.02 51.81 66.78 51.93 66.42C52.05 66.3 52.2 66.3 52.38 66.42C52.56 66.48 52.65 66.6 52.65 66.78ZM6.12 20.52C6 20.52 5.85 20.58 5.67 20.7C5.43 20.58 5.31 20.46 5.31 20.34L5.76 19.8C6 20.1 6.12 20.34 6.12 20.52ZM53.73 67.77C53.79 67.89 53.7 68.1 53.46 68.4C53.28 68.34 53.1 68.19 52.92 67.95C52.92 67.89 53.01 67.77 53.19 67.59C53.31 67.53 53.49 67.59 53.73 67.77ZM47.25 61.65C47.25 61.95 47.19 62.13 47.07 62.19C47.01 62.19 46.86 62.22 46.62 62.28C46.62 62.28 46.56 62.04 46.44 61.56C46.68 61.5 46.95 61.53 47.25 61.65ZM12.06 27.27C12.12 27.45 12.03 27.57 11.79 27.63H11.25C11.25 27.45 11.31 27.21 11.43 26.91C11.67 26.85 11.88 26.97 12.06 27.27ZM5.67 22.14C5.61 22.26 5.49 22.44 5.31 22.68C5.13 22.68 4.95 22.59 4.77 22.41C4.77 22.29 4.83 22.11 4.95 21.87C5.25 21.87 5.49 21.96 5.67 22.14ZM51.48 68.31C51.48 68.43 51.39 68.55 51.21 68.67C51.09 68.73 51 68.79 50.94 68.85C50.64 68.73 50.58 68.46 50.76 68.04C51.12 67.98 51.36 68.07 51.48 68.31ZM49.68 67.05C49.56 67.23 49.35 67.26 49.05 67.14C48.93 67.02 48.87 66.87 48.87 66.69C48.93 66.57 49.14 66.48 49.5 66.42C49.68 66.54 49.74 66.75 49.68 67.05ZM4.05 20.88C4.05 21.06 3.96 21.24 3.78 21.42C3.72 21.48 3.54 21.3 3.24 20.88C3.3 20.76 3.45 20.67 3.69 20.61C3.93 20.61 4.05 20.7 4.05 20.88ZM46.17 63.99C46.35 64.23 46.29 64.41 45.99 64.53C45.99 64.53 45.78 64.47 45.36 64.35C45.36 64.17 45.48 63.96 45.72 63.72C45.72 63.72 45.87 63.81 46.17 63.99ZM11.88 29.7C11.88 29.76 11.79 29.91 11.61 30.15C11.43 30.21 11.22 30.03 10.98 29.61C11.58 29.43 11.88 29.46 11.88 29.7ZM10.26 28.8C10.26 28.98 10.17 29.16 9.99 29.34C9.93 29.34 9.75 29.25 9.45 29.07C9.27 28.83 9.39 28.65 9.81 28.53C10.05 28.47 10.2 28.56 10.26 28.8ZM44.46 63.36C44.46 63.48 44.37 63.63 44.19 63.81C43.83 63.93 43.65 63.84 43.65 63.54V63.09C43.65 63.09 43.83 63.09 44.19 63.09C44.31 63.21 44.4 63.3 44.46 63.36ZM46.8 66.06C46.74 66.18 46.62 66.39 46.44 66.69C46.32 66.57 46.17 66.39 45.99 66.15C45.93 66.03 46.08 65.91 46.44 65.79C46.56 65.79 46.68 65.88 46.8 66.06ZM4.05 23.4C4.05 23.4 3.93 23.58 3.69 23.94C3.45 23.88 3.3 23.79 3.24 23.67C3.24 23.49 3.3 23.31 3.42 23.13C3.42 23.13 3.63 23.22 4.05 23.4ZM48.6 68.22C48.6 68.28 48.51 68.4 48.33 68.58L47.79 68.49C47.79 68.25 47.88 68.01 48.06 67.77C48.18 67.71 48.36 67.86 48.6 68.22ZM12.33 32.22C12.39 32.52 12.27 32.73 11.97 32.85C11.79 32.79 11.64 32.58 11.52 32.22C12 31.68 12.27 31.68 12.33 32.22ZM10.08 31.14C10.08 31.14 9.96 31.29 9.72 31.59C9.6 31.65 9.42 31.53 9.18 31.23C9.18 31.05 9.27 30.9 9.45 30.78C9.57 30.84 9.78 30.96 10.08 31.14ZM4.23 25.74C4.17 25.86 4.02 26.04 3.78 26.28C3.48 26.22 3.33 26.07 3.33 25.83C3.33 25.65 3.39 25.53 3.51 25.47C3.63 25.41 3.87 25.5 4.23 25.74ZM44.55 66.33C44.55 66.39 44.49 66.48 44.37 66.6L43.74 66.51C43.68 66.27 43.74 66.06 43.92 65.88C44.22 65.82 44.43 65.97 44.55 66.33ZM42.66 64.35C42.72 64.65 42.57 64.86 42.21 64.98C41.97 64.86 41.85 64.62 41.85 64.26C42.27 64.14 42.54 64.17 42.66 64.35ZM46.17 68.49C46.23 68.61 46.14 68.73 45.9 68.85L45.36 68.76C45.36 68.52 45.45 68.28 45.63 68.04C45.63 68.04 45.81 68.19 46.17 68.49ZM12.24 34.47C12.3 34.59 12.21 34.71 11.97 34.83C11.79 34.83 11.61 34.71 11.43 34.47C11.55 34.35 11.67 34.2 11.79 34.02C12.03 34.08 12.18 34.23 12.24 34.47ZM10.62 33.48C10.26 33.54 10.02 33.51 9.9 33.39C9.84 33.21 9.96 33 10.26 32.76C10.68 33 10.8 33.24 10.62 33.48ZM41.94 66.42C41.88 66.66 41.76 66.84 41.58 66.96C41.46 67.02 41.31 66.9 41.13 66.6V66.24C41.37 66.18 41.64 66.24 41.94 66.42ZM4.14 28.71C4.08 28.89 3.9 29.07 3.6 29.25C3.3 29.13 3.24 28.86 3.42 28.44C3.6 28.32 3.84 28.41 4.14 28.71ZM40.23 64.98C40.23 65.16 40.14 65.31 39.96 65.43L39.42 65.34C39.42 65.16 39.54 64.92 39.78 64.62C40.02 64.68 40.17 64.8 40.23 64.98ZM43.11 68.13C43.05 68.49 42.87 68.7 42.57 68.76C42.57 68.7 42.48 68.52 42.3 68.22C42.24 68.1 42.27 68.01 42.39 67.95C42.69 67.89 42.93 67.95 43.11 68.13ZM12.33 38.43C12.15 38.49 11.82 38.58 11.34 38.7C9.66 39.3 8.7 40.59 8.46 42.57C8.52 43.47 8.85 45.03 9.45 47.25C9.93 49.17 10.11 50.76 9.99 52.02C9.93 53.52 9.09 54.6 7.47 55.26C6.69 55.56 5.91 55.47 5.13 54.99C4.35 54.45 4.05 53.58 4.23 52.38C4.29 52.26 4.35 52.14 4.41 52.02C5.13 52.86 5.79 53.28 6.39 53.28C7.05 53.28 7.65 52.98 8.19 52.38C8.73 51.72 9.03 51.06 9.09 50.4C8.73 48.84 8.28 46.47 7.74 43.29C7.68 43.95 7.74 44.88 7.92 46.08C8.1 47.28 8.19 48.15 8.19 48.69C8.19 49.77 7.95 50.67 7.47 51.39L6.12 45.45C5.76 43.83 6.06 42.18 7.02 40.5C6.9 40.62 6.69 40.71 6.39 40.77C6.15 40.89 5.85 40.86 5.49 40.68C5.13 40.44 4.89 40.05 4.77 39.51C4.71 39.15 4.77 38.79 4.95 38.43C5.49 38.67 6.06 38.79 6.66 38.79C6.42 38.79 7.95 38.46 11.25 37.8C9.39 37.02 7.89 35.79 6.75 34.11C5.61 32.37 5.07 30.54 5.13 28.62C5.19 27.24 5.67 25.41 6.57 23.13C7.53 20.85 8.07 19.08 8.19 17.82C8.37 18.06 8.7 18.33 9.18 18.63C9.3 18.51 9.3 18.36 9.18 18.18C8.46 17.16 7.47 16.77 6.21 17.01C5.85 17.19 5.52 17.58 5.22 18.18C4.92 18.78 4.68 19.17 4.5 19.35C4.26 19.41 3.93 19.2 3.51 18.72C3.09 17.82 3.21 16.92 3.87 16.02C4.59 15.06 5.58 14.7 6.84 14.94C7.92 15.24 8.67 15.81 9.09 16.65C9.57 17.49 9.81 18.45 9.81 19.53C9.81 20.91 9.51 22.14 8.91 23.22C8.85 23.34 8.76 23.52 8.64 23.76C8.58 24 8.52 24.15 8.46 24.21C8.94 24.21 9.42 24.21 9.9 24.21C10.5 24.27 10.89 24.48 11.07 24.84C11.25 25.14 11.4 25.56 11.52 26.1C9.84 26.46 8.79 27.39 8.37 28.89C8.19 29.49 8.1 30.12 8.1 30.78C8.1 33.48 9.51 35.43 12.33 36.63C12.45 36.99 12.45 37.59 12.33 38.43ZM3.96 31.68C3.84 31.68 3.63 31.71 3.33 31.77C3.27 31.71 3.24 31.56 3.24 31.32L3.6 30.96C3.9 31.32 4.02 31.56 3.96 31.68ZM37.62 64.98C37.62 64.98 37.5 65.13 37.26 65.43C37.14 65.43 36.99 65.37 36.81 65.25C36.81 64.83 36.87 64.62 36.99 64.62C37.23 64.56 37.44 64.68 37.62 64.98ZM12.33 39.87C12.21 40.05 11.94 40.14 11.52 40.14C11.4 39.9 11.4 39.69 11.52 39.51C11.88 39.21 12.15 39.33 12.33 39.87ZM39.24 67.23C39.12 67.41 38.94 67.44 38.7 67.32L38.43 67.05C38.55 66.93 38.73 66.78 38.97 66.6C38.97 66.6 39.06 66.81 39.24 67.23ZM40.41 68.49C40.41 68.61 40.35 68.76 40.23 68.94C40.05 68.88 39.84 68.79 39.6 68.67C39.6 68.61 39.75 68.43 40.05 68.13C40.05 68.13 40.17 68.25 40.41 68.49ZM5.13 33.12C5.13 33.3 5.01 33.51 4.77 33.75C4.71 33.75 4.53 33.54 4.23 33.12C4.71 32.76 5.01 32.76 5.13 33.12ZM8.37 37.08C8.37 37.08 8.34 37.26 8.28 37.62C8.16 37.56 7.95 37.47 7.65 37.35C7.59 37.17 7.71 36.99 8.01 36.81C8.37 36.81 8.49 36.9 8.37 37.08ZM37.62 66.96C37.62 66.96 37.35 67.02 36.81 67.14C36.81 66.78 36.87 66.54 36.99 66.42C37.11 66.36 37.29 66.45 37.53 66.69C37.53 66.75 37.56 66.84 37.62 66.96ZM4.23 34.56C4.23 34.74 4.08 34.89 3.78 35.01H3.51C3.51 34.83 3.57 34.59 3.69 34.29C3.87 34.23 4.05 34.32 4.23 34.56ZM6.21 36.81C5.97 36.99 5.76 37.02 5.58 36.9C5.46 36.84 5.4 36.75 5.4 36.63L5.85 36.18C6.09 36.6 6.21 36.81 6.21 36.81ZM10.89 41.31C10.83 41.49 10.59 41.58 10.17 41.58C10.17 41.58 10.14 41.4 10.08 41.04C10.26 40.62 10.5 40.62 10.8 41.04C10.8 41.1 10.83 41.19 10.89 41.31ZM35.55 66.15C35.43 66.45 35.28 66.63 35.1 66.69C34.74 66.51 34.65 66.24 34.83 65.88C34.95 65.76 35.19 65.85 35.55 66.15ZM11.79 42.39C11.85 42.51 11.82 42.72 11.7 43.02C11.52 43.02 11.31 42.93 11.07 42.75C11.01 42.57 11.13 42.39 11.43 42.21C11.55 42.21 11.67 42.27 11.79 42.39ZM37.8 68.85C37.8 68.85 37.62 69 37.26 69.3C37.02 69.24 36.93 69.12 36.99 68.94C36.93 68.7 36.99 68.55 37.17 68.49C37.29 68.49 37.5 68.61 37.8 68.85ZM34.02 65.25C33.96 65.55 33.87 65.67 33.75 65.61L33.21 65.52C33.21 65.16 33.33 64.92 33.57 64.8C33.57 64.8 33.72 64.95 34.02 65.25ZM10.17 43.56L9.99 44.01C9.75 44.07 9.54 44.01 9.36 43.83C9.3 43.71 9.39 43.53 9.63 43.29C9.81 43.29 9.99 43.38 10.17 43.56ZM4.05 37.17C4.05 37.47 3.96 37.71 3.78 37.89C3.6 37.89 3.39 37.68 3.15 37.26C3.51 37.02 3.81 36.99 4.05 37.17ZM33.66 67.41C33.66 67.53 33.6 67.65 33.48 67.77H32.85C32.85 67.47 32.91 67.2 33.03 66.96C33.21 66.9 33.42 67.05 33.66 67.41ZM34.92 68.76C34.92 69 34.74 69.18 34.38 69.3C34.2 69.18 34.11 68.94 34.11 68.58C34.47 68.46 34.74 68.52 34.92 68.76ZM11.52 45.54C11.46 45.72 11.28 45.9 10.98 46.08C10.92 46.08 10.83 45.93 10.71 45.63L10.89 45.18C11.01 45.24 11.22 45.36 11.52 45.54ZM31.68 66.06C31.8 66.24 31.71 66.36 31.41 66.42H30.96C30.96 66.06 31.05 65.82 31.23 65.7C31.47 65.7 31.62 65.82 31.68 66.06ZM29.79 64.8C29.79 64.92 29.73 65.13 29.61 65.43C29.43 65.37 29.22 65.19 28.98 64.89C29.1 64.65 29.28 64.53 29.52 64.53C29.7 64.71 29.79 64.8 29.79 64.8ZM3.69 39.78C3.63 39.9 3.54 40.08 3.42 40.32C3.18 40.38 2.97 40.2 2.79 39.78C3.33 39.54 3.63 39.54 3.69 39.78ZM5.04 42.39C4.8 42.51 4.53 42.51 4.23 42.39C4.17 42.33 4.2 42.18 4.32 41.94L4.68 41.67C4.98 41.91 5.1 42.15 5.04 42.39ZM31.59 68.49C31.53 68.67 31.44 68.88 31.32 69.12C31.14 69.06 30.93 68.91 30.69 68.67C30.75 68.43 30.9 68.28 31.14 68.22C31.44 68.22 31.59 68.31 31.59 68.49ZM11.52 48.6C11.46 48.72 11.31 48.87 11.07 49.05C10.83 49.05 10.71 48.96 10.71 48.78C10.59 48.48 10.68 48.3 10.98 48.24C11.22 48.24 11.4 48.36 11.52 48.6ZM26.64 64.26C26.64 64.38 26.61 64.5 26.55 64.62C26.25 64.68 26.01 64.62 25.83 64.44C25.83 64.14 25.98 63.93 26.28 63.81C26.28 63.81 26.4 63.96 26.64 64.26ZM29.16 66.87C28.74 67.17 28.47 67.29 28.35 67.23C28.29 66.87 28.32 66.6 28.44 66.42C28.74 66.36 28.98 66.51 29.16 66.87ZM27 66.15C27.06 66.33 26.94 66.48 26.64 66.6L26.19 66.51C26.19 66.33 26.28 66.09 26.46 65.79C26.7 65.85 26.88 65.97 27 66.15ZM23.94 63.18C23.82 63.48 23.67 63.66 23.49 63.72C23.49 63.72 23.43 63.66 23.31 63.54C23.19 63.42 23.13 63.27 23.13 63.09C23.43 62.91 23.67 62.88 23.85 63C23.85 63.12 23.88 63.18 23.94 63.18ZM3.6 42.84L3.51 43.56C3.21 43.56 2.97 43.44 2.79 43.2C2.79 42.9 2.94 42.75 3.24 42.75C3.42 42.75 3.54 42.78 3.6 42.84ZM16.65 56.61C16.47 56.79 16.26 56.79 16.02 56.61C15.78 56.49 15.75 56.34 15.93 56.16L16.38 55.8C16.62 56.16 16.71 56.43 16.65 56.61ZM28.62 68.49L28.44 69.12C28.32 69.12 28.11 69 27.81 68.76C27.75 68.52 27.84 68.37 28.08 68.31C28.26 68.31 28.44 68.37 28.62 68.49ZM17.73 57.87C17.73 58.05 17.61 58.2 17.37 58.32L17.28 58.41C17.28 58.35 17.19 58.32 17.01 58.32C17.01 57.96 17.07 57.72 17.19 57.6C17.49 57.54 17.67 57.63 17.73 57.87ZM11.25 51.39C11.25 51.57 11.22 51.75 11.16 51.93C10.98 51.93 10.74 51.84 10.44 51.66C10.44 51.6 10.53 51.42 10.71 51.12C10.89 51.18 11.07 51.27 11.25 51.39ZM25.02 65.07L24.84 65.7C24.42 65.4 24.21 65.22 24.21 65.16C24.57 64.74 24.84 64.71 25.02 65.07ZM5.76 46.17C5.76 46.47 5.67 46.68 5.49 46.8C5.31 46.86 5.1 46.68 4.86 46.26C5.28 46.02 5.58 45.99 5.76 46.17ZM21.51 62.91C21.27 63.03 21.06 63.03 20.88 62.91C20.82 62.85 20.79 62.73 20.79 62.55L21.24 62.19C21.54 62.49 21.63 62.73 21.51 62.91ZM3.78 45.72C3.48 45.9 3.24 45.93 3.06 45.81C2.88 45.69 2.85 45.57 2.97 45.45L3.42 45C3.66 45.42 3.78 45.66 3.78 45.72ZM22.14 64.35C22.26 64.59 22.17 64.8 21.87 64.98C21.69 64.98 21.54 64.86 21.42 64.62C21.42 64.38 21.48 64.23 21.6 64.17C21.78 64.17 21.96 64.23 22.14 64.35ZM26.19 68.31C26.25 68.61 26.13 68.82 25.83 68.94C25.65 68.94 25.5 68.73 25.38 68.31C25.56 68.13 25.77 68.1 26.01 68.22C26.07 68.22 26.13 68.25 26.19 68.31ZM5.85 48.24C5.85 48.36 5.79 48.57 5.67 48.87C5.49 48.87 5.28 48.78 5.04 48.6C5.04 48.42 5.13 48.24 5.31 48.06C5.43 48.06 5.61 48.12 5.85 48.24ZM23.4 66.6C23.28 66.9 23.04 66.96 22.68 66.78C22.62 66.48 22.68 66.24 22.86 66.06C22.8 66.06 22.98 66.18 23.4 66.42C23.4 66.48 23.4 66.54 23.4 66.6ZM16.56 59.67C16.5 59.91 16.38 60.09 16.2 60.21C15.96 60.27 15.81 60.09 15.75 59.67C15.75 59.73 15.84 59.64 16.02 59.4C16.2 59.4 16.38 59.49 16.56 59.67ZM10.71 54.81C10.47 55.05 10.23 55.08 9.99 54.9C9.99 54.9 9.96 54.78 9.9 54.54L10.26 54.18C10.56 54.36 10.71 54.57 10.71 54.81ZM19.26 63.27C19.32 63.51 19.26 63.63 19.08 63.63H18.54C18.54 63.21 18.63 62.94 18.81 62.82C18.99 62.88 19.14 63.03 19.26 63.27ZM3.78 47.52C3.84 47.94 3.75 48.21 3.51 48.33C3.39 48.15 3.21 47.94 2.97 47.7C3.51 47.58 3.78 47.52 3.78 47.52ZM17.46 62.28C17.34 62.46 17.13 62.49 16.83 62.37C16.71 62.31 16.68 62.19 16.74 62.01L17.19 61.65C17.43 61.95 17.52 62.16 17.46 62.28ZM6.12 50.67C6.06 50.91 5.82 51 5.4 50.94C5.4 50.94 5.37 50.76 5.31 50.4C5.43 50.22 5.61 50.19 5.85 50.31C6.03 50.37 6.12 50.49 6.12 50.67ZM23.31 68.49C23.13 68.55 22.86 68.64 22.5 68.76C22.5 68.46 22.56 68.19 22.68 67.95C22.86 67.95 23.04 68.04 23.22 68.22C23.22 68.34 23.25 68.43 23.31 68.49ZM20.79 66.6C20.67 66.6 20.46 66.63 20.16 66.69C19.92 66.57 19.89 66.39 20.07 66.15L20.43 65.88C20.73 66.18 20.85 66.42 20.79 66.6ZM3.96 49.77C3.9 50.07 3.75 50.25 3.51 50.31C3.33 50.37 3.21 50.28 3.15 50.04C3.09 49.86 3.12 49.68 3.24 49.5C3.3 49.5 3.54 49.59 3.96 49.77ZM18.36 65.16C18.36 65.1 18.24 65.28 18 65.7C17.64 65.46 17.46 65.25 17.46 65.07C17.46 65.07 17.61 64.98 17.91 64.8C18.21 65.04 18.36 65.16 18.36 65.16ZM9 56.61L8.91 57.15C8.67 57.09 8.43 57 8.19 56.88C8.19 56.82 8.28 56.64 8.46 56.34C8.76 56.16 8.94 56.25 9 56.61ZM20.25 68.22C20.31 68.4 20.22 68.58 19.98 68.76C19.8 68.76 19.68 68.7 19.62 68.58C19.56 68.4 19.5 68.25 19.44 68.13C19.92 68.07 20.19 68.1 20.25 68.22ZM18.54 66.96C18.54 67.08 18.42 67.26 18.18 67.5C17.82 67.32 17.67 67.11 17.73 66.87C18.03 66.57 18.3 66.6 18.54 66.96ZM15.84 64.62C15.84 64.8 15.75 64.98 15.57 65.16C15.33 65.1 15.15 64.98 15.03 64.8C14.97 64.62 15.12 64.47 15.48 64.35C15.6 64.29 15.72 64.38 15.84 64.62ZM3.51 52.74C3.33 53.1 3.15 53.28 2.97 53.28C2.73 53.16 2.64 52.95 2.7 52.65C2.76 52.47 3.03 52.5 3.51 52.74ZM9.45 58.86C9.21 59.22 9.03 59.37 8.91 59.31C8.73 59.19 8.64 58.95 8.64 58.59C8.82 58.47 9.09 58.56 9.45 58.86ZM13.86 63.63C13.92 63.81 13.8 63.99 13.5 64.17C13.32 64.17 13.2 63.9 13.14 63.36C13.44 63.36 13.68 63.45 13.86 63.63ZM16.29 66.78C16.23 66.96 16.05 67.14 15.75 67.32C15.57 67.26 15.45 67.14 15.39 66.96C15.33 66.72 15.42 66.54 15.66 66.42C15.72 66.42 15.93 66.54 16.29 66.78ZM6.21 56.7C6.27 57 6.15 57.21 5.85 57.33C5.55 57.21 5.4 57 5.4 56.7C5.88 56.16 6.15 56.16 6.21 56.7ZM3.87 55.53C3.87 55.59 3.84 55.71 3.78 55.89C3.6 55.89 3.36 55.8 3.06 55.62C3 55.44 3.12 55.26 3.42 55.08C3.66 55.02 3.81 55.17 3.87 55.53ZM16.74 68.49C16.86 68.73 16.77 68.91 16.47 69.03C16.29 69.09 16.14 69 16.02 68.76L15.93 68.4C16.17 68.28 16.44 68.31 16.74 68.49ZM14.04 66.15C14.04 66.27 13.92 66.45 13.68 66.69C13.62 66.69 13.56 66.69 13.5 66.69C13.2 66.57 13.14 66.3 13.32 65.88C13.68 65.88 13.92 65.97 14.04 66.15ZM12.15 65.07C12.15 65.19 12.12 65.4 12.06 65.7C11.88 65.7 11.64 65.61 11.34 65.43C11.34 65.25 11.49 65.07 11.79 64.89C11.85 64.89 11.97 64.95 12.15 65.07ZM3.69 57.87C3.63 58.05 3.45 58.23 3.15 58.41C2.73 58.29 2.64 58.02 2.88 57.6C3.06 57.48 3.24 57.48 3.42 57.6C3.6 57.78 3.69 57.87 3.69 57.87ZM14.13 68.22C14.19 68.46 14.07 68.64 13.77 68.76C13.53 68.82 13.38 68.61 13.32 68.13C13.74 68.07 14.01 68.1 14.13 68.22ZM9.81 65.7C9.87 65.88 9.75 66.09 9.45 66.33C9.21 66.27 9.06 66.12 9 65.88L9.09 65.52C9.39 65.46 9.63 65.52 9.81 65.7ZM11.52 68.4C11.28 68.52 11.04 68.52 10.8 68.4C10.74 68.34 10.77 68.16 10.89 67.86L11.25 67.68C11.49 67.98 11.58 68.22 11.52 68.4ZM7.74 66.69L7.2 67.23C6.9 67.11 6.78 66.87 6.84 66.51C6.96 66.33 7.26 66.39 7.74 66.69ZM9 68.58C8.88 68.76 8.64 68.79 8.28 68.67C8.22 68.37 8.19 68.22 8.19 68.22L8.64 67.95C8.82 68.01 8.94 68.22 9 68.58ZM5.85 65.16C5.85 65.28 5.79 65.52 5.67 65.88C5.37 65.82 5.16 65.73 5.04 65.61C5.04 65.55 5.19 65.37 5.49 65.07C5.61 65.07 5.73 65.1 5.85 65.16ZM4.14 64.08C4.2 64.2 4.11 64.38 3.87 64.62C3.69 64.68 3.48 64.47 3.24 63.99C3.84 63.81 4.14 63.84 4.14 64.08ZM6.3 67.59C6.3 67.71 6.24 67.92 6.12 68.22C5.76 68.16 5.55 68.04 5.49 67.86C5.73 67.32 6 67.23 6.3 67.59ZM4.23 66.51C4.17 66.69 4.02 66.87 3.78 67.05C3.48 67.05 3.33 66.93 3.33 66.69C3.27 66.45 3.36 66.27 3.6 66.15C3.66 66.21 3.87 66.33 4.23 66.51ZM4.32 68.49C4.32 68.79 4.17 68.91 3.87 68.85C3.81 68.91 3.69 68.79 3.51 68.49C3.63 68.37 3.75 68.25 3.87 68.13C4.11 68.19 4.26 68.31 4.32 68.49ZM47.7 21.06C45.78 17.46 43.26 14.88 40.14 13.32C37.08 11.7 33.93 10.89 30.69 10.89C27.33 10.89 24.75 11.82 22.95 13.68C20.37 16.38 19.11 21.21 19.17 28.17L19.26 37.98L19.44 45.45C19.56 49.23 20.13 52.35 21.15 54.81C22.71 58.59 26.61 60.48 32.85 60.48C39.33 60.48 44.04 58.02 46.98 53.1C49.8 48.36 51.21 42.75 51.21 36.27C51.21 30.51 50.04 25.44 47.7 21.06ZM38.7 14.04C38.64 14.28 38.55 14.46 38.43 14.58C38.19 14.64 38.01 14.55 37.89 14.31V13.86C38.13 13.8 38.4 13.86 38.7 14.04ZM45.9 21.87C45.78 22.05 45.6 22.05 45.36 21.87C45.18 21.81 45.09 21.69 45.09 21.51C45.09 21.45 45.3 21.33 45.72 21.15C45.84 21.51 45.9 21.75 45.9 21.87ZM40.05 16.02C40.05 16.14 39.96 16.26 39.78 16.38L39.24 16.2C39.24 15.9 39.33 15.69 39.51 15.57C39.57 15.57 39.75 15.72 40.05 16.02ZM36.63 13.32C36.51 13.5 36.3 13.5 36 13.32C35.7 13.2 35.67 13.05 35.91 12.87L36.36 12.6C36.54 12.84 36.63 13.08 36.63 13.32ZM37.53 15.3C37.29 15.6 37.08 15.75 36.9 15.75C36.84 15.75 36.78 15.54 36.72 15.12C36.78 15 36.93 14.94 37.17 14.94C37.23 15 37.35 15.12 37.53 15.3ZM35.1 13.95C34.98 14.07 34.83 14.16 34.65 14.22C34.47 14.22 34.35 14.13 34.29 13.95C34.29 13.71 34.32 13.53 34.38 13.41C34.68 13.35 34.92 13.53 35.1 13.95ZM48.96 27.99C48.96 27.99 48.93 28.11 48.87 28.35C48.81 28.41 48.6 28.35 48.24 28.17C48.12 27.93 48.24 27.75 48.6 27.63C48.72 27.63 48.84 27.75 48.96 27.99ZM33.48 12.6C33.48 12.72 33.36 12.87 33.12 13.05C33 13.11 32.88 12.96 32.76 12.6C32.7 12.54 32.73 12.45 32.85 12.33C33.27 12.27 33.48 12.36 33.48 12.6ZM47.43 26.73C47.13 26.97 46.89 27.09 46.71 27.09C46.53 26.97 46.53 26.73 46.71 26.37C46.77 26.19 46.92 26.16 47.16 26.28C47.22 26.4 47.31 26.55 47.43 26.73ZM49.86 30.06C49.86 30.06 49.74 30.24 49.5 30.6C49.32 30.6 49.17 30.51 49.05 30.33V29.88C49.41 29.82 49.68 29.88 49.86 30.06ZM35.37 16.47C35.25 16.53 35.04 16.56 34.74 16.56C34.62 16.44 34.56 16.41 34.56 16.47C34.5 16.29 34.65 16.05 35.01 15.75C35.19 15.87 35.31 16.11 35.37 16.47ZM32.76 13.86C32.7 13.98 32.64 14.16 32.58 14.4C32.58 14.4 32.37 14.31 31.95 14.13C31.89 14.07 32.01 13.89 32.31 13.59C32.49 13.47 32.64 13.56 32.76 13.86ZM45.63 27C45.51 27.18 45.45 27.27 45.45 27.27C45.15 27.33 44.94 27.21 44.82 26.91C44.82 26.91 44.88 26.79 45 26.55C45.24 26.61 45.45 26.76 45.63 27ZM47.25 28.71C47.37 29.01 47.25 29.16 46.89 29.16H46.44C46.44 28.98 46.53 28.71 46.71 28.35C46.89 28.41 47.07 28.53 47.25 28.71ZM30.78 12.69C30.72 12.87 30.54 12.9 30.24 12.78C29.88 12.66 29.82 12.51 30.06 12.33L30.6 11.97C30.78 12.15 30.84 12.39 30.78 12.69ZM49.86 32.76C49.56 32.82 49.32 32.73 49.14 32.49C49.14 32.31 49.26 32.16 49.5 32.04H49.86C49.86 32.52 49.86 32.76 49.86 32.76ZM33.3 16.2C33.3 16.44 33.21 16.65 33.03 16.83C32.73 16.77 32.55 16.59 32.49 16.29C32.49 16.29 32.58 16.2 32.76 16.02C33.12 16.14 33.3 16.2 33.3 16.2ZM34.47 17.73L34.38 18.27C34.02 18.21 33.78 18.06 33.66 17.82C33.66 17.64 33.84 17.49 34.2 17.37C34.38 17.43 34.47 17.55 34.47 17.73ZM47.52 31.05C47.34 31.17 47.1 31.29 46.8 31.41C46.56 31.29 46.53 31.05 46.71 30.69C46.89 30.45 47.16 30.57 47.52 31.05ZM30.78 14.49L30.69 15.12C30.45 15.06 30.21 14.91 29.97 14.67C29.97 14.49 30.15 14.34 30.51 14.22C30.57 14.28 30.66 14.37 30.78 14.49ZM45.18 29.16C45.12 29.46 45.03 29.64 44.91 29.7C44.79 29.7 44.64 29.64 44.46 29.52V28.89C44.7 28.83 44.94 28.92 45.18 29.16ZM28.44 12.87C28.44 12.99 28.38 13.14 28.26 13.32L27.63 13.14C27.69 13.02 27.78 12.81 27.9 12.51C28.08 12.45 28.26 12.57 28.44 12.87ZM35.82 20.34C35.82 20.34 35.7 20.52 35.46 20.88C35.28 20.94 35.16 20.85 35.1 20.61C35.04 20.49 35.07 20.31 35.19 20.07C35.19 20.07 35.4 20.16 35.82 20.34ZM50.13 34.65C50.07 34.83 49.95 35.04 49.77 35.28C49.65 35.28 49.5 35.16 49.32 34.92C49.32 34.86 49.29 34.8 49.23 34.74C49.59 34.32 49.89 34.29 50.13 34.65ZM33.48 18.9C33.42 19.08 33.27 19.26 33.03 19.44C32.97 19.44 32.88 19.35 32.76 19.17C32.7 18.99 32.76 18.78 32.94 18.54C33 18.6 33.18 18.72 33.48 18.9ZM31.59 17.37C31.47 17.61 31.26 17.64 30.96 17.46C30.84 17.46 30.78 17.34 30.78 17.1L31.23 16.74C31.35 16.86 31.47 17.07 31.59 17.37ZM36.9 22.68C36.96 22.8 36.81 22.95 36.45 23.13H36.09C36.09 22.89 36.15 22.62 36.27 22.32C36.45 22.32 36.66 22.44 36.9 22.68ZM28.98 15.12C28.68 15.3 28.44 15.39 28.26 15.39C28.2 14.97 28.17 14.76 28.17 14.76C28.29 14.58 28.56 14.7 28.98 15.12ZM45 31.23C45 31.41 44.88 31.65 44.64 31.95C44.58 31.89 44.43 31.77 44.19 31.59C44.13 31.35 44.22 31.2 44.46 31.14C44.64 31.08 44.82 31.11 45 31.23ZM35.01 21.78C35.01 21.96 34.86 22.17 34.56 22.41C34.32 22.05 34.2 21.84 34.2 21.78C34.26 21.66 34.38 21.6 34.56 21.6C34.74 21.6 34.89 21.66 35.01 21.78ZM49.95 37.62C49.77 37.8 49.59 37.83 49.41 37.71C49.23 37.41 49.14 37.26 49.14 37.26C49.2 37.14 49.41 37.02 49.77 36.9C49.95 37.08 50.01 37.32 49.95 37.62ZM29.7 17.01C29.76 17.31 29.64 17.52 29.34 17.64C29.22 17.64 29.1 17.52 28.98 17.28C28.98 17.1 29.04 16.95 29.16 16.83C29.34 16.77 29.52 16.83 29.7 17.01ZM26.01 13.86C25.83 13.98 25.65 13.98 25.47 13.86C25.23 13.68 25.17 13.5 25.29 13.32C25.71 13.08 25.95 13.08 26.01 13.32C26.01 13.32 26.01 13.5 26.01 13.86ZM33.3 20.61C33.36 20.73 33.33 20.97 33.21 21.33C33.03 21.27 32.82 21.18 32.58 21.06C32.52 20.88 32.64 20.7 32.94 20.52C33.06 20.52 33.18 20.55 33.3 20.61ZM37.17 25.56C36.99 25.74 36.75 25.77 36.45 25.65C36.33 25.59 36.3 25.44 36.36 25.2L36.81 24.93C37.05 25.35 37.17 25.56 37.17 25.56ZM35.55 24.12C35.49 24.18 35.25 24.24 34.83 24.3C34.65 24.12 34.62 23.97 34.74 23.85L35.1 23.4C35.4 23.88 35.55 24.12 35.55 24.12ZM27.18 15.57C27.12 15.81 27 15.99 26.82 16.11C26.52 16.23 26.37 16.11 26.37 15.75V15.39C26.61 15.33 26.88 15.39 27.18 15.57ZM47.97 36.63C47.67 36.87 47.43 36.96 47.25 36.9C47.25 36.78 47.22 36.6 47.16 36.36C47.34 36 47.61 36.09 47.97 36.63ZM49.59 39.6C49.41 39.66 49.14 39.63 48.78 39.51C49.14 38.97 49.41 38.82 49.59 39.06C49.65 39.36 49.65 39.54 49.59 39.6ZM50.13 41.31C50.19 41.61 50.1 41.79 49.86 41.85C49.68 41.85 49.53 41.73 49.41 41.49C49.41 41.43 49.41 41.31 49.41 41.13C49.77 41.13 50.01 41.19 50.13 41.31ZM23.67 15.48C23.61 15.66 23.4 15.69 23.04 15.57C22.98 15.33 22.95 15.21 22.95 15.21L23.4 14.85C23.64 15.15 23.73 15.36 23.67 15.48ZM25.02 16.92C25.08 17.16 25.05 17.34 24.93 17.46C24.81 17.52 24.72 17.58 24.66 17.64C24.6 17.64 24.48 17.43 24.3 17.01C24.6 16.83 24.84 16.8 25.02 16.92ZM40.05 33.57C39.81 33.99 39.57 34.14 39.33 34.02C39.33 33.9 39.3 33.69 39.24 33.39C39.42 33.15 39.69 33.21 40.05 33.57ZM33.21 27C33.03 27.18 32.94 27.27 32.94 27.27C32.88 27.27 32.7 27.18 32.4 27C32.4 26.94 32.55 26.76 32.85 26.46C32.97 26.46 33.09 26.64 33.21 27ZM38.34 32.4C38.34 32.52 38.28 32.64 38.16 32.76C38.04 32.82 37.83 32.79 37.53 32.67C37.53 32.49 37.65 32.28 37.89 32.04C38.01 32.04 38.16 32.16 38.34 32.4ZM32.94 22.68C32.94 23.28 32.61 23.76 31.95 24.12L30.96 24.39C31.38 24.99 31.47 25.68 31.23 26.46C30.69 26.82 30.3 26.97 30.06 26.91C29.58 26.91 29.01 26.61 28.35 26.01C28.29 27.03 28.02 27.66 27.54 27.9C27.06 28.14 26.52 28.11 25.92 27.81C25.62 27.57 25.38 27 25.2 26.1C24.48 26.76 23.82 27 23.22 26.82C22.74 26.46 22.47 26.1 22.41 25.74C22.47 25.38 22.8 24.9 23.4 24.3C22.98 24.24 22.56 24.15 22.14 24.03C21.72 23.91 21.42 23.67 21.24 23.31C21.12 22.95 21.12 22.59 21.24 22.23C21.6 21.69 22.29 21.36 23.31 21.24C22.53 20.28 22.2 19.65 22.32 19.35C22.56 18.99 23.01 18.6 23.67 18.18C24.21 18.24 24.78 18.51 25.38 18.99C25.38 18.51 25.59 17.88 26.01 17.1C27.39 17.04 28.17 17.22 28.35 17.64C28.53 18.06 28.59 18.57 28.53 19.17C29.73 18.51 30.48 18.24 30.78 18.36C31.38 18.72 31.68 19.11 31.68 19.53C31.62 20.01 31.38 20.55 30.96 21.15C32.16 21.45 32.82 21.96 32.94 22.68ZM22.14 18.27C22.02 18.51 21.81 18.54 21.51 18.36C21.45 18.3 21.39 18.18 21.33 18L21.87 17.55C22.05 18.03 22.14 18.27 22.14 18.27ZM33.03 29.43C33.03 29.43 32.85 29.43 32.49 29.43L32.22 29.16C32.34 28.98 32.55 28.8 32.85 28.62C33.03 28.86 33.09 29.13 33.03 29.43ZM36.18 32.04C36.12 32.28 36 32.46 35.82 32.58C35.52 32.7 35.37 32.58 35.37 32.22V31.86C35.61 31.8 35.88 31.86 36.18 32.04ZM31.59 28.71C31.59 28.71 31.47 28.89 31.23 29.25C30.87 29.07 30.72 28.86 30.78 28.62C30.9 28.5 31.05 28.44 31.23 28.44C31.47 28.44 31.59 28.53 31.59 28.71ZM47.25 45.18C47.13 45.42 46.95 45.45 46.71 45.27C46.53 45.03 46.44 44.91 46.44 44.91C46.44 44.85 46.65 44.73 47.07 44.55C47.19 44.91 47.25 45.12 47.25 45.18ZM48.6 46.8C48.48 46.98 48.21 46.95 47.79 46.71C47.85 46.41 47.94 46.23 48.06 46.17C48.24 46.29 48.42 46.5 48.6 46.8ZM29.52 27.99C29.46 27.75 29.4 27.96 29.34 28.62C29.28 28.62 29.07 28.53 28.71 28.35C28.71 28.23 28.8 28.05 28.98 27.81C29.1 27.81 29.28 27.87 29.52 27.99ZM21.6 20.34C21.66 20.58 21.57 20.79 21.33 20.97C21.15 21.03 21 20.94 20.88 20.7C20.94 20.64 20.94 20.52 20.88 20.34C21.18 20.1 21.42 20.1 21.6 20.34ZM45.45 45C45.51 45.12 45.39 45.33 45.09 45.63C44.85 45.63 44.73 45.54 44.73 45.36C44.73 45.18 44.73 45 44.73 44.82C45.03 44.76 45.27 44.82 45.45 45ZM49.59 43.65L49.32 44.91C48.06 43.59 46.56 43.05 44.82 43.29C44.04 43.47 43.56 44.04 43.38 45C43.14 46.14 43.47 47.37 44.37 48.69C43.89 49.35 43.29 49.68 42.57 49.68C41.73 49.62 40.98 48.99 40.32 47.79C39.9 48.75 40.02 49.71 40.68 50.67C41.16 51.39 42.06 51.84 43.38 52.02C43.56 52.8 43.26 53.49 42.48 54.09C41.7 54.69 40.95 54.81 40.23 54.45C39.57 54.09 39.03 53.46 38.61 52.56C38.25 53.34 37.89 54.12 37.53 54.9C36.99 55.8 36.27 56.19 35.37 56.07C35.91 54.57 36.15 53.22 36.09 52.02C35.37 53.04 34.59 53.52 33.75 53.46C33.21 53.46 32.76 53.19 32.4 52.65L32.31 52.47C32.85 52.53 33.45 52.08 34.11 51.12C34.29 50.82 34.5 50.37 34.74 49.77C35.04 49.11 35.28 48.63 35.46 48.33L35.37 48.24C34.23 49.32 33.12 49.74 32.04 49.5C31.32 49.26 30.96 48.63 30.96 47.61C31.92 48.09 32.82 48 33.66 47.34C34.56 46.62 34.95 45.75 34.83 44.73C34.17 45.03 33.57 44.97 33.03 44.55C32.79 44.49 32.58 44.19 32.4 43.65C32.4 43.23 32.61 42.87 33.03 42.57C33.15 42.75 33.39 42.93 33.75 43.11C34.47 43.11 35.19 42.66 35.91 41.76C36.69 40.86 37.29 40.32 37.71 40.14C39.03 39.6 40.47 39.27 42.03 39.15C40.29 38.07 38.25 37.53 35.91 37.53C33.21 37.53 30.81 38.31 28.71 39.87C26.31 41.55 25.32 43.71 25.74 46.35C25.92 47.55 26.61 48.3 27.81 48.6C28.35 48.66 29.01 48.6 29.79 48.42C29.67 49.5 29.28 50.25 28.62 50.67C28.02 51.03 27.33 51.09 26.55 50.85C25.17 50.13 24.42 48.69 24.3 46.53L24.21 46.44C23.85 46.98 23.67 47.61 23.67 48.33C23.67 49.47 24.12 50.67 25.02 51.93C25.62 52.65 26.16 53.04 26.64 53.1C25.26 53.88 23.94 53.82 22.68 52.92C21.18 51.54 20.43 49.56 20.43 46.98C20.43 44.16 21.03 42 22.23 40.5C21.93 40.5 21.54 40.29 21.06 39.87C20.58 39.39 20.19 39.15 19.89 39.15C19.89 38.73 19.95 38.1 20.07 37.26C21.27 38.1 22.32 38.43 23.22 38.25C23.7 38.07 24.12 37.8 24.48 37.44C23.4 36.9 22.35 36.39 21.33 35.91C20.13 35.19 19.65 34.23 19.89 33.03C20.13 32.37 20.46 31.92 20.88 31.68C21.06 32.1 21.24 32.55 21.42 33.03C21.6 33.51 21.9 33.87 22.32 34.11C22.8 34.05 23.43 34.14 24.21 34.38C24.27 34.32 24.21 34.2 24.03 34.02C23.91 33.84 23.85 33.69 23.85 33.57C23.67 32.73 23.64 32.19 23.76 31.95C24 31.53 24.36 31.29 24.84 31.23C25.26 32.73 26.22 33.6 27.72 33.84C29.34 33.84 30.15 33.84 30.15 33.84C29.31 32.64 29.22 31.59 29.88 30.69C30.24 30.09 30.84 29.85 31.68 29.97C32.58 32.31 35.34 34.02 39.96 35.1C40.56 35.34 42.21 36.45 44.91 38.43L45 38.34C42.3 33.84 39.69 31.17 37.17 30.33C36.21 30.15 35.46 30.3 34.92 30.78L34.29 31.5C33.69 30.96 33.39 30.33 33.39 29.61C33.63 28.71 34.2 28.26 35.1 28.26C35.52 28.26 36.63 28.77 38.43 29.79V29.7C36.09 27 34.05 25.44 32.31 25.02C32.43 24.78 32.67 24.51 33.03 24.21C34.05 24.57 35.16 25.38 36.36 26.64C38.4 28.68 39.45 29.7 39.51 29.7C38.61 28.26 38.07 25.35 37.89 20.97C37.77 20.43 37.65 20.07 37.53 19.89C37.29 19.47 36.99 19.23 36.63 19.17C36.39 19.17 36.03 19.2 35.55 19.26C35.61 18.84 35.67 18.42 35.73 18C35.79 17.52 36 17.19 36.36 17.01C37.2 16.71 37.83 16.8 38.25 17.28C38.73 17.76 38.97 19.02 38.97 21.06C38.43 24.6 38.88 27.48 40.32 29.7L40.41 29.61C39.69 27.75 39.33 25.74 39.33 23.58C39.33 21.18 39.78 19.05 40.68 17.19C40.68 16.71 40.83 16.08 41.13 15.3C42.81 16.08 44.25 17.49 45.45 19.53C43.05 21.75 41.85 24.66 41.85 28.26C41.85 29.82 42.12 31.32 42.66 32.76H42.75C42.09 29.04 42.12 26.37 42.84 24.75C43.38 23.73 44.1 23.13 45 22.95C46.08 22.83 46.92 23.16 47.52 23.94C47.88 24.66 47.97 25.23 47.79 25.65C47.37 25.05 46.77 24.75 45.99 24.75C45.39 24.69 44.85 24.87 44.37 25.29C43.41 26.61 43.08 28.59 43.38 31.23C43.62 33.15 44.16 34.92 45 36.54C45 35.76 45 35.01 45 34.29C45.06 33.45 45.39 32.82 45.99 32.4C46.71 32.22 47.31 32.37 47.79 32.85C48.27 33.33 48.45 33.9 48.33 34.56C48.09 34.38 47.55 34.35 46.71 34.47C46.23 34.59 45.9 34.98 45.72 35.64C45.66 35.94 45.84 36.69 46.26 37.89C47.1 39.15 48.21 41.07 49.59 43.65ZM48.15 49.05C47.85 49.35 47.58 49.41 47.34 49.23C47.22 49.05 47.22 48.87 47.34 48.69C47.46 48.45 47.73 48.57 48.15 49.05ZM38.07 38.97C38.13 39.21 38.04 39.36 37.8 39.42C37.68 39.42 37.5 39.36 37.26 39.24C37.32 39.06 37.44 38.85 37.62 38.61C37.74 38.61 37.89 38.73 38.07 38.97ZM28.62 29.7L28.44 30.33C28.44 30.33 28.23 30.21 27.81 29.97C27.75 29.85 27.93 29.67 28.35 29.43C28.41 29.49 28.5 29.58 28.62 29.7ZM45.9 47.25C45.9 47.49 45.81 47.67 45.63 47.79C45.33 47.73 45.15 47.61 45.09 47.43C45.09 47.25 45.21 47.13 45.45 47.07C45.69 46.95 45.84 47.01 45.9 47.25ZM20.61 23.85C20.25 23.85 19.98 23.79 19.8 23.67C19.8 23.49 19.98 23.28 20.34 23.04C20.64 23.28 20.73 23.55 20.61 23.85ZM26.46 29.25C26.46 29.25 26.31 29.4 26.01 29.7C25.83 29.76 25.71 29.67 25.65 29.43C25.65 29.31 25.68 29.13 25.74 28.89C25.92 28.83 26.16 28.95 26.46 29.25ZM21.6 25.02C21.6 25.08 21.57 25.23 21.51 25.47C21.39 25.47 21.18 25.47 20.88 25.47C20.82 25.11 20.88 24.87 21.06 24.75C21.18 24.69 21.36 24.78 21.6 25.02ZM46.26 49.59V50.04C46.14 50.04 46.05 50.07 45.99 50.13C45.69 50.01 45.51 49.86 45.45 49.68C45.51 49.5 45.66 49.38 45.9 49.32C46.14 49.26 46.26 49.35 46.26 49.59ZM27.27 31.32C26.97 31.74 26.73 31.89 26.55 31.77C26.43 31.41 26.43 31.17 26.55 31.05C26.67 30.93 26.76 30.9 26.82 30.96C26.88 30.96 27.03 31.08 27.27 31.32ZM28.44 32.31C28.44 32.55 28.35 32.79 28.17 33.03C27.99 32.97 27.78 32.79 27.54 32.49C27.66 32.31 27.81 32.19 27.99 32.13C28.17 32.07 28.32 32.13 28.44 32.31ZM34.83 39.06C34.71 39.18 34.53 39.3 34.29 39.42H34.02C33.96 39.12 34.02 38.88 34.2 38.7C34.32 38.64 34.53 38.76 34.83 39.06ZM23.76 28.08L23.58 28.71C23.16 28.41 22.95 28.2 22.95 28.08C23.01 28.02 23.16 27.93 23.4 27.81C23.52 27.81 23.64 27.9 23.76 28.08ZM35.55 40.77C35.37 40.89 35.19 40.89 35.01 40.77L34.83 40.5C34.89 40.32 35.07 40.17 35.37 40.05C35.61 40.47 35.67 40.71 35.55 40.77ZM24.3 30.51C24.18 30.69 24 30.72 23.76 30.6C23.58 30.36 23.49 30.21 23.49 30.15C23.67 29.97 23.88 29.85 24.12 29.79C24.3 29.97 24.36 30.21 24.3 30.51ZM46.08 52.47C46.02 52.47 45.96 52.5 45.9 52.56C45.72 52.5 45.54 52.35 45.36 52.11C45.48 51.87 45.69 51.72 45.99 51.66C46.17 51.9 46.2 52.17 46.08 52.47ZM44.64 50.4C44.64 50.4 44.52 50.64 44.28 51.12C44.16 51 44.01 50.85 43.83 50.67C43.77 50.61 43.89 50.46 44.19 50.22C44.25 50.22 44.4 50.28 44.64 50.4ZM21.15 27.99C20.97 28.17 20.79 28.2 20.61 28.08C20.43 28.02 20.34 27.87 20.34 27.63L20.88 27.27C21.06 27.75 21.15 27.99 21.15 27.99ZM22.59 30.33C22.53 30.51 22.41 30.63 22.23 30.69L21.78 30.6C21.72 30.3 21.78 30.06 21.96 29.88C22.26 29.88 22.47 30.03 22.59 30.33ZM33.66 41.04C33.66 41.16 33.57 41.37 33.39 41.67C33.21 41.61 33 41.46 32.76 41.22C32.82 41.04 32.97 40.92 33.21 40.86C33.39 40.8 33.54 40.86 33.66 41.04ZM42.21 50.67C42.21 50.91 42.15 51.06 42.03 51.12C41.79 51.18 41.61 51.06 41.49 50.76C41.43 50.58 41.58 50.43 41.94 50.31C42.12 50.25 42.21 50.37 42.21 50.67ZM44.73 53.46C44.43 53.64 44.19 53.73 44.01 53.73C43.83 53.55 43.8 53.34 43.92 53.1C44.04 52.92 44.31 53.04 44.73 53.46ZM31.59 40.32C31.47 40.56 31.35 40.71 31.23 40.77C30.99 40.89 30.84 40.8 30.78 40.5C30.78 40.2 30.87 40.05 31.05 40.05C31.23 39.99 31.41 40.08 31.59 40.32ZM22.95 32.22C23.01 32.4 22.92 32.58 22.68 32.76C22.56 32.76 22.41 32.67 22.23 32.49C22.35 32.19 22.41 32.04 22.41 32.04C22.53 32.04 22.71 32.1 22.95 32.22ZM20.7 29.97C20.76 30.21 20.64 30.42 20.34 30.6C20.22 30.6 20.1 30.48 19.98 30.24C19.92 30.06 19.95 29.91 20.07 29.79C20.25 29.73 20.46 29.79 20.7 29.97ZM30.78 42.03C30.42 42.33 30.18 42.45 30.06 42.39C30.06 42.21 30.03 42 29.97 41.76C30.15 41.46 30.42 41.55 30.78 42.03ZM44.01 55.44C43.53 55.68 43.29 55.8 43.29 55.8C43.11 55.62 43.08 55.41 43.2 55.17C43.38 54.69 43.65 54.78 44.01 55.44ZM31.41 43.38C31.47 43.56 31.38 43.77 31.14 44.01C30.78 43.77 30.63 43.56 30.69 43.38C30.69 43.26 30.87 43.2 31.23 43.2C31.29 43.2 31.35 43.26 31.41 43.38ZM33.03 46.26C32.85 46.56 32.64 46.68 32.4 46.62C32.22 46.5 32.19 46.26 32.31 45.9C32.61 45.72 32.85 45.84 33.03 46.26ZM28.53 42.66C28.35 42.84 28.14 42.87 27.9 42.75C27.6 42.63 27.57 42.45 27.81 42.21L28.26 41.94C28.5 42.3 28.59 42.54 28.53 42.66ZM41.94 56.16C41.82 56.34 41.55 56.37 41.13 56.25C41.13 55.95 41.25 55.71 41.49 55.53C41.55 55.53 41.64 55.59 41.76 55.71C41.88 55.83 41.94 55.98 41.94 56.16ZM22.77 37.44C22.77 37.62 22.74 37.74 22.68 37.8H21.96C21.96 37.5 22.02 37.26 22.14 37.08C22.44 37.02 22.65 37.14 22.77 37.44ZM29.61 44.64C29.55 44.82 29.37 44.82 29.07 44.64C28.89 44.64 28.83 44.52 28.89 44.28L29.34 43.92C29.58 44.28 29.67 44.52 29.61 44.64ZM21.15 36.36C21.15 36.54 21.06 36.72 20.88 36.9C20.7 37.02 20.55 36.93 20.43 36.63L20.34 36.27C20.76 36.15 21.03 36.18 21.15 36.36ZM30.96 46.26C31.02 46.56 30.9 46.77 30.6 46.89C30.42 46.95 30.27 46.86 30.15 46.62V46.17C30.39 46.11 30.66 46.14 30.96 46.26ZM39.33 55.26C39.39 55.38 39.27 55.59 38.97 55.89C38.97 55.89 38.82 55.77 38.52 55.53C38.46 55.35 38.61 55.2 38.97 55.08C39.03 55.02 39.15 55.08 39.33 55.26ZM41.31 57.6C41.01 57.9 40.77 57.99 40.59 57.87C40.53 57.75 40.53 57.57 40.59 57.33C40.71 57.03 40.95 57.12 41.31 57.6ZM27.63 44.91C27.69 45.15 27.63 45.36 27.45 45.54C27.27 45.54 27.06 45.42 26.82 45.18C26.76 45.06 26.88 44.91 27.18 44.73C27.3 44.73 27.45 44.79 27.63 44.91ZM33.03 51.12C32.85 51.18 32.67 51.3 32.49 51.48C32.25 51.42 32.16 51.3 32.22 51.12C32.16 50.88 32.25 50.73 32.49 50.67C32.67 50.67 32.85 50.82 33.03 51.12ZM39.24 57.96C39.24 57.96 39.03 57.96 38.61 57.96C38.49 57.9 38.43 57.78 38.43 57.6L38.97 57.24C39.21 57.66 39.3 57.9 39.24 57.96ZM28.71 46.98C28.71 47.16 28.59 47.34 28.35 47.52C28.23 47.64 28.11 47.55 27.99 47.25L27.9 46.89C28.38 46.89 28.65 46.92 28.71 46.98ZM30.78 50.58C30.78 50.88 30.75 51.12 30.69 51.3C30.33 51.3 30.09 51.15 29.97 50.85C30.03 50.43 30.3 50.34 30.78 50.58ZM20.88 40.68C20.94 40.98 20.82 41.19 20.52 41.31C20.52 41.31 20.4 41.25 20.16 41.13C20.16 41.01 20.13 40.86 20.07 40.68C20.55 40.62 20.82 40.62 20.88 40.68ZM34.29 54.81C34.29 54.93 34.2 55.14 34.02 55.44C33.66 55.2 33.48 54.99 33.48 54.81C33.54 54.81 33.72 54.72 34.02 54.54C34.2 54.9 34.29 54.99 34.29 54.81ZM37.71 58.68C37.65 58.86 37.56 59.04 37.44 59.22C37.2 59.28 37.02 59.19 36.9 58.95V58.41C37.14 58.35 37.41 58.44 37.71 58.68ZM20.61 42.66C20.67 42.84 20.64 42.96 20.52 43.02C20.4 43.02 20.16 43.02 19.8 43.02C19.8 42.66 19.89 42.42 20.07 42.3C20.25 42.24 20.43 42.36 20.61 42.66ZM31.23 53.73C31.05 53.85 30.87 53.85 30.69 53.73C30.45 53.55 30.39 53.37 30.51 53.19L31.05 52.92C31.17 53.46 31.23 53.73 31.23 53.73ZM37.17 56.34C36.45 57.36 35.49 57.87 34.29 57.87C33.51 57.75 32.79 57.54 32.13 57.24L32.04 57.33C32.64 58.23 33.69 58.59 35.19 58.41C33.87 59.25 32.55 59.25 31.23 58.41C30.09 57.69 29.55 56.79 29.61 55.71C29.61 54.93 30 54.54 30.78 54.54C31.14 54.54 31.59 54.78 32.13 55.26C32.73 55.74 33.12 56.01 33.3 56.07L34.47 56.61C35.13 56.85 36.03 56.76 37.17 56.34ZM29.61 52.74C29.25 53.04 29.01 53.13 28.89 53.01C28.77 52.77 28.77 52.53 28.89 52.29C28.95 52.29 29.19 52.44 29.61 52.74ZM35.37 59.4C35.37 59.52 35.31 59.67 35.19 59.85C35.07 59.85 34.86 59.79 34.56 59.67C34.56 59.55 34.65 59.37 34.83 59.13C35.01 59.01 35.19 59.1 35.37 59.4ZM28.8 55.8C28.68 55.92 28.44 55.92 28.08 55.8C27.9 55.62 28.05 55.38 28.53 55.08C28.77 55.44 28.86 55.68 28.8 55.8ZM27.54 54.27C27.54 54.45 27.45 54.63 27.27 54.81C27.15 54.75 26.97 54.66 26.73 54.54C26.73 54.48 26.88 54.3 27.18 54C27.18 54 27.3 54.09 27.54 54.27ZM31.5 59.31C31.56 59.55 31.47 59.76 31.23 59.94C30.93 60.06 30.78 59.94 30.78 59.58L30.69 59.22C31.17 59.16 31.44 59.19 31.5 59.31ZM28.08 57.24C27.84 57.48 27.6 57.6 27.36 57.6C27.18 57.36 27.15 57.15 27.27 56.97C27.45 56.49 27.72 56.58 28.08 57.24ZM25.83 55.26C25.47 55.62 25.23 55.74 25.11 55.62C25.11 55.62 25.08 55.44 25.02 55.08C25.32 54.72 25.59 54.78 25.83 55.26ZM28.71 58.86C28.77 59.16 28.71 59.4 28.53 59.58C28.35 59.52 28.14 59.37 27.9 59.13C28.14 58.59 28.41 58.5 28.71 58.86ZM26.46 58.41C26.1 58.77 25.86 58.89 25.74 58.77C25.62 58.53 25.62 58.29 25.74 58.05C25.74 57.99 25.92 58.02 26.28 58.14C26.28 58.2 26.34 58.29 26.46 58.41ZM22.68 54.36C22.68 54.36 22.62 54.6 22.5 55.08C22.08 54.84 21.87 54.66 21.87 54.54C22.17 54.12 22.44 54.06 22.68 54.36ZM24.48 57.24C24.36 57.42 24.15 57.45 23.85 57.33C23.67 57.21 23.64 57.06 23.76 56.88L24.21 56.61C24.45 56.85 24.54 57.06 24.48 57.24ZM43.02 19.8C42.36 20.58 41.7 22.38 41.04 25.2C40.86 24.48 40.86 23.07 41.04 20.97C40.26 24.39 40.35 27.54 41.31 30.42C40.95 26.34 41.52 22.8 43.02 19.8ZM42.84 33.12L42.75 32.76L42.84 33.12ZM28.71 21.96C28.53 21.42 28.14 21.06 27.54 20.88C26.94 20.7 26.4 20.76 25.92 21.06C25.26 21.42 24.93 21.99 24.93 22.77C24.87 23.73 25.32 24.36 26.28 24.66C27.18 24.96 27.93 24.72 28.53 23.94C28.95 23.34 29.01 22.68 28.71 21.96ZM47.25 42.93C46.65 42.03 45.78 41.64 44.64 41.76C43.26 42.06 42.42 42.9 42.12 44.28L43.29 43.2C44.55 42.3 45.87 42.21 47.25 42.93ZM48.78 43.38C48.78 43.38 48.72 43.2 48.6 42.84C46.44 40.8 44.61 39.18 43.11 37.98C41.97 36.96 40.14 36.12 37.62 35.46C34.86 34.68 32.97 33.96 31.95 33.3C32.07 33.66 32.73 34.17 33.93 34.83L32.04 35.37C29.94 35.85 27.99 36.96 26.19 38.7C24.39 40.44 23.34 42.3 23.04 44.28C24.9 39.84 27.84 37.08 31.86 36C32.88 35.76 33.87 35.64 34.83 35.64C38.79 35.64 43.32 38.19 48.42 43.29L48.78 43.38ZM42.57 40.23C39.03 40.65 36.96 42.6 36.36 46.08C37.32 43.32 39.39 41.37 42.57 40.23ZM44.46 41.22C44.04 41.16 43.32 41.25 42.3 41.49C39.54 42.75 38.01 45.51 37.71 49.77C38.79 44.79 41.04 41.94 44.46 41.22ZM28.08 23.22C27.84 23.76 27.45 24.03 26.91 24.03C26.43 24.09 26.04 23.85 25.74 23.31C25.56 22.89 25.56 22.47 25.74 22.05C26.22 21.09 26.91 21.03 27.81 21.87C28.17 22.17 28.26 22.62 28.08 23.22Z" fill="#EEA42A"/>
</svg>
