<svg width="160" height="160" viewBox="0 0 160 160" fill="none" xmlns="http://www.w3.org/2000/svg">
<path d="M80 0L114.8 19.7246L149.282 40L149.6 80L149.282 120L114.8 140.275L80 160L45.2 140.275L10.718 120L10.4 80L10.718 40L45.2 19.7246L80 0Z" fill="#EEA42A"/>
<path d="M35.3289 110.054L45.4552 107.369L41.9961 94.32L59.2733 89.7401L57.0457 81.3364L39.7684 85.9162L38.1219 79.7048L57.226 74.6406L54.8739 65.7671L25.6434 73.5155L35.3289 110.054ZM70.7415 100.666L80.8677 97.9821L78.1004 87.5427L83.1114 86.2144C92.1937 83.8069 97.619 77.5085 95.336 68.8959L95.3083 68.7915C93.1637 60.7009 85.9541 57.5284 76.7151 59.9774L61.056 64.1283L70.7415 100.666ZM75.9973 79.6087L73.4376 69.9522L78.1875 68.6931C81.8413 67.7246 84.4764 68.8137 85.3066 71.9456L85.3342 72.05C86.0952 74.9208 84.4011 77.381 80.7995 78.3358L75.9973 79.6087ZM125.996 86.8018C137.27 83.8131 143.471 73.0635 140.69 62.5718L140.662 62.4674C137.881 51.9758 127.302 45.7858 116.027 48.7745C104.752 51.7632 98.5518 62.5128 101.333 73.0045L101.361 73.1089C104.142 83.6005 114.721 89.7905 125.996 86.8018ZM123.679 77.6396C118.146 79.1063 113.118 75.523 111.72 70.251L111.692 70.1466C110.295 64.8747 112.811 59.4034 118.344 57.9367C123.929 56.4562 128.957 60.0395 130.355 65.3114L130.382 65.4158C131.78 70.6877 129.264 76.1591 123.679 77.6396Z" fill="#EF4F45"/>
</svg>
