<svg width="67" height="72" viewBox="0 0 67 72" fill="none" xmlns="http://www.w3.org/2000/svg">
<path d="M66.51 28.08L66.24 71.91L0 72V0.0899978L66.51 -1.07288e-06V28.08ZM64.62 17.91L64.44 2.07H59.85L47.7 2.16L1.98 2.25L1.89 5.85L1.71 70.83L32.49 70.38L64.35 70.56L64.44 65.43L64.35 53.73L64.62 17.91ZM63.09 3.87C63.09 4.17 62.88 4.23 62.46 4.05C62.34 3.87 62.28 3.72 62.28 3.6C62.34 3.48 62.55 3.39 62.91 3.33C62.91 3.33 62.97 3.51 63.09 3.87ZM60.57 3.6C60.57 3.9 60.39 4.11 60.03 4.23C59.97 4.23 59.88 4.14 59.76 3.96V3.42C60.06 3.42 60.33 3.48 60.57 3.6ZM63.54 7.11C63.6 7.23 63.57 7.41 63.45 7.65C63.15 7.71 62.91 7.56 62.73 7.2C62.79 7.02 62.94 6.9 63.18 6.84C63.42 6.78 63.54 6.87 63.54 7.11ZM57.87 3.96C57.57 4.26 57.33 4.38 57.15 4.32C56.97 4.2 56.94 3.96 57.06 3.6C57.18 3.42 57.36 3.42 57.6 3.6C57.6 3.65999 57.63 3.72 57.69 3.78C57.81 3.84 57.87 3.9 57.87 3.96ZM62.28 8.63999C62.34 8.76 62.22 8.94 61.92 9.18C61.74 9.18 61.62 9.12 61.56 9V8.37C61.92 8.31 62.16 8.4 62.28 8.63999ZM59.04 5.30999C59.1 5.37 59.01 5.55 58.77 5.85C58.65 5.97 58.53 5.97 58.41 5.85L58.32 5.22C58.5 5.16 58.74 5.19 59.04 5.30999ZM63.54 10.26C63.48 10.32 63.39 10.44 63.27 10.62L62.64 10.44C62.64 10.26 62.76 10.05 63 9.81C63.12 9.75 63.3 9.9 63.54 10.26ZM63.54 12.15C63.54 12.33 63.45 12.54 63.27 12.78C63.09 12.72 62.91 12.54 62.73 12.24C63.03 11.88 63.3 11.85 63.54 12.15ZM54.72 3.6C54.72 3.6 54.69 3.72 54.63 3.96C54.63 3.96 54.51 3.93 54.27 3.87C54.03 3.75 53.94 3.63 54 3.51C54.3 3.33 54.54 3.36 54.72 3.6ZM56.43 5.85C56.49 6.03 56.34 6.24 55.98 6.48C55.86 6.48 55.77 6.42 55.71 6.3V5.67C56.01 5.61 56.25 5.67 56.43 5.85ZM62.46 5.85C60.24 7.89 58.8 10.11 58.14 12.51C57.84 13.11 57.39 13.47 56.79 13.59C56.19 13.65 55.77 13.56 55.53 13.32C54.93 12.78 54.84 12 55.26 10.98C55.92 9.54 56.91 8.31 58.23 7.29C59.55 6.27 60.96 5.79 62.46 5.85ZM52.2 3.51C52.2 3.81 52.05 4.02 51.75 4.14C51.51 4.08 51.39 3.99 51.39 3.87V3.33C51.69 3.27 51.96 3.33 52.2 3.51ZM53.82 5.94C53.82 5.94 53.7 6.06 53.46 6.3C53.22 6.36 53.07 6.3 53.01 6.12C53.01 5.94 53.13 5.73 53.37 5.49C53.31 5.49 53.46 5.64 53.82 5.94ZM63.27 17.82C62.97 18.06 62.73 18.15 62.55 18.09C62.37 17.97 62.34 17.76 62.46 17.46C62.64 17.16 62.91 17.28 63.27 17.82ZM51.03 5.4C50.97 5.64 50.85 5.82 50.67 5.94C50.67 5.94 50.49 5.79 50.13 5.49C50.13 5.37 50.25 5.25 50.49 5.13C50.67 5.13 50.85 5.22 51.03 5.4ZM48.96 3.68999C48.66 3.99 48.42 4.11 48.24 4.05C48.06 3.93 48.06 3.69 48.24 3.33C48.48 3.21 48.63 3.21 48.69 3.33C48.75 3.39 48.84 3.51 48.96 3.68999ZM50.94 7.92C50.82 7.98 50.64 7.98 50.4 7.92L50.13 7.65C50.37 7.05 50.64 6.96 50.94 7.38C51 7.67999 51 7.86 50.94 7.92ZM58.95 13.05C59.01 14.19 58.62 15 57.78 15.48C56.94 15.9 55.89 15.84 54.63 15.3C53.91 14.82 53.49 14.1 53.37 13.14C53.43 12.48 53.67 12.03 54.09 11.79C54.03 12.93 54.42 13.8 55.26 14.4C56.22 14.94 57.18 14.82 58.14 14.04C58.44 13.74 58.71 13.41 58.95 13.05ZM47.7 5.75999C47.52 5.88 47.34 5.88 47.16 5.75999C47.04 5.64 46.95 5.58 46.89 5.58C47.01 5.28 47.19 5.07 47.43 4.94999C47.67 5.07 47.76 5.34 47.7 5.75999ZM45.99 3.33C45.99 3.63 45.87 3.9 45.63 4.14C45.51 4.02 45.36 3.87 45.18 3.68999C45.24 3.57 45.36 3.42 45.54 3.23999C45.6 3.23999 45.75 3.27 45.99 3.33ZM62.46 20.16C62.46 20.46 62.28 20.67 61.92 20.79C61.62 20.61 61.56 20.34 61.74 19.98C62.04 19.92 62.28 19.98 62.46 20.16ZM63.09 14.76C63.09 15.42 62.94 15.9 62.64 16.2C62.4 16.5 61.5 16.71 59.94 16.83C60.66 18.21 60.75 19.32 60.21 20.16C59.49 20.88 58.71 21.12 57.87 20.88C57.39 20.64 56.76 19.74 55.98 18.18C55.62 18.9 55.32 19.38 55.08 19.62C54.66 20.16 54.18 20.43 53.64 20.43C52.98 20.31 52.5 20.07 52.2 19.71C51.96 19.29 51.84 18.69 51.84 17.91C51.84 16.77 51.84 16.2 51.84 16.2C50.64 16.62 49.68 16.53 48.96 15.93C48.24 14.97 48.03 14.19 48.33 13.59C48.51 13.23 49.26 12.51 50.58 11.43C50.52 11.07 50.43 10.71 50.31 10.35C50.25 9.87 50.31 9.51 50.49 9.27C51.03 8.73 52.08 8.73 53.64 9.27C53.82 8.97 54 8.67 54.18 8.37C54.36 8.01 54.63 7.86 54.99 7.92C55.23 7.92 55.56 8.01 55.98 8.19C55.86 8.85 55.38 9.48 54.54 10.08C53.46 10.8 52.83 11.28 52.65 11.52C52.23 12.6 52.32 13.62 52.92 14.58C53.88 15.72 55.08 16.29 56.52 16.29C58.02 16.29 58.98 15.84 59.4 14.94C59.64 14.4 59.76 13.68 59.76 12.78C59.82 12.06 59.85 11.34 59.85 10.62C59.97 10.44 60.21 10.26 60.57 10.08C60.93 10.08 61.26 10.26 61.56 10.62C61.98 11.46 61.83 12.33 61.11 13.23V13.32C61.53 13.5 61.95 13.68 62.37 13.86C62.79 14.04 63.03 14.34 63.09 14.76ZM63.27 22.5C63.21 22.74 63.03 22.77 62.73 22.59C62.55 22.47 62.46 22.32 62.46 22.14C62.52 22.14 62.76 22.05 63.18 21.87C63.3 22.17 63.33 22.38 63.27 22.5ZM48.6 8.91C48.24 9.09 48 9.15 47.88 9.08999C47.76 8.91 47.76 8.7 47.88 8.46C48.06 8.22 48.3 8.37 48.6 8.91ZM43.02 4.05C42.9 4.23 42.63 4.23 42.21 4.05C42.21 3.87 42.33 3.66 42.57 3.42C42.63 3.42 42.72 3.48 42.84 3.6C42.96 3.72 43.02 3.87 43.02 4.05ZM63.27 24.39C63.03 24.69 62.82 24.81 62.64 24.75C62.58 24.63 62.52 24.42 62.46 24.12C62.64 23.88 62.82 23.85 63 24.03C63.12 24.09 63.21 24.21 63.27 24.39ZM44.37 5.67C43.89 5.79 43.65 5.85 43.65 5.85C43.47 5.73 43.47 5.52 43.65 5.22C43.95 4.86 44.19 5.01 44.37 5.67ZM61.56 22.59C61.56 22.89 61.41 23.1 61.11 23.22C60.87 23.16 60.75 23.07 60.75 22.95L60.84 22.41C61.08 22.35 61.32 22.41 61.56 22.59ZM49.41 11.07C49.41 11.19 49.35 11.34 49.23 11.52L48.6 11.34C48.6 11.16 48.72 10.95 48.96 10.71C49.08 10.65 49.23 10.77 49.41 11.07ZM63.63 27.09C63.33 27.45 63.06 27.51 62.82 27.27C62.7 27.09 62.76 26.88 63 26.64C63.12 26.58 63.33 26.73 63.63 27.09ZM40.23 3.78C40.11 4.02 39.9 4.11 39.6 4.05C39.36 3.93 39.33 3.72 39.51 3.42C39.69 3.12 39.93 3.24 40.23 3.78ZM43.38 7.29C43.38 7.29 43.29 7.5 43.11 7.92C42.81 7.86 42.63 7.74 42.57 7.56C42.57 7.56 42.66 7.41 42.84 7.11C42.96 7.11 43.14 7.17 43.38 7.29ZM61.29 25.47C61.05 25.65 60.81 25.71 60.57 25.65C60.51 25.41 60.48 25.29 60.48 25.29C60.48 25.05 60.54 24.9 60.66 24.84C60.78 24.84 60.9 24.93 61.02 25.11C61.2 25.23 61.29 25.35 61.29 25.47ZM41.49 5.58C41.49 5.82 41.4 6 41.22 6.12C41.04 6.06 40.86 5.94 40.68 5.75999C40.56 5.52 40.65 5.4 40.95 5.4C41.25 5.4 41.43 5.46 41.49 5.58ZM59.13 23.49C59.19 23.61 59.13 23.79 58.95 24.03C58.71 24.09 58.5 23.94 58.32 23.58C58.32 23.4 58.44 23.28 58.68 23.22C58.92 23.16 59.07 23.25 59.13 23.49ZM57.51 22.5C57.51 22.62 57.45 22.77 57.33 22.95C57.03 23.01 56.82 22.89 56.7 22.59C56.7 22.41 56.88 22.26 57.24 22.14C57.24 22.14 57.33 22.26 57.51 22.5ZM47.16 12.33C47.16 12.33 47.07 12.45 46.89 12.69C46.71 12.69 46.53 12.63 46.35 12.51C46.35 12.21 46.44 12 46.62 11.88C46.68 11.88 46.86 12.03 47.16 12.33ZM55.8 21.24C55.86 21.42 55.74 21.6 55.44 21.78C55.32 21.72 55.2 21.57 55.08 21.33C55.08 21.27 55.08 21.18 55.08 21.06C55.26 21 55.5 21.06 55.8 21.24ZM63.45 29.43C63.45 29.55 63.39 29.73 63.27 29.97L62.64 29.7C62.64 29.58 62.76 29.4 63 29.16C63.24 29.04 63.39 29.13 63.45 29.43ZM41.49 7.92C41.49 7.98 41.43 8.1 41.31 8.28L40.68 8.19C40.68 7.94999 40.77 7.74 40.95 7.56C41.07 7.5 41.25 7.62 41.49 7.92ZM36.99 3.6C37.05 3.72 36.99 3.87 36.81 4.05H36.27C36.21 3.87 36.27 3.63 36.45 3.33C36.39 3.33 36.57 3.42 36.99 3.6ZM38.79 5.4C38.85 5.52 38.7 5.73 38.34 6.03C38.22 6.03 38.1 5.94 37.98 5.75999C37.98 5.58 38.04 5.4 38.16 5.22C38.46 5.16 38.67 5.22 38.79 5.4ZM59.13 25.92C59.19 26.16 59.1 26.31 58.86 26.37L58.32 26.19C58.32 25.95 58.41 25.74 58.59 25.56C58.77 25.5 58.95 25.62 59.13 25.92ZM61.83 29.16C61.83 29.34 61.74 29.46 61.56 29.52L61.02 29.43C61.02 29.37 61.11 29.13 61.29 28.71C61.41 28.71 61.59 28.86 61.83 29.16ZM42.57 10.08C42.39 10.32 42.15 10.41 41.85 10.35C41.67 10.23 41.64 10.02 41.76 9.72C42 9.48 42.27 9.6 42.57 10.08ZM47.07 14.49C47.25 14.73 47.19 14.91 46.89 15.03L46.26 14.94C46.26 14.7 46.35 14.49 46.53 14.31C46.71 14.13 46.89 14.19 47.07 14.49ZM49.23 17.46C49.23 17.64 49.14 17.79 48.96 17.91C48.84 17.91 48.66 17.85 48.42 17.73C48.42 17.55 48.54 17.34 48.78 17.1C48.9 17.04 49.05 17.16 49.23 17.46ZM63.27 31.77C63.21 32.07 63.12 32.28 63 32.4C62.64 32.1 62.46 31.89 62.46 31.77C62.64 31.65 62.79 31.59 62.91 31.59C63.03 31.59 63.15 31.65 63.27 31.77ZM53.82 22.41C53.94 22.65 53.85 22.8 53.55 22.86C53.19 22.62 53.01 22.44 53.01 22.32C53.19 22.14 53.37 22.05 53.55 22.05C53.67 22.17 53.76 22.29 53.82 22.41ZM51.84 20.79C51.84 20.79 51.72 21.06 51.48 21.6C51.36 21.48 51.21 21.33 51.03 21.15C50.97 21.09 51.09 20.94 51.39 20.7C51.45 20.7 51.6 20.73 51.84 20.79ZM35.55 5.49C35.37 5.61 35.19 5.61 35.01 5.49L34.83 5.22C34.89 5.03999 35.07 4.86 35.37 4.68C35.61 5.1 35.67 5.37 35.55 5.49ZM47.43 16.92C47.43 17.04 47.34 17.28 47.16 17.64C46.8 17.4 46.62 17.19 46.62 17.01C46.98 16.59 47.25 16.56 47.43 16.92ZM33.84 4.14C33.72 4.2 33.48 4.11 33.12 3.87C33.06 3.81 33.24 3.63 33.66 3.33C33.9 3.69 33.96 3.96 33.84 4.14ZM61.29 31.32L61.2 31.77C60.9 31.77 60.66 31.71 60.48 31.59C60.54 31.41 60.66 31.2 60.84 30.96C60.96 30.9 61.11 31.02 61.29 31.32ZM42.12 12.06C42.12 12.24 42 12.45 41.76 12.69C41.64 12.75 41.49 12.6 41.31 12.24V11.97C41.55 11.91 41.82 11.94 42.12 12.06ZM54.36 25.11C54.36 25.23 54.24 25.47 54 25.83C53.64 25.41 53.46 25.2 53.46 25.2C53.52 25.14 53.64 25.05 53.82 24.93C54.06 24.93 54.24 24.99 54.36 25.11ZM63.36 34.83C63.42 34.89 63.33 35.07 63.09 35.37C63.03 35.43 62.94 35.46 62.82 35.46C62.82 35.46 62.76 35.19 62.64 34.65C62.94 34.59 63.18 34.65 63.36 34.83ZM46.98 19.17C46.98 19.23 46.92 19.32 46.8 19.44C46.56 19.5 46.35 19.44 46.17 19.26C46.17 19.26 46.26 19.05 46.44 18.63C46.56 18.63 46.74 18.81 46.98 19.17ZM32.58 5.22C32.1 5.46 31.86 5.58 31.86 5.58C31.68 5.34 31.65 5.13 31.77 4.94999C31.89 4.71 32.16 4.8 32.58 5.22ZM30.69 3.96C30.69 3.96 30.45 3.96 29.97 3.96C29.97 3.72 29.97 3.6 29.97 3.6L30.51 3.23999C30.63 3.42 30.69 3.66 30.69 3.96ZM53.82 27.27V27.81C53.52 27.81 53.25 27.72 53.01 27.54C53.07 27.36 53.19 27.18 53.37 27C53.61 26.88 53.76 26.97 53.82 27.27ZM40.59 14.22C40.59 14.4 40.44 14.61 40.14 14.85C40.02 14.73 39.9 14.52 39.78 14.22C39.78 14.1 39.9 14.04 40.14 14.04C40.38 14.04 40.53 14.1 40.59 14.22ZM60.21 34.02C60.15 34.26 60.03 34.44 59.85 34.56C59.55 34.56 59.4 34.5 59.4 34.38L59.49 33.84C59.79 33.78 60.03 33.84 60.21 34.02ZM63.45 37.44C63.45 37.62 63.33 37.8 63.09 37.98C62.97 37.98 62.85 37.92 62.73 37.8V37.17C62.91 37.17 63.15 37.26 63.45 37.44ZM46.44 21.06C46.44 21.24 46.41 21.36 46.35 21.42C46.23 21.48 45.99 21.45 45.63 21.33C45.63 21.09 45.69 20.88 45.81 20.7C45.99 20.64 46.2 20.76 46.44 21.06ZM61.38 36.18C61.38 36.3 61.29 36.45 61.11 36.63C60.81 36.57 60.63 36.42 60.57 36.18C60.57 36 60.72 35.88 61.02 35.82C61.14 35.76 61.26 35.88 61.38 36.18ZM35.55 10.44C35.55 10.62 35.4 10.86 35.1 11.16C34.98 11.04 34.83 10.83 34.65 10.53C34.71 10.35 34.86 10.26 35.1 10.26C35.28 10.2 35.43 10.26 35.55 10.44ZM28.08 3.42C28.08 3.48 27.93 3.72 27.63 4.14C27.39 3.9 27.27 3.66 27.27 3.42C27.51 3.18 27.72 3.15 27.9 3.33C27.96 3.51 28.02 3.54 28.08 3.42ZM30.51 6.12C30.51 6.24 30.36 6.45 30.06 6.75C29.64 6.51 29.52 6.27 29.7 6.03C30.06 5.73 30.33 5.76 30.51 6.12ZM29.16 5.49C29.16 5.49 28.98 5.55 28.62 5.67C28.38 5.43 28.29 5.28 28.35 5.22L28.89 4.86C29.07 5.22 29.16 5.43 29.16 5.49ZM50.49 26.55C50.55 26.73 50.46 26.97 50.22 27.27C50.22 27.27 50.04 27.15 49.68 26.91C49.68 26.67 49.77 26.55 49.95 26.55C50.13 26.49 50.31 26.49 50.49 26.55ZM63.36 40.41C63.42 40.71 63.36 40.86 63.18 40.86C63 40.86 62.79 40.74 62.55 40.5C62.55 40.32 62.7 40.17 63 40.05C63 40.05 63.12 40.17 63.36 40.41ZM36.09 13.59C36.09 13.89 35.94 14.07 35.64 14.13C35.4 13.83 35.31 13.62 35.37 13.5C35.67 13.2 35.91 13.23 36.09 13.59ZM61.29 39.33C61.17 39.51 60.99 39.51 60.75 39.33C60.57 39.21 60.51 39.06 60.57 38.88C60.57 38.88 60.75 38.79 61.11 38.61C61.35 38.79 61.41 39.03 61.29 39.33ZM59.22 36.72C59.22 36.72 59.13 36.9 58.95 37.26C58.77 37.32 58.59 37.17 58.41 36.81C58.41 36.63 58.53 36.54 58.77 36.54C59.01 36.54 59.16 36.6 59.22 36.72ZM37.71 15.48C37.77 15.6 37.68 15.69 37.44 15.75C37.14 15.69 36.96 15.57 36.9 15.39C37.02 15.15 37.17 15.03 37.35 15.03C37.59 14.97 37.71 15.12 37.71 15.48ZM42.03 19.98C42.09 20.22 41.94 20.43 41.58 20.61C41.52 20.61 41.4 20.49 41.22 20.25C41.34 19.95 41.4 19.8 41.4 19.8C41.52 19.8 41.73 19.86 42.03 19.98ZM39.06 17.19C39.12 17.43 39.06 17.61 38.88 17.73C38.7 17.79 38.58 17.85 38.52 17.91C38.22 17.73 38.16 17.43 38.34 17.01C38.52 17.01 38.76 17.07 39.06 17.19ZM25.11 3.33L24.84 3.96C24.54 3.96 24.33 3.81 24.21 3.51C24.33 3.27 24.48 3.12 24.66 3.06C24.84 3.06 24.99 3.15 25.11 3.33ZM32.85 11.34C32.55 11.58 32.31 11.7 32.13 11.7C32.01 11.64 31.95 11.46 31.95 11.16C32.13 10.98 32.28 10.89 32.4 10.89C32.46 11.01 32.61 11.16 32.85 11.34ZM26.64 5.49C26.46 5.79 26.22 5.91 25.92 5.85C25.74 5.73 25.74 5.52 25.92 5.22C25.98 5.1 26.22 5.19 26.64 5.49ZM48.24 27.27C48.36 27.57 48.27 27.78 47.97 27.9C47.85 27.96 47.7 27.9 47.52 27.72V27.18C47.7 27.12 47.94 27.15 48.24 27.27ZM28.08 7.38C28.08 7.5 27.99 7.68 27.81 7.92C27.51 7.86 27.33 7.74 27.27 7.56C27.39 7.26 27.54 7.11 27.72 7.11C27.9 7.11 28.02 7.2 28.08 7.38ZM63.54 43.02C63.6 43.26 63.42 43.47 63 43.65C63 43.47 62.91 43.29 62.73 43.11L62.82 42.84C63.12 42.78 63.36 42.84 63.54 43.02ZM35.28 15.12C35.28 15.36 35.13 15.57 34.83 15.75C34.77 15.63 34.65 15.51 34.47 15.39C34.41 15.15 34.5 15 34.74 14.94C34.92 14.88 35.1 14.94 35.28 15.12ZM58.59 38.79C58.23 39.03 57.99 39.12 57.87 39.06C57.69 38.94 57.66 38.76 57.78 38.52C57.96 38.16 58.23 38.25 58.59 38.79ZM56.61 37.26C56.31 37.56 56.1 37.68 55.98 37.62C55.8 37.5 55.77 37.26 55.89 36.9C56.01 36.72 56.25 36.84 56.61 37.26ZM61.74 42.3C61.86 42.72 61.83 42.99 61.65 43.11C61.47 43.17 61.29 43.08 61.11 42.84C61.05 42.78 61.14 42.63 61.38 42.39L61.74 42.3ZM41.76 22.68C41.22 22.86 40.92 22.86 40.86 22.68C40.8 22.44 40.86 22.26 41.04 22.14C41.22 22.08 41.37 22.11 41.49 22.23C41.67 22.35 41.76 22.5 41.76 22.68ZM50.04 30.87C50.04 31.05 49.98 31.23 49.86 31.41L49.23 31.23C49.23 30.99 49.35 30.81 49.59 30.69C49.77 30.51 49.92 30.57 50.04 30.87ZM22.14 3.42C22.02 3.54 21.84 3.66 21.6 3.78H21.33C21.27 3.48 21.33 3.24 21.51 3.06C21.63 3 21.84 3.12 22.14 3.42ZM23.67 5.04C23.73 5.22 23.64 5.37 23.4 5.49H22.95C22.89 5.25 22.92 4.98 23.04 4.68C23.34 4.62 23.55 4.74 23.67 5.04ZM47.97 29.79C47.85 29.97 47.64 30 47.34 29.88C47.22 29.58 47.16 29.43 47.16 29.43L47.7 29.16C47.94 29.52 48.03 29.73 47.97 29.79ZM24.93 7.01999C24.99 7.2 24.9 7.32 24.66 7.38H24.21C24.15 7.2 24.18 6.96 24.3 6.66C24.6 6.6 24.81 6.71999 24.93 7.01999ZM30.6 13.05C30.36 13.29 30.15 13.41 29.97 13.41C29.73 13.17 29.67 12.96 29.79 12.78C30.09 12.42 30.36 12.51 30.6 13.05ZM45.9 28.35C45.96 28.65 45.84 28.86 45.54 28.98C45.54 28.98 45.51 29.01 45.45 29.07C45.09 28.89 45.03 28.62 45.27 28.26C45.39 28.2 45.6 28.23 45.9 28.35ZM63.09 46.08C62.97 46.32 62.76 46.35 62.46 46.17C62.34 46.05 62.28 45.93 62.28 45.81C62.34 45.69 62.55 45.57 62.91 45.45C63.09 45.57 63.15 45.78 63.09 46.08ZM25.83 9C25.83 9 25.59 9.09 25.11 9.27C24.93 9.15 24.93 8.91 25.11 8.55C25.35 8.31 25.59 8.46 25.83 9ZM39.6 22.86C39.6 22.98 39.51 23.07 39.33 23.13L38.79 22.95C38.79 22.65 38.91 22.44 39.15 22.32C39.33 22.32 39.48 22.5 39.6 22.86ZM54.45 38.52C54.27 38.7 54 38.67 53.64 38.43C53.76 38.13 53.91 37.92 54.09 37.8C54.39 37.92 54.51 38.16 54.45 38.52ZM55.71 39.6C55.17 39.78 54.9 39.87 54.9 39.87C54.72 39.75 54.72 39.54 54.9 39.24C54.96 39.06 55.11 39.03 55.35 39.15C55.41 39.27 55.53 39.42 55.71 39.6ZM48.78 32.94C48.66 33.12 48.42 33.12 48.06 32.94C48 32.94 47.97 32.82 47.97 32.58L48.51 32.22C48.69 32.7 48.78 32.94 48.78 32.94ZM19.08 3.33L18.9 4.05C18.48 3.80999 18.27 3.6 18.27 3.42C18.63 3.06 18.9 3.03 19.08 3.33ZM22.59 7.29C22.53 7.65 22.38 7.86 22.14 7.92C21.96 7.86 21.84 7.62 21.78 7.2C22.2 6.78 22.47 6.81 22.59 7.29ZM61.38 26.91C60.24 28.83 59.1 30.75 57.96 32.67C56.58 34.95 54.93 36.45 53.01 37.17C50.79 38.13 48.45 38.67 45.99 38.79C47.01 40.11 48 41.4 48.96 42.66C50.22 44.16 51.48 45.12 52.74 45.54C52.2 46.62 51.33 47.19 50.13 47.25C49.77 47.37 49.41 47.22 49.05 46.8C48.75 46.32 48.48 46.08 48.24 46.08C48.12 46.08 48.03 46.11 47.97 46.17C48.33 49.89 48.51 51.75 48.51 51.75C47.01 51.75 46.02 51.09 45.54 49.77C45.54 49.29 45.51 48.6 45.45 47.7C45.33 47.76 45 48.15 44.46 48.87C44.1 49.29 43.65 49.41 43.11 49.23C42.93 49.11 42.75 48.87 42.57 48.51C43.77 47.49 44.22 46.17 43.92 44.55C43.44 43.11 42.72 42 41.76 41.22C41.7 43.32 41.16 44.73 40.14 45.45C39.84 45.63 39.42 45.66 38.88 45.54C38.82 45.48 38.73 45.39 38.61 45.27C38.49 45.15 38.37 45.06 38.25 45C39.39 43.62 39.42 42.12 38.34 40.5C37.32 39 35.79 38.43 33.75 38.79C32.55 38.91 31.47 39.48 30.51 40.5C29.55 41.46 28.89 42.54 28.53 43.74C28.05 45.3 27.87 46.62 27.99 47.7C27.81 47.76 27.51 47.85 27.09 47.97C26.91 47.25 26.82 46.53 26.82 45.81C26.82 44.85 27.06 43.47 27.54 41.67C28.02 39.87 28.29 38.55 28.35 37.71C28.47 37.53 28.47 37.11 28.35 36.45C28.29 35.97 28.47 35.67 28.89 35.55L29.43 35.46C29.37 35.88 29.37 36.51 29.43 37.35C30.93 36.21 32.28 34.53 33.48 32.31C34.32 30.75 34.5 29.55 34.02 28.71C33.9 28.47 33.54 28.29 32.94 28.17C32.28 28.23 31.71 28.47 31.23 28.89C30.81 28.11 30.84 27.36 31.32 26.64C31.74 26.22 32.28 26.01 32.94 26.01C32.28 25.05 31.23 24.63 29.79 24.75L28.62 24.93C28.5 24.63 28.59 24.06 28.89 23.22C29.31 22.62 30.03 22.35 31.05 22.41C30.57 20.85 29.49 20.01 27.81 19.89C27.81 19.11 28.14 18.57 28.8 18.27C29.4 17.97 30.18 18.18 31.14 18.9L31.23 18.81C30.81 16.41 30.93 14.79 31.59 13.95C31.71 13.89 32.07 13.5 32.67 12.78C33.09 12.24 33.48 11.97 33.84 11.97C34.02 11.97 34.23 12.06 34.47 12.24C34.59 12.36 34.53 12.54 34.29 12.78C34.11 13.02 34.02 13.2 34.02 13.32C33.3 15.24 33.36 16.86 34.2 18.18C34.26 18.12 34.53 17.76 35.01 17.1C35.37 16.68 35.73 16.47 36.09 16.47C36.21 16.47 36.39 16.5 36.63 16.56H36.72C36.12 18.36 35.97 19.86 36.27 21.06C36.75 19.98 37.41 19.38 38.25 19.26C38.49 19.2 38.82 19.26 39.24 19.44C39.42 19.62 39.63 19.98 39.87 20.52C38.49 21.54 37.8 22.56 37.8 23.58C38.22 26.04 38.07 28.17 37.35 29.97L37.44 30.06C40.86 26.82 42.75 23.73 43.11 20.79C43.11 19.47 42.87 18.66 42.39 18.36C41.61 18.18 40.95 18.39 40.41 18.99C39.81 18.39 39.72 17.58 40.14 16.56C40.68 15.48 41.22 14.76 41.76 14.4C42.06 14.4 42.36 14.58 42.66 14.94C43.02 15.24 43.29 15.42 43.47 15.48C43.71 15.36 43.8 15.15 43.74 14.85C43.62 14.61 43.53 14.37 43.47 14.13C43.35 13.59 43.29 13.02 43.29 12.42C43.29 10.44 43.95 8.91 45.27 7.82999C46.35 7.23 47.31 7.08 48.15 7.38C46.47 8.22 45.54 9.87 45.36 12.33C45.3 14.43 45.24 16.5 45.18 18.54C44.7 21.9 43.53 24.63 41.67 26.73L41.76 26.82C42.24 26.52 43.5 25.32 45.54 23.22L49.95 17.82C50.25 17.58 50.58 17.43 50.94 17.37C51 17.61 51.03 17.85 51.03 18.09C51.03 18.09 50.73 18.78 50.13 20.16L47.97 22.68L43.65 26.91L39.6 30.51L34.65 34.29C32.49 35.91 30.96 37.68 30.06 39.6L30.15 39.69C31.71 38.37 33.69 37.71 36.09 37.71C37.17 37.71 38.19 37.86 39.15 38.16C42.39 39.18 44.76 42.42 46.26 47.88C46.62 48.66 46.98 49.2 47.34 49.5L47.43 49.41C46.83 47.61 46.23 45.81 45.63 44.01C44.85 41.97 43.74 40.41 42.3 39.33C40.44 37.95 38.22 37.26 35.64 37.26C34.5 37.26 33.39 37.41 32.31 37.71C33.51 36.15 35.76 33.99 39.06 31.23L45.81 25.65L49.05 22.41C50.01 22.11 50.91 22.23 51.75 22.77C52.29 23.13 52.62 24 52.74 25.38C52.68 25.8 52.47 26.34 52.11 27C51.57 25.8 50.73 25.11 49.59 24.93C48.81 24.93 47.37 25.62 45.27 27C44.07 27.96 42.87 29.04 41.67 30.24H41.76C42.96 29.58 44.22 29.46 45.54 29.88C46.5 30.36 47.04 30.9 47.16 31.5C47.16 32.76 46.74 33.6 45.9 34.02C44.76 32.7 43.17 32.31 41.13 32.85C39.27 33.33 37.14 34.62 34.74 36.72C34.98 36.72 35.37 36.72 35.91 36.72C39.75 36.6 44.01 39.27 48.69 44.73C49.47 45.39 50.13 45.66 50.67 45.54C49.59 45 48.42 43.98 47.16 42.48C45.72 40.68 44.64 39.51 43.92 38.97C42 37.53 39.54 36.66 36.54 36.36C37.08 36.24 37.86 36.24 38.88 36.36L45 36.99C48.42 36.63 50.58 35.25 51.48 32.85C51.78 31.65 51.33 30.6 50.13 29.7C49.95 29.58 49.71 29.49 49.41 29.43C49.71 28.77 50.31 28.41 51.21 28.35C52.23 28.41 52.92 28.74 53.28 29.34C53.4 29.64 53.4 30.12 53.28 30.78C53.22 31.44 53.31 31.92 53.55 32.22C53.73 32.22 53.88 32.16 54 32.04C54 31.38 54.18 30.45 54.54 29.25C54.96 27.99 55.17 27.03 55.17 26.37C55.17 25.59 54.99 24.9 54.63 24.3C55.83 24.18 56.7 24.54 57.24 25.38C57.72 26.22 57.69 27.3 57.15 28.62C57.03 28.92 57.21 29.25 57.69 29.61C57.81 29.61 58.05 29.31 58.41 28.71C58.53 28.35 58.68 27.96 58.86 27.54C59.04 27.12 59.34 26.85 59.76 26.73C59.94 26.61 60.15 26.55 60.39 26.55C60.81 26.55 61.14 26.67 61.38 26.91ZM49.23 34.29C49.17 34.47 49.05 34.71 48.87 35.01C48.75 35.01 48.6 34.89 48.42 34.65C48.42 34.59 48.39 34.53 48.33 34.47C48.63 34.11 48.93 34.05 49.23 34.29ZM20.34 5.58C20.4 5.88 20.34 6.12 20.16 6.3C20.04 6.3 19.83 6.12 19.53 5.75999C19.95 5.45999 20.22 5.4 20.34 5.58ZM63.18 48.78C63.18 49.02 63.06 49.2 62.82 49.32C62.64 49.32 62.52 49.05 62.46 48.51C62.82 48.51 63.06 48.6 63.18 48.78ZM39.78 26.1C39.78 26.1 39.66 26.22 39.42 26.46C39.3 26.46 39.15 26.37 38.97 26.19C38.97 26.07 39.06 25.89 39.24 25.65C39.3 25.59 39.48 25.74 39.78 26.1ZM28.8 15.48C28.56 15.6 28.35 15.6 28.17 15.48C28.05 15.24 27.99 15.12 27.99 15.12C28.17 14.88 28.38 14.73 28.62 14.67C28.74 14.91 28.8 15.18 28.8 15.48ZM30.15 16.74C29.85 17.1 29.61 17.25 29.43 17.19C29.43 17.19 29.4 16.98 29.34 16.56C29.4 16.44 29.52 16.38 29.7 16.38C29.82 16.44 29.97 16.56 30.15 16.74ZM16.56 3.51C16.56 3.69 16.44 3.81 16.2 3.87C16.02 3.87 15.87 3.75 15.75 3.51C15.75 3.33 15.81 3.18 15.93 3.06C16.17 3 16.38 3.15 16.56 3.51ZM54.09 40.68C54.09 40.74 54 40.98 53.82 41.4C53.82 41.4 53.64 41.25 53.28 40.95C53.22 40.83 53.31 40.71 53.55 40.59C53.67 40.53 53.85 40.56 54.09 40.68ZM61.29 48.06C61.29 48.24 61.2 48.42 61.02 48.6C60.72 48.54 60.54 48.42 60.48 48.24C60.48 48.06 60.6 47.91 60.84 47.79C61.08 47.73 61.23 47.82 61.29 48.06ZM52.47 39.33C52.47 39.33 52.38 39.54 52.2 39.96C52.2 39.96 52.02 39.84 51.66 39.6C51.66 39.36 51.75 39.21 51.93 39.15C52.05 39.15 52.23 39.21 52.47 39.33ZM17.73 5.04C17.73 5.34 17.58 5.55 17.28 5.67C17.1 5.61 16.98 5.37 16.92 4.94999C17.34 4.59 17.61 4.62 17.73 5.04ZM47.07 35.19C47.25 35.37 47.19 35.55 46.89 35.73L46.26 35.55C46.26 35.37 46.35 35.19 46.53 35.01C46.71 34.83 46.89 34.89 47.07 35.19ZM63.27 51.75C63.33 51.99 63.21 52.14 62.91 52.2C62.55 51.9 62.4 51.72 62.46 51.66C62.58 51.48 62.73 51.39 62.91 51.39C63.03 51.51 63.15 51.63 63.27 51.75ZM21.51 10.17C21.57 10.35 21.45 10.5 21.15 10.62L20.7 10.53C20.7 10.11 20.79 9.87 20.97 9.81C21.21 9.81 21.39 9.93 21.51 10.17ZM19.71 8.91C19.71 8.91 19.65 9 19.53 9.18C19.29 9.18 19.08 9.12 18.9 9C18.84 8.82 18.99 8.61 19.35 8.37C19.53 8.37 19.65 8.55 19.71 8.91ZM61.38 50.4L61.29 50.85C60.99 50.85 60.75 50.76 60.57 50.58C60.57 50.58 60.75 50.4 61.11 50.04C61.23 50.1 61.32 50.22 61.38 50.4ZM18.27 7.65C18.09 7.89 17.88 7.92 17.64 7.74C17.4 7.56 17.37 7.41 17.55 7.29L18 6.93C18.18 7.47 18.27 7.71 18.27 7.65ZM45.09 34.2C45.09 34.32 44.97 34.53 44.73 34.83C44.37 34.59 44.19 34.38 44.19 34.2C44.31 34.02 44.46 33.93 44.64 33.93C44.88 33.93 45.03 34.02 45.09 34.2ZM27.9 17.28C27.72 17.58 27.51 17.7 27.27 17.64C27.03 17.52 27 17.31 27.18 17.01C27.24 16.89 27.48 16.98 27.9 17.28ZM13.5 3.23999C13.38 3.53999 13.23 3.72 13.05 3.78C13.05 3.78 12.93 3.63 12.69 3.33C12.63 3.15 12.69 3.03 12.87 2.97C13.05 2.97 13.23 3 13.41 3.06C13.41 3.12 13.44 3.18 13.5 3.23999ZM52.74 42.93C52.8 43.17 52.74 43.29 52.56 43.29C52.32 43.29 52.11 43.23 51.93 43.11C52.05 42.75 52.2 42.54 52.38 42.48C52.62 42.6 52.74 42.75 52.74 42.93ZM54.09 44.46C54.09 44.46 54 44.7 53.82 45.18C53.64 45.12 53.46 44.97 53.28 44.73C53.28 44.43 53.4 44.28 53.64 44.28C53.88 44.22 54.03 44.28 54.09 44.46ZM49.41 40.32C49.29 40.44 49.02 40.41 48.6 40.23C48.66 40.05 48.75 39.87 48.87 39.69C49.05 39.57 49.2 39.63 49.32 39.87C49.32 39.87 49.35 40.02 49.41 40.32ZM50.94 41.4C50.88 41.52 50.76 41.73 50.58 42.03C50.4 41.91 50.22 41.73 50.04 41.49C50.04 41.43 50.13 41.34 50.31 41.22C50.49 41.16 50.7 41.22 50.94 41.4ZM15.57 6.21C15.63 6.45 15.57 6.63 15.39 6.75C15.21 6.81 15 6.66 14.76 6.3C14.76 6.18 14.91 6.06 15.21 5.94C15.51 5.94 15.63 6.03 15.57 6.21ZM55.98 46.8C55.68 47.04 55.44 47.16 55.26 47.16C55.08 47.04 55.05 46.8 55.17 46.44C55.35 46.26 55.62 46.38 55.98 46.8ZM63.27 54.09C62.85 54.39 62.58 54.48 62.46 54.36C62.34 54.12 62.34 53.91 62.46 53.73C62.76 53.37 63.03 53.49 63.27 54.09ZM17.28 8.73C17.22 8.85 17.1 9.03 16.92 9.27C16.8 9.33 16.68 9.3 16.56 9.18C16.5 9.06 16.47 8.88 16.47 8.63999C16.95 8.58 17.22 8.61 17.28 8.73ZM21.87 13.86C21.69 13.86 21.42 13.89 21.06 13.95C21 13.65 21.06 13.41 21.24 13.23C21.3 13.17 21.48 13.26 21.78 13.5C21.84 13.62 21.87 13.74 21.87 13.86ZM60.93 52.83C60.63 53.07 60.42 53.16 60.3 53.1C60.12 52.98 60.09 52.77 60.21 52.47C60.27 52.23 60.42 52.2 60.66 52.38C60.66 52.44 60.69 52.53 60.75 52.65C60.87 52.71 60.93 52.77 60.93 52.83ZM59.58 51.39C59.34 51.69 59.13 51.84 58.95 51.84C58.77 51.78 58.74 51.51 58.86 51.03C59.28 50.97 59.52 51.09 59.58 51.39ZM20.07 12.51C19.95 12.69 19.71 12.69 19.35 12.51C19.17 12.33 19.29 12.09 19.71 11.79C19.89 11.91 20.01 12.15 20.07 12.51ZM27.09 19.17L26.91 19.71C26.73 19.71 26.52 19.62 26.28 19.44C26.28 19.32 26.37 19.17 26.55 18.99C26.73 18.93 26.91 18.99 27.09 19.17ZM10.89 3.42C10.83 3.48 10.71 3.57 10.53 3.68999C10.53 3.68999 10.38 3.63 10.08 3.51C10.08 3.27 10.2 3.03 10.44 2.79C10.62 2.91 10.77 3.12 10.89 3.42ZM41.85 34.11C41.85 34.41 41.73 34.62 41.49 34.74C41.37 34.74 41.22 34.56 41.04 34.2C41.04 34.14 41.1 34.05 41.22 33.93C41.52 33.87 41.73 33.93 41.85 34.11ZM13.05 5.75999C12.93 5.99999 12.69 6.03 12.33 5.85C12.27 5.79 12.24 5.67 12.24 5.49L12.69 5.04C12.93 5.52 13.05 5.75999 13.05 5.75999ZM43.11 35.82C43.11 35.94 42.93 36.06 42.57 36.18C42.39 36 42.3 35.91 42.3 35.91C42.24 35.73 42.33 35.52 42.57 35.28C42.63 35.28 42.81 35.46 43.11 35.82ZM28.8 22.05C28.68 22.17 28.47 22.32 28.17 22.5C28.17 22.5 28.08 22.35 27.9 22.05C27.96 21.93 28.05 21.78 28.17 21.6C28.41 21.72 28.62 21.87 28.8 22.05ZM61.2 54.63C61.26 54.81 61.23 54.99 61.11 55.17L60.39 54.99C60.39 54.75 60.48 54.57 60.66 54.45C60.9 54.27 61.08 54.33 61.2 54.63ZM63 57.06C62.88 57.24 62.7 57.24 62.46 57.06C62.22 56.82 62.13 56.64 62.19 56.52C62.73 56.34 63 56.37 63 56.61V57.06ZM53.46 47.43L53.1 47.97C52.98 47.91 52.8 47.79 52.56 47.61C52.62 47.37 52.71 47.22 52.83 47.16C53.25 47.16 53.46 47.25 53.46 47.43ZM21.06 15.21C21.06 15.51 20.97 15.66 20.79 15.66L20.25 15.57C20.25 15.33 20.34 15.09 20.52 14.85C20.7 14.85 20.88 14.97 21.06 15.21ZM40.95 35.82C40.53 36.12 40.29 36.24 40.23 36.18C40.11 36.06 40.08 35.82 40.14 35.46C40.32 35.34 40.59 35.46 40.95 35.82ZM10.44 5.22C10.44 5.34 10.35 5.52 10.17 5.75999C10.05 5.75999 9.84 5.58 9.54 5.22C10.08 4.98 10.38 4.98 10.44 5.22ZM30.78 26.28C30.66 26.58 30.48 26.73 30.24 26.73C30 26.61 29.94 26.37 30.06 26.01C30.3 25.71 30.54 25.8 30.78 26.28ZM26.46 22.14C26.46 22.26 26.22 22.35 25.74 22.41C25.74 22.41 25.71 22.23 25.65 21.87C25.77 21.63 25.95 21.57 26.19 21.69C26.37 21.81 26.46 21.96 26.46 22.14ZM7.65 3.6C7.59 3.78 7.44 3.96 7.2 4.14C6.96 4.14 6.84 4.05 6.84 3.87C6.78 3.57 6.84 3.39 7.02 3.33C7.14 3.39 7.35 3.48 7.65 3.6ZM39.06 35.28C38.64 35.58 38.37 35.7 38.25 35.64C38.07 35.52 38.07 35.31 38.25 35.01C38.31 34.89 38.4 34.83 38.52 34.83C38.64 34.89 38.82 35.04 39.06 35.28ZM62.64 58.68C62.76 58.92 62.73 59.19 62.55 59.49C62.31 59.61 62.1 59.52 61.92 59.22C61.92 59.04 62.04 58.89 62.28 58.77L62.64 58.68ZM61.38 57.78C61.44 58.02 61.35 58.2 61.11 58.32C60.81 58.38 60.63 58.26 60.57 57.96L60.66 57.6C61.02 57.54 61.26 57.6 61.38 57.78ZM52.74 49.59C52.74 49.77 52.65 49.92 52.47 50.04C52.53 50.04 52.38 49.98 52.02 49.86C52.08 49.5 52.17 49.29 52.29 49.23C52.47 49.23 52.62 49.35 52.74 49.59ZM59.22 55.89C59.22 55.89 59.13 56.07 58.95 56.43C58.71 56.49 58.53 56.34 58.41 55.98C58.53 55.86 58.65 55.74 58.77 55.62C59.01 55.62 59.16 55.71 59.22 55.89ZM27.36 23.94C27.3 24.06 27.21 24.27 27.09 24.57C26.79 24.45 26.58 24.27 26.46 24.03C26.52 23.85 26.67 23.76 26.91 23.76C27.15 23.7 27.3 23.76 27.36 23.94ZM32.94 30.06C32.88 30.12 32.73 30.27 32.49 30.51C32.31 30.51 32.19 30.42 32.13 30.24C32.07 30.12 32.1 29.94 32.22 29.7C32.28 29.64 32.52 29.76 32.94 30.06ZM51.3 48.06C51.3 48.18 51.18 48.42 50.94 48.78C50.64 48.54 50.46 48.33 50.4 48.15C50.82 47.73 51.12 47.7 51.3 48.06ZM57.24 54.81C57.18 54.99 56.97 55.11 56.61 55.17C56.37 55.11 56.34 54.9 56.52 54.54C56.7 54.12 56.94 54.21 57.24 54.81ZM28.62 26.28C28.62 26.52 28.53 26.73 28.35 26.91C28.17 26.85 27.99 26.73 27.81 26.55V26.19C28.17 26.07 28.44 26.1 28.62 26.28ZM4.41 3.06C4.41 3.18 4.35 3.38999 4.23 3.68999C4.05 3.68999 3.84 3.57 3.6 3.33C3.6 3.21 3.72 3.06 3.96 2.88C4.08 2.88 4.23 2.94 4.41 3.06ZM63.09 61.92C63.09 61.92 62.97 62.1 62.73 62.46C62.67 62.46 62.61 62.49 62.55 62.55C62.25 62.43 62.19 62.16 62.37 61.74C62.67 61.74 62.91 61.8 63.09 61.92ZM25.83 25.29C25.77 25.47 25.53 25.56 25.11 25.56C24.99 25.32 24.99 25.08 25.11 24.84C25.35 24.72 25.56 24.81 25.74 25.11C25.74 25.17 25.77 25.23 25.83 25.29ZM7.02 6.48C7.08 6.66 6.99 6.78 6.75 6.84C6.45 6.9 6.27 6.84 6.21 6.66C6.21 6.6 6.33 6.39 6.57 6.03C6.57 6.03 6.72 6.18 7.02 6.48ZM61.38 61.2C61.32 61.2 61.23 61.23 61.11 61.29C60.81 61.17 60.63 61.02 60.57 60.84C60.63 60.72 60.87 60.57 61.29 60.39C61.35 60.93 61.38 61.2 61.38 61.2ZM29.7 28.89C29.7 29.13 29.61 29.34 29.43 29.52C29.19 29.58 29.01 29.49 28.89 29.25V28.89C29.37 28.83 29.64 28.83 29.7 28.89ZM56.52 56.34C56.34 56.58 56.13 56.73 55.89 56.79C55.65 56.67 55.59 56.4 55.71 55.98C55.89 55.8 56.16 55.92 56.52 56.34ZM30.87 30.78C30.87 30.9 30.75 31.08 30.51 31.32C30.33 31.32 30.18 31.14 30.06 30.78C30.06 30.6 30.21 30.51 30.51 30.51C30.63 30.39 30.75 30.48 30.87 30.78ZM32.4 32.49C31.92 32.79 31.68 32.94 31.68 32.94C31.5 32.64 31.47 32.4 31.59 32.22C31.65 32.1 31.74 32.07 31.86 32.13C31.98 32.19 32.16 32.31 32.4 32.49ZM5.31 5.49C5.31 5.79 5.19 6 4.95 6.12C4.71 6.12 4.56 6.03 4.5 5.85L4.59 5.30999C4.89 5.30999 5.13 5.37 5.31 5.49ZM50.49 51.48C50.19 51.48 49.95 51.39 49.77 51.21C49.89 50.91 50.04 50.73 50.22 50.67C50.58 50.73 50.67 51 50.49 51.48ZM11.97 13.5C11.73 13.74 11.46 13.77 11.16 13.59C10.98 13.53 10.98 13.41 11.16 13.23L11.43 12.87C11.79 13.05 11.97 13.26 11.97 13.5ZM62.73 64.71C62.55 64.83 62.37 64.83 62.19 64.71C62.01 64.53 61.92 64.41 61.92 64.35C62.04 64.23 62.25 64.11 62.55 63.99C62.79 64.23 62.85 64.47 62.73 64.71ZM27.27 28.89C27.27 29.01 27.18 29.22 27 29.52C26.7 29.4 26.52 29.25 26.46 29.07C26.58 28.77 26.73 28.62 26.91 28.62C27.09 28.62 27.21 28.71 27.27 28.89ZM42.93 44.73C42.93 44.97 42.81 45.09 42.57 45.09C42.39 45.15 42.24 45.06 42.12 44.82C42.06 44.52 42.18 44.34 42.48 44.28C42.66 44.46 42.81 44.61 42.93 44.73ZM25.65 27.81C25.65 27.87 25.56 27.99 25.38 28.17H24.84C24.72 27.93 24.78 27.69 25.02 27.45C25.2 27.45 25.41 27.57 25.65 27.81ZM60.03 66.15C59.37 66.93 58.47 67.2 57.33 66.96C56.19 66.72 55.56 66.15 55.44 65.25C55.32 64.41 55.53 63.84 56.07 63.54C56.73 63.42 57.15 63.57 57.33 63.99C57.39 64.11 57.33 64.32 57.15 64.62C57.03 64.86 56.97 65.01 56.97 65.07C56.97 65.25 57.09 65.37 57.33 65.43C57.69 65.55 58.05 65.37 58.41 64.89C58.53 64.47 58.41 64.08 58.05 63.72C57.75 63.36 57.45 63 57.15 62.64C56.07 61.38 54.54 60.54 52.56 60.12C51.84 60 50.04 59.85 47.16 59.67L41.49 59.31L34.56 59.22L27.81 59.4L25.11 59.58C23.61 60.06 22.65 60.24 22.23 60.12C22.17 60 22.14 59.85 22.14 59.67C22.14 59.49 22.23 59.22 22.41 58.86C22.59 58.5 22.68 58.23 22.68 58.05C22.68 57.87 22.62 57.69 22.5 57.51C22.08 56.01 21.3 54.69 20.16 53.55C18.42 54.87 17.49 56.37 17.37 58.05C17.61 58.53 17.88 59.28 18.18 60.3C18.18 60.3 17.52 60.12 16.2 59.76C13.98 61.38 12.09 62.19 10.53 62.19C9.69 62.19 8.91 62.01 8.19 61.65C7.35 60.99 6.93 60.09 6.93 58.95C6.93 58.71 6.96 58.44 7.02 58.14C7.44 57 8.13 56.34 9.09 56.16C10.17 55.98 10.98 56.31 11.52 57.15C11.82 57.57 11.88 58.05 11.7 58.59C11.64 58.83 11.46 59.07 11.16 59.31C10.92 59.43 10.59 59.4 10.17 59.22C9.93 58.8 9.48 58.26 8.82 57.6C8.82 57.6 8.82 58.05 8.82 58.95C9.06 59.61 9.39 60.06 9.81 60.3C10.95 60.6 12.03 60.09 13.05 58.77C14.43 56.31 15.63 52.08 16.65 46.08C17.13 43.32 17.37 40.35 17.37 37.17C17.37 32.49 16.83 27.57 15.75 22.41C15.21 19.71 14.73 17.73 14.31 16.47C13.65 14.31 12.78 12.48 11.7 10.98C10.98 9.96 10.17 9.48 9.27 9.54C8.91 9.48 8.52 9.72 8.1 10.26C7.8 11.04 8.04 11.61 8.82 11.97C9.06 11.97 9.24 11.88 9.36 11.7C9.36 11.64 9.27 11.52 9.09 11.34C8.91 11.16 8.88 10.98 9 10.8C9.18 10.56 9.45 10.41 9.81 10.35C10.17 10.41 10.38 10.59 10.44 10.89C10.56 11.43 10.53 11.79 10.35 11.97C9.99 12.57 9.36 12.87 8.46 12.87C7.68 12.87 7.11 12.48 6.75 11.7C6.21 10.8 6.3 9.81 7.02 8.73C7.98 7.23 9.42 6.69 11.34 7.11C12 7.35 12.9 7.95 14.04 8.91C15.18 9.81 16.08 10.38 16.74 10.62C16.74 10.62 17.1 10.5 17.82 10.26C18.3 10.14 18.66 10.17 18.9 10.35C18.9 10.71 18.72 11.19 18.36 11.79C18.06 12.39 17.91 12.84 17.91 13.14C17.91 13.38 18 13.62 18.18 13.86C18.78 14.82 19.56 16.32 20.52 18.36C20.64 17.64 21.12 16.77 21.96 15.75C22.8 14.67 23.31 13.83 23.49 13.23C23.49 12.81 23.34 12.3 23.04 11.7C22.74 11.04 22.59 10.53 22.59 10.17C22.95 10.05 23.4 10.05 23.94 10.17C24.66 10.35 25.11 10.44 25.29 10.44C25.65 10.44 25.95 10.35 26.19 10.17C27.63 9.39 29.1 8.61 30.6 7.82999C32.34 6.98999 33.87 6.56999 35.19 6.56999C36.45 6.56999 37.62 6.93 38.7 7.65C39.48 8.13 40.05 8.73 40.41 9.45C40.77 10.17 40.83 10.98 40.59 11.88C40.11 12.78 39.42 13.32 38.52 13.5C38.1 13.56 37.59 13.44 36.99 13.14C36.51 12.54 36.36 12 36.54 11.52C36.66 11.34 36.87 11.13 37.17 10.89C37.65 10.83 37.92 10.95 37.98 11.25C38.04 11.55 38.19 11.88 38.43 12.24C38.73 12.3 38.97 12.15 39.15 11.79C39.39 11.13 39.27 10.59 38.79 10.17C37.23 8.91 35.43 8.61 33.39 9.27C28.59 10.89 25.5 15.99 24.12 24.57L23.76 30.24V36.54C23.88 43.56 24.87 49.83 26.73 55.35L27.9 55.44L35.46 55.71C44.82 56.07 51.99 53.22 56.97 47.16C58.11 45.36 58.62 43.98 58.5 43.02C58.26 42.42 57.78 42.24 57.06 42.48C56.76 42.66 56.67 42.93 56.79 43.29C57.03 43.41 57.3 43.68 57.6 44.1C57.54 44.58 57.36 44.88 57.06 45C56.4 45.18 55.89 45.12 55.53 44.82C55.17 44.52 54.87 43.83 54.63 42.75C54.63 41.85 55.14 41.13 56.16 40.59C57.24 40.17 58.23 40.29 59.13 40.95C59.97 41.79 60.39 42.93 60.39 44.37C60.39 45.21 60.27 46.02 60.03 46.8C59.37 47.82 58.59 49.47 57.69 51.75C57.75 51.93 57.9 52.26 58.14 52.74C58.44 53.22 58.53 53.61 58.41 53.91C58.17 53.97 57.78 53.88 57.24 53.64C56.7 53.4 56.28 53.34 55.98 53.46C55.38 53.94 54.51 54.69 53.37 55.71C53.91 56.25 54.48 56.82 55.08 57.42C55.74 58.02 56.37 58.35 56.97 58.41C57.21 58.35 57.57 58.17 58.05 57.87C58.53 57.57 58.92 57.45 59.22 57.51C59.34 57.81 59.31 58.2 59.13 58.68C58.95 59.16 58.89 59.55 58.95 59.85C60.09 61.71 60.66 63.15 60.66 64.17C60.66 64.89 60.45 65.55 60.03 66.15ZM3.96 7.29C3.96 7.29 3.93 7.47 3.87 7.82999C3.69 7.82999 3.45 7.71 3.15 7.47C3.21 7.29 3.36 7.14 3.6 7.01999C3.84 6.96 3.96 7.05 3.96 7.29ZM31.05 34.29C31.05 34.59 30.96 34.86 30.78 35.1C30.6 35.04 30.42 34.86 30.24 34.56C30.3 34.2 30.57 34.11 31.05 34.29ZM5.4 9.08999C5.34 9.27 5.19 9.45 4.95 9.63C4.95 9.63 4.83 9.57 4.59 9.45C4.59 9.45 4.62 9.24 4.68 8.82C4.68 8.82 4.92 8.91 5.4 9.08999ZM63 67.05C63 67.11 62.94 67.2 62.82 67.32C62.58 67.32 62.37 67.23 62.19 67.05C62.13 66.87 62.31 66.69 62.73 66.51C62.73 66.51 62.82 66.69 63 67.05ZM37.53 41.58C37.29 41.82 37.08 41.88 36.9 41.76L36.63 41.4C36.75 41.16 36.96 41.01 37.26 40.95C37.26 41.01 37.35 41.22 37.53 41.58ZM42.75 46.8C42.51 46.98 42.27 47.07 42.03 47.07C41.91 46.95 41.91 46.71 42.03 46.35C42.27 45.99 42.45 46.05 42.57 46.53C42.63 46.59 42.69 46.68 42.75 46.8ZM35.28 39.87C35.28 40.11 35.13 40.29 34.83 40.41C34.83 40.41 34.71 40.32 34.47 40.14C34.41 39.9 34.5 39.72 34.74 39.6C34.92 39.6 35.1 39.69 35.28 39.87ZM29.16 32.31C29.46 33.21 29.34 33.99 28.8 34.65C28.32 35.25 27.63 35.43 26.73 35.19C25.95 34.89 25.5 34.35 25.38 33.57C25.32 32.55 25.71 31.8 26.55 31.32C27.75 30.9 28.62 31.23 29.16 32.31ZM37.44 43.65C37.44 43.65 37.26 43.65 36.9 43.65C36.72 43.41 36.63 43.29 36.63 43.29C36.81 43.05 37.02 42.9 37.26 42.84C37.44 43.08 37.5 43.35 37.44 43.65ZM25.38 31.05C25.32 31.17 25.23 31.35 25.11 31.59C25.05 31.59 24.84 31.38 24.48 30.96C25.02 30.78 25.32 30.81 25.38 31.05ZM46.62 52.74C46.68 52.86 46.65 52.98 46.53 53.1H45.81C45.81 52.86 45.93 52.59 46.17 52.29C46.35 52.29 46.5 52.44 46.62 52.74ZM5.76 11.79C5.7 12.03 5.61 12.18 5.49 12.24C5.37 12.3 5.28 12.36 5.22 12.42C4.86 12.24 4.77 11.97 4.95 11.61C5.25 11.55 5.52 11.61 5.76 11.79ZM7.38 13.59C7.38 13.59 7.26 13.77 7.02 14.13C6.78 14.13 6.63 14.04 6.57 13.86C6.57 13.74 6.63 13.56 6.75 13.32C6.75 13.32 6.96 13.41 7.38 13.59ZM4.05 10.17C4.05 10.29 3.99 10.53 3.87 10.89C3.75 10.83 3.54 10.71 3.24 10.53C3.3 10.23 3.42 10.08 3.6 10.08C3.72 10.02 3.87 10.05 4.05 10.17ZM44.91 51.48C44.67 51.6 44.43 51.66 44.19 51.66C43.95 51.54 43.92 51.36 44.1 51.12C44.34 50.46 44.61 50.58 44.91 51.48ZM35.91 42.21C35.91 42.21 35.76 42.39 35.46 42.75C35.22 42.51 35.1 42.27 35.1 42.03C35.28 41.91 35.52 41.91 35.82 42.03C35.82 42.09 35.85 42.15 35.91 42.21ZM60.84 67.32C60.84 67.56 60.69 67.74 60.39 67.86C60.21 67.92 60.09 67.83 60.03 67.59V67.05C60.27 67.05 60.54 67.14 60.84 67.32ZM61.92 68.94C61.92 69.18 61.89 69.33 61.83 69.39C61.59 69.45 61.38 69.36 61.2 69.12C61.14 68.88 61.23 68.73 61.47 68.67C61.53 68.61 61.68 68.58 61.92 68.58V68.94ZM14.67 21.33C14.73 21.75 14.58 21.96 14.22 21.96C13.98 21.84 13.86 21.63 13.86 21.33C14.34 21.09 14.61 21.09 14.67 21.33ZM55.08 62.55C54.96 62.73 54.72 62.85 54.36 62.91C54.18 62.79 54.18 62.55 54.36 62.19C54.72 61.77 54.96 61.89 55.08 62.55ZM41.31 48.6C41.31 48.78 41.16 48.99 40.86 49.23C40.68 49.17 40.56 49.02 40.5 48.78C40.38 48.48 40.47 48.33 40.77 48.33C41.07 48.33 41.25 48.42 41.31 48.6ZM42.75 50.4C42.57 50.64 42.33 50.73 42.03 50.67C41.85 50.61 41.85 50.43 42.03 50.13C42.21 49.59 42.45 49.68 42.75 50.4ZM38.61 46.35C38.43 46.71 38.22 46.89 37.98 46.89C37.92 46.83 37.86 46.59 37.8 46.17C37.98 45.93 38.25 45.99 38.61 46.35ZM5.76 14.22C5.7 14.4 5.58 14.58 5.4 14.76C5.22 14.76 5.07 14.7 4.95 14.58V14.04C5.25 13.98 5.52 14.04 5.76 14.22ZM3.96 12.78L3.87 13.32C3.63 13.38 3.39 13.26 3.15 12.96C3.15 12.78 3.33 12.63 3.69 12.51C3.93 12.63 4.02 12.72 3.96 12.78ZM36.27 45C36.27 45.12 36.12 45.3 35.82 45.54C35.46 45.36 35.34 45.15 35.46 44.91C35.82 44.55 36.09 44.58 36.27 45ZM52.56 61.38C52.56 61.38 52.47 61.56 52.29 61.92C52.29 61.92 52.11 61.8 51.75 61.56C51.75 61.32 51.84 61.17 52.02 61.11C52.14 61.11 52.32 61.2 52.56 61.38ZM32.13 41.22C32.07 41.4 31.89 41.55 31.59 41.67C31.53 41.67 31.44 41.52 31.32 41.22C31.32 41.1 31.38 40.95 31.5 40.77C31.74 40.83 31.95 40.98 32.13 41.22ZM59.04 68.67C59.1 68.79 59.01 68.97 58.77 69.21C58.65 69.21 58.5 69.15 58.32 69.03V68.4C58.62 68.4 58.86 68.49 59.04 68.67ZM43.83 53.82C43.71 53.94 43.5 54.03 43.2 54.09C42.96 53.85 42.93 53.64 43.11 53.46L43.38 53.19C43.56 53.25 43.71 53.46 43.83 53.82ZM25.2 35.1C25.26 35.22 25.14 35.37 24.84 35.55H24.48C24.42 35.31 24.48 35.04 24.66 34.74C24.9 34.8 25.08 34.92 25.2 35.1ZM42.21 52.02C42.15 52.26 42.03 52.44 41.85 52.56C41.61 52.62 41.46 52.53 41.4 52.29V51.84C41.64 51.78 41.91 51.84 42.21 52.02ZM27.27 37.53C27.21 37.65 27.12 37.83 27 38.07C26.82 38.01 26.61 37.86 26.37 37.62C26.43 37.44 26.55 37.29 26.73 37.17C26.91 37.23 27.09 37.35 27.27 37.53ZM39.6 50.94C39.42 51.06 39.24 51.06 39.06 50.94C38.82 50.76 38.79 50.58 38.97 50.4L39.42 50.13C39.66 50.49 39.72 50.76 39.6 50.94ZM54.09 65.43C53.79 65.67 53.55 65.76 53.37 65.7C53.25 65.46 53.25 65.22 53.37 64.98C53.55 64.86 53.79 65.01 54.09 65.43ZM56.34 68.04C56.04 68.28 55.83 68.4 55.71 68.4C55.65 68.22 55.59 68.01 55.53 67.77C55.71 67.53 55.89 67.47 56.07 67.59C56.19 67.71 56.28 67.86 56.34 68.04ZM49.14 60.75C49.2 60.87 49.17 61.05 49.05 61.29C48.75 61.29 48.51 61.2 48.33 61.02C48.39 60.78 48.51 60.63 48.69 60.57C48.93 60.39 49.08 60.45 49.14 60.75ZM25.65 37.44C25.71 37.62 25.65 37.77 25.47 37.89C25.29 37.95 25.08 37.92 24.84 37.8C24.84 37.56 24.93 37.35 25.11 37.17C25.23 37.11 25.41 37.2 25.65 37.44ZM15.66 28.08C15.66 28.08 15.48 28.08 15.12 28.08C14.88 28.02 14.88 27.81 15.12 27.45L15.3 27.27C15.66 27.69 15.78 27.96 15.66 28.08ZM5.31 17.28C5.25 17.4 5.13 17.55 4.95 17.73C4.83 17.79 4.65 17.67 4.41 17.37C4.41 17.31 4.47 17.16 4.59 16.92C4.83 16.86 5.07 16.98 5.31 17.28ZM14.4 26.73C14.22 26.91 13.95 26.94 13.59 26.82C13.47 26.7 13.47 26.55 13.59 26.37L14.04 26.1C14.28 26.4 14.4 26.61 14.4 26.73ZM3.87 16.56C3.63 16.56 3.42 16.47 3.24 16.29C3.18 16.17 3.27 15.99 3.51 15.75C3.75 15.63 3.9 15.69 3.96 15.93C4.02 16.11 3.99 16.32 3.87 16.56ZM8.91 21.6C8.79 21.84 8.55 21.87 8.19 21.69C8.07 21.45 8.01 21.33 8.01 21.33L8.55 20.88C8.67 21 8.79 21.24 8.91 21.6ZM39.06 47.88C38.7 48.66 38.04 49.2 37.08 49.5C35.94 49.62 35.07 49.53 34.47 49.23L34.38 49.32C34.92 50.16 34.98 50.91 34.56 51.57C34.08 52.35 33.21 52.71 31.95 52.65C32.31 50.49 31.92 48.96 30.78 48.06C30.12 47.7 29.43 47.43 28.71 47.25C28.71 47.25 28.77 46.56 28.89 45.18C29.49 45 30.09 44.82 30.69 44.64C31.35 44.46 31.83 44.1 32.13 43.56C32.61 42.48 32.85 41.61 32.85 40.95C33.63 41.01 34.14 41.43 34.38 42.21C34.68 42.99 34.77 43.62 34.65 44.1C34.47 44.46 34.08 44.79 33.48 45.09C32.94 45.39 32.58 45.63 32.4 45.81C33.18 45.87 34.26 46.26 35.64 46.98C37.02 47.64 38.16 47.94 39.06 47.88ZM30.69 43.11C30.75 43.41 30.63 43.62 30.33 43.74C30.27 43.74 30.09 43.53 29.79 43.11C30.33 42.99 30.63 42.99 30.69 43.11ZM39.42 52.83C39.48 53.01 39.39 53.16 39.15 53.28L38.61 53.1C38.61 52.86 38.7 52.65 38.88 52.47C39.06 52.35 39.24 52.47 39.42 52.83ZM40.68 54.09C40.74 54.33 40.65 54.51 40.41 54.63C40.35 54.63 40.23 54.6 40.05 54.54C40.05 54.06 40.05 53.82 40.05 53.82C40.23 53.82 40.44 53.91 40.68 54.09ZM25.74 39.33C25.8 39.51 25.71 39.66 25.47 39.78H25.02C24.96 39.72 24.99 39.48 25.11 39.06C25.23 39 25.44 39.09 25.74 39.33ZM27 40.5C26.94 40.26 26.88 40.5 26.82 41.22C26.4 40.98 26.19 40.77 26.19 40.59C26.49 40.23 26.76 40.2 27 40.5ZM54.99 68.94C54.93 69.12 54.75 69.24 54.45 69.3C54.15 69.18 54.09 68.97 54.27 68.67C54.39 68.37 54.63 68.46 54.99 68.94ZM51.93 65.79C51.93 65.91 51.81 66.15 51.57 66.51L51.03 65.97C51.09 65.79 51.21 65.67 51.39 65.61C51.63 65.55 51.81 65.61 51.93 65.79ZM46.17 60.39C46.35 60.63 46.32 60.81 46.08 60.93C46.08 60.93 45.84 60.9 45.36 60.84C45.36 60.66 45.48 60.42 45.72 60.12C45.72 60.12 45.87 60.21 46.17 60.39ZM36.63 51.48C36.45 51.6 36.27 51.6 36.09 51.48C35.91 51.3 35.82 51.21 35.82 51.21C36 50.97 36.21 50.82 36.45 50.76C36.69 51.18 36.75 51.42 36.63 51.48ZM6.3 20.7C6.36 20.82 6.24 21 5.94 21.24C5.76 21.3 5.61 21.18 5.49 20.88L5.58 20.52C5.94 20.46 6.18 20.52 6.3 20.7ZM16.2 30.6C16.26 30.84 16.17 31.05 15.93 31.23C15.75 31.17 15.6 31.05 15.48 30.87L15.39 30.51C15.75 30.39 16.02 30.42 16.2 30.6ZM3.96 18.63L3.87 19.26C3.57 19.32 3.33 19.23 3.15 18.99C3.15 18.99 3.24 18.84 3.42 18.54C3.66 18.42 3.84 18.45 3.96 18.63ZM53.01 67.86C53.01 67.98 52.89 68.16 52.65 68.4C52.35 68.16 52.2 67.98 52.2 67.86C52.26 67.74 52.38 67.65 52.56 67.59C52.86 67.71 53.01 67.8 53.01 67.86ZM14.58 29.25C14.64 29.55 14.55 29.79 14.31 29.97C14.13 29.97 13.95 29.79 13.77 29.43C14.01 28.95 14.28 28.89 14.58 29.25ZM7.83 24.12C7.77 24.3 7.65 24.39 7.47 24.39C7.35 24.45 7.17 24.36 6.93 24.12C6.93 23.94 7.08 23.76 7.38 23.58C7.56 23.64 7.71 23.82 7.83 24.12ZM26.19 42.84C26.07 42.9 25.86 42.99 25.56 43.11C25.5 42.99 25.44 42.81 25.38 42.57C25.62 42.15 25.89 42.24 26.19 42.84ZM36.54 53.64C36.42 53.82 36.24 53.85 36 53.73C35.76 53.49 35.7 53.34 35.82 53.28L36.36 52.92C36.54 53.1 36.6 53.34 36.54 53.64ZM37.98 55.08C37.8 55.2 37.62 55.2 37.44 55.08C37.14 54.9 37.11 54.72 37.35 54.54C37.53 54.36 37.74 54.36 37.98 54.54C37.98 54.54 37.98 54.72 37.98 55.08ZM5.58 23.04C5.34 23.28 5.13 23.34 4.95 23.22C4.71 23.1 4.68 22.92 4.86 22.68L5.22 22.41C5.46 22.83 5.58 23.04 5.58 23.04ZM49.5 66.33C49.5 66.33 49.41 66.57 49.23 67.05C48.87 66.69 48.69 66.45 48.69 66.33C49.11 66.03 49.38 66.03 49.5 66.33ZM43.38 60.39C43.38 60.57 43.32 60.72 43.2 60.84C43.08 60.84 42.87 60.75 42.57 60.57C42.57 60.27 42.72 60.09 43.02 60.03C43.26 59.97 43.38 60.09 43.38 60.39ZM3.87 22.05C3.57 22.23 3.33 22.26 3.15 22.14C3.15 22.14 3.15 21.96 3.15 21.6C3.45 21.42 3.6 21.39 3.6 21.51C3.66 21.51 3.75 21.69 3.87 22.05ZM46.17 64.35C46.35 64.59 46.32 64.77 46.08 64.89L45.36 64.8C45.36 64.62 45.48 64.38 45.72 64.08C45.9 64.14 46.05 64.23 46.17 64.35ZM50.4 68.76C50.4 69 50.31 69.15 50.13 69.21C49.89 69.21 49.68 69.12 49.5 68.94C49.5 68.7 49.62 68.52 49.86 68.4C50.16 68.28 50.34 68.4 50.4 68.76ZM26.01 44.91C26.01 44.97 25.83 45.09 25.47 45.27H25.29C25.23 45.15 25.23 44.94 25.29 44.64C25.53 44.28 25.77 44.37 26.01 44.91ZM29.88 48.96C29.76 49.26 29.61 49.47 29.43 49.59C29.19 49.35 29.04 49.11 28.98 48.87C29.22 48.39 29.52 48.42 29.88 48.96ZM6.03 25.29C6.09 25.47 5.97 25.65 5.67 25.83C5.43 25.83 5.28 25.77 5.22 25.65V25.11C5.58 25.05 5.85 25.11 6.03 25.29ZM31.23 50.76C31.11 51.06 30.9 51.21 30.6 51.21C30.42 51.03 30.36 50.82 30.42 50.58C30.66 50.1 30.93 50.16 31.23 50.76ZM7.29 26.91C7.23 27.03 7.08 27.18 6.84 27.36C6.66 27.48 6.51 27.33 6.39 26.91C6.45 26.73 6.6 26.61 6.84 26.55C6.96 26.61 7.11 26.73 7.29 26.91ZM34.47 54.09C34.47 54.33 34.32 54.57 34.02 54.81C33.78 54.33 33.66 54.09 33.66 54.09C33.78 54.03 33.9 54 34.02 54C34.2 54 34.35 54.03 34.47 54.09ZM47.43 67.59C47.43 67.71 47.34 67.86 47.16 68.04C47.04 67.98 46.86 67.92 46.62 67.86C46.62 67.68 46.74 67.47 46.98 67.23C47.16 67.17 47.31 67.29 47.43 67.59ZM40.14 60.57C40.2 60.69 40.08 60.9 39.78 61.2C39.42 60.96 39.27 60.75 39.33 60.57C39.39 60.51 39.54 60.42 39.78 60.3C40.02 60.66 40.14 60.75 40.14 60.57ZM14.58 34.38C14.76 34.68 14.73 35.07 14.49 35.55C14.19 35.79 13.89 35.91 13.59 35.91C13.17 35.97 12.84 35.76 12.6 35.28C12.48 34.98 12.48 34.65 12.6 34.29C12.66 34.11 12.9 33.93 13.32 33.75C13.86 33.63 14.28 33.84 14.58 34.38ZM4.05 25.29C3.99 25.47 3.75 25.5 3.33 25.38C3.27 25.14 3.24 25.02 3.24 25.02L3.6 24.66C3.9 24.84 4.05 25.05 4.05 25.29ZM26.19 47.16C26.19 47.4 26.1 47.64 25.92 47.88C25.92 47.88 25.74 47.76 25.38 47.52C25.32 47.28 25.41 47.13 25.65 47.07C25.77 47.01 25.95 47.04 26.19 47.16ZM29.43 51.3C29.25 51.54 29.07 51.69 28.89 51.75C28.53 51.63 28.44 51.39 28.62 51.03C28.74 50.91 29.01 51 29.43 51.3ZM32.31 54.27C32.13 54.57 31.89 54.72 31.59 54.72C31.41 54.42 31.38 54.18 31.5 54C31.68 53.76 31.95 53.85 32.31 54.27ZM16.29 39.33C16.23 39.33 16.02 39.33 15.66 39.33C15.42 39.21 15.39 39.06 15.57 38.88L16.02 38.52C16.38 38.88 16.47 39.15 16.29 39.33ZM7.2 29.79C7.08 30.09 6.87 30.24 6.57 30.24C6.51 30.24 6.45 30.03 6.39 29.61C6.51 29.43 6.78 29.49 7.2 29.79ZM5.76 28.35C5.7 28.53 5.58 28.71 5.4 28.89C5.34 28.89 5.28 28.89 5.22 28.89C4.86 28.77 4.77 28.5 4.95 28.08C5.25 28.08 5.52 28.17 5.76 28.35ZM16.2 37.35C15.96 37.47 15.6 37.59 15.12 37.71C13.62 38.25 12.75 39.63 12.51 41.85C12.39 43.11 12.75 43.95 13.59 44.37C14.49 44.79 15.09 45 15.39 45C15.57 45.6 15.42 46.14 14.94 46.62C14.7 46.86 14.25 47.07 13.59 47.25C13.41 47.25 13.14 47.16 12.78 46.98L12.69 47.07C12.75 47.31 13.02 48.06 13.5 49.32C13.92 50.28 14.13 51.06 14.13 51.66C14.13 52.62 13.74 53.43 12.96 54.09C12.18 54.75 11.31 54.93 10.35 54.63C9.63 54.45 8.97 53.94 8.37 53.1C9.09 53.16 9.72 52.95 10.26 52.47C10.8 51.75 11.07 51 11.07 50.22C11.07 49.38 10.65 48.18 9.81 46.62C8.97 45 8.52 43.8 8.46 43.02C8.1 39.48 9 37.08 11.16 35.82C12 36.84 13.08 37.14 14.4 36.72C15.06 36.42 15.42 35.88 15.48 35.1C15.48 34.32 15.09 33.72 14.31 33.3C14.01 33.12 13.47 33.15 12.69 33.39C12.45 33.57 12.12 33.87 11.7 34.29C9.36 32.79 8.19 30.72 8.19 28.08C8.19 27.18 8.46 25.95 9 24.39C9.6 22.83 9.93 21.63 9.99 20.79C9.87 20.07 9.54 19.41 9 18.81C9.12 18.27 9.57 17.91 10.35 17.73C11.01 17.61 11.7 17.79 12.42 18.27C12.42 18.27 12.36 18.09 12.24 17.73C11.52 17.19 10.74 17.01 9.9 17.19C8.7 17.61 8.1 18.45 8.1 19.71V19.98C7.2 20.1 6.6 19.71 6.3 18.81C6.06 18.09 6.03 17.28 6.21 16.38C6.63 15.12 7.56 14.34 9 14.04C10.2 13.92 11.1 14.22 11.7 14.94C10.14 14.88 9.03 15.21 8.37 15.93C7.77 16.59 7.56 17.16 7.74 17.64C8.64 16.26 9.57 15.6 10.53 15.66C11.55 15.66 12.24 15.99 12.6 16.65C12.96 17.25 13.14 17.97 13.14 18.81C13.14 19.47 12.66 21.15 11.7 23.85C11.82 23.85 12 23.85 12.24 23.85C13.08 23.13 13.71 22.86 14.13 23.04C14.49 23.28 14.7 23.73 14.76 24.39C13.38 25.11 12.6 26.25 12.42 27.81C12.36 30.27 13.59 32.01 16.11 33.03C16.53 34.23 16.56 35.67 16.2 37.35ZM27.18 49.77C27.12 49.89 27.03 50.1 26.91 50.4C26.55 50.34 26.37 50.19 26.37 49.95C26.37 49.71 26.46 49.59 26.64 49.59C26.82 49.53 27 49.59 27.18 49.77ZM37.44 60.84C37.32 61.02 37.11 61.02 36.81 60.84C36.75 60.84 36.69 60.72 36.63 60.48L37.26 60.12C37.38 60.6 37.44 60.84 37.44 60.84ZM45.63 69.12C44.91 69.12 44.7 69.18 45 69.3C44.76 69.18 44.73 68.97 44.91 68.67C45.21 68.31 45.45 68.46 45.63 69.12ZM30.33 53.55C30.33 53.55 30.21 53.76 29.97 54.18C29.67 53.94 29.52 53.73 29.52 53.55C29.58 53.37 29.73 53.28 29.97 53.28C30.15 53.28 30.27 53.37 30.33 53.55ZM44.01 67.68C44.01 67.8 43.83 67.92 43.47 68.04C43.35 67.98 43.26 67.89 43.2 67.77C43.26 67.47 43.35 67.26 43.47 67.14C43.65 67.14 43.83 67.32 44.01 67.68ZM3.87 27.63L3.69 28.17C3.45 28.17 3.24 28.08 3.06 27.9C3 27.72 3.12 27.54 3.42 27.36C3.66 27.3 3.81 27.39 3.87 27.63ZM8.46 33.03C8.28 33.21 8.01 33.24 7.65 33.12C7.53 32.94 7.59 32.79 7.83 32.67L8.1 32.4C8.34 32.58 8.46 32.79 8.46 33.03ZM27.54 52.2C27.54 52.5 27.45 52.74 27.27 52.92C27.09 52.86 26.91 52.71 26.73 52.47C26.73 52.41 26.85 52.26 27.09 52.02C27.21 52.02 27.36 52.08 27.54 52.2ZM16.29 40.95C16.29 41.19 16.17 41.4 15.93 41.58C15.81 41.52 15.66 41.4 15.48 41.22C15.54 41.16 15.54 41.07 15.48 40.95C15.78 40.71 16.05 40.71 16.29 40.95ZM14.85 39.96C14.85 40.08 14.73 40.23 14.49 40.41C14.37 40.47 14.22 40.32 14.04 39.96C14.04 39.96 14.16 39.84 14.4 39.6C14.52 39.66 14.67 39.78 14.85 39.96ZM10.53 35.1C9.75 35.82 9.03 36.09 8.37 35.91C8.19 35.79 7.98 35.58 7.74 35.28C7.68 34.86 7.83 34.56 8.19 34.38C8.79 34.08 9.57 34.32 10.53 35.1ZM6.12 31.68L6.03 32.4C5.73 32.4 5.49 32.28 5.31 32.04C5.31 31.86 5.46 31.71 5.76 31.59C5.94 31.59 6.06 31.62 6.12 31.68ZM28.35 54.09C28.23 53.85 28.14 54.09 28.08 54.81C27.9 54.75 27.72 54.63 27.54 54.45C27.48 54.21 27.63 54.03 27.99 53.91C28.17 53.91 28.29 53.97 28.35 54.09ZM42.57 68.67C42.69 68.97 42.54 69.18 42.12 69.3C41.94 69.24 41.85 68.97 41.85 68.49C42.03 68.43 42.27 68.49 42.57 68.67ZM40.95 67.14C41.01 67.44 40.89 67.65 40.59 67.77C40.35 67.83 40.2 67.59 40.14 67.05C40.38 66.99 40.65 67.02 40.95 67.14ZM34.83 61.11C34.83 61.23 34.71 61.41 34.47 61.65C34.11 61.47 33.96 61.26 34.02 61.02C34.44 60.6 34.71 60.63 34.83 61.11ZM3.87 30.51L3.69 31.23C3.51 31.23 3.3 31.11 3.06 30.87C3.06 30.75 3.21 30.57 3.51 30.33C3.57 30.33 3.69 30.39 3.87 30.51ZM15.93 43.02C15.99 43.32 15.87 43.53 15.57 43.65C15.39 43.65 15.24 43.44 15.12 43.02C15.42 42.78 15.69 42.78 15.93 43.02ZM14.4 42.03C14.46 42.27 14.4 42.48 14.22 42.66C14.1 42.72 13.89 42.57 13.59 42.21C13.77 42.15 14.01 42.03 14.31 41.85L14.4 42.03ZM6.21 34.56C6.15 34.62 6 34.77 5.76 35.01C5.64 34.95 5.49 34.83 5.31 34.65C5.31 34.59 5.37 34.44 5.49 34.2C5.49 34.2 5.73 34.32 6.21 34.56ZM37.71 66.33C37.71 66.57 37.62 66.75 37.44 66.87C37.32 66.93 37.14 66.81 36.9 66.51V66.15C37.14 66.09 37.41 66.15 37.71 66.33ZM39.15 68.94C38.97 69.06 38.79 69.06 38.61 68.94C38.43 68.76 38.37 68.64 38.43 68.58C38.55 68.4 38.73 68.28 38.97 68.22C39.15 68.64 39.21 68.88 39.15 68.94ZM7.92 37.53C7.86 37.65 7.71 37.8 7.47 37.98C7.35 37.98 7.23 37.89 7.11 37.71C7.11 37.41 7.2 37.23 7.38 37.17C7.5 37.17 7.68 37.29 7.92 37.53ZM3.87 33.48C3.93 33.66 3.84 33.84 3.6 34.02C3.42 34.08 3.27 34.08 3.15 34.02C3.15 33.84 3.15 33.6 3.15 33.3C3.45 33.3 3.69 33.36 3.87 33.48ZM53.64 62.91C52.98 63.99 51.54 64.62 49.32 64.8C48.54 64.74 47.46 64.41 46.08 63.81C44.7 63.21 43.59 62.91 42.75 62.91C42.21 62.91 41.52 63.09 40.68 63.45C41.94 63.75 42.75 63.96 43.11 64.08C44.01 64.44 44.64 64.98 45 65.7C44.46 66.06 43.77 66.24 42.93 66.24C42.09 66.24 40.89 66 39.33 65.52C37.41 64.5 34.59 64.02 30.87 64.08L22.95 64.26C22.89 64.32 22.89 64.44 22.95 64.62C23.85 65.4 24.3 65.88 24.3 66.06C24.3 66.48 24.06 66.84 23.58 67.14C23.58 67.14 22.47 67.23 20.25 67.41C21.09 66.69 21.48 66.15 21.42 65.79C21.3 65.61 20.73 65.4 19.71 65.16C18.03 64.98 15.48 64.95 12.06 65.07C12.18 64.89 12.39 64.65 12.69 64.35C19.77 64.47 26.37 63.21 32.49 60.57C32.61 60.93 32.61 61.29 32.49 61.65C32.13 62.07 31.47 62.34 30.51 62.46C29.61 62.58 28.98 62.79 28.62 63.09C28.62 63.33 28.68 63.51 28.8 63.63C30.42 63.09 32.07 62.73 33.75 62.55L40.86 61.74C41.46 61.68 42.06 61.65 42.66 61.65C43.86 61.65 45.66 61.86 48.06 62.28C50.46 62.7 52.32 62.91 53.64 62.91ZM6.03 36.99C5.97 37.11 5.85 37.29 5.67 37.53C5.49 37.53 5.34 37.44 5.22 37.26V36.72C5.58 36.66 5.85 36.75 6.03 36.99ZM34.38 65.43C34.38 65.55 34.32 65.67 34.2 65.79C34.44 65.67 34.2 65.61 33.48 65.61C33.48 65.43 33.54 65.28 33.66 65.16C33.84 65.04 33.99 64.98 34.11 64.98C34.29 65.04 34.38 65.19 34.38 65.43ZM29.25 60.93C29.25 61.17 29.22 61.32 29.16 61.38C29.04 61.38 28.8 61.32 28.44 61.2C28.44 61.02 28.56 60.81 28.8 60.57C28.98 60.57 29.13 60.69 29.25 60.93ZM36.63 68.4C36.69 68.64 36.63 68.79 36.45 68.85C36.27 68.85 36.06 68.76 35.82 68.58C35.82 68.52 36 68.34 36.36 68.04C36.42 68.04 36.51 68.16 36.63 68.4ZM35.1 66.78C35.16 66.84 35.07 67.05 34.83 67.41C34.47 67.23 34.29 67.02 34.29 66.78C34.41 66.66 34.56 66.6 34.74 66.6C34.92 66.6 35.04 66.66 35.1 66.78ZM3.87 36C3.87 36 3.84 36.18 3.78 36.54C3.78 36.54 3.54 36.45 3.06 36.27C3.06 36.15 3.24 35.97 3.6 35.73C3.78 35.73 3.87 35.82 3.87 36ZM15.21 48.24C15.27 48.54 15.18 48.75 14.94 48.87C14.76 48.87 14.61 48.75 14.49 48.51C14.49 48.45 14.46 48.36 14.4 48.24C14.82 48.06 15.09 48.06 15.21 48.24ZM7.2 40.77C7.14 40.89 7.02 41.04 6.84 41.22C6.66 41.22 6.48 41.13 6.3 40.95C6.3 40.83 6.36 40.65 6.48 40.41C6.48 40.41 6.72 40.53 7.2 40.77ZM31.68 65.43C31.62 65.73 31.5 65.91 31.32 65.97C31.08 66.09 30.93 66 30.87 65.7C30.87 65.34 30.96 65.16 31.14 65.16C31.32 65.16 31.5 65.25 31.68 65.43ZM5.49 39.78C5.55 39.9 5.43 40.11 5.13 40.41C4.95 40.41 4.83 40.35 4.77 40.23V39.6C5.07 39.54 5.31 39.6 5.49 39.78ZM33.57 68.4C33.57 68.4 33.45 68.58 33.21 68.94C33.21 68.94 33.03 68.76 32.67 68.4C32.67 68.28 32.76 68.19 32.94 68.13C33.3 68.07 33.51 68.16 33.57 68.4ZM15.21 49.95C15.27 50.25 15.18 50.49 14.94 50.67C14.88 50.67 14.7 50.49 14.4 50.13C14.4 50.07 14.55 49.98 14.85 49.86C15.09 49.86 15.21 49.89 15.21 49.95ZM32.13 67.14C31.71 67.44 31.47 67.59 31.41 67.59C31.23 67.29 31.2 67.02 31.32 66.78C31.38 66.66 31.56 66.69 31.86 66.87C31.86 66.87 31.95 66.96 32.13 67.14ZM3.78 39.42C3.6 39.42 3.36 39.3 3.06 39.06C3.06 39.06 3.15 38.91 3.33 38.61C3.63 38.49 3.81 38.55 3.87 38.79C3.87 38.97 3.84 39.18 3.78 39.42ZM20.25 55.98C20.13 56.28 19.95 56.34 19.71 56.16L19.44 55.8C19.56 55.74 19.74 55.59 19.98 55.35C20.16 55.59 20.25 55.8 20.25 55.98ZM25.38 61.11C25.44 61.29 25.32 61.5 25.02 61.74C24.9 61.8 24.78 61.71 24.66 61.47C24.78 61.11 24.84 60.93 24.84 60.93C25.14 60.87 25.32 60.93 25.38 61.11ZM21.33 57.96C21.21 58.02 21.03 58.11 20.79 58.23L20.52 58.14C20.46 57.9 20.52 57.66 20.7 57.42C20.94 57.42 21.15 57.6 21.33 57.96ZM29.16 65.88C28.92 66.06 28.65 66.12 28.35 66.06C28.23 65.88 28.23 65.67 28.35 65.43C28.59 65.13 28.83 65.22 29.07 65.7C29.07 65.76 29.1 65.82 29.16 65.88ZM7.47 44.19C7.41 44.37 7.23 44.55 6.93 44.73C6.87 44.67 6.75 44.49 6.57 44.19C6.63 44.07 6.72 43.95 6.84 43.83C6.9 43.83 7.11 43.95 7.47 44.19ZM5.76 42.75C5.82 42.87 5.7 43.05 5.4 43.29C5.22 43.29 5.1 43.23 5.04 43.11V42.48C5.4 42.42 5.64 42.51 5.76 42.75ZM3.87 41.22L3.78 41.85C3.54 41.85 3.3 41.73 3.06 41.49C3.24 40.95 3.51 40.86 3.87 41.22ZM8.73 46.89C8.49 47.19 8.28 47.37 8.1 47.43C7.86 47.25 7.77 47.01 7.83 46.71C7.95 46.47 8.25 46.53 8.73 46.89ZM29.43 68.13C29.07 68.49 28.8 68.64 28.62 68.58C28.44 68.46 28.44 68.22 28.62 67.86C28.8 67.68 29.07 67.77 29.43 68.13ZM22.32 61.38C22.32 61.56 22.17 61.77 21.87 62.01C21.57 61.59 21.45 61.35 21.51 61.29C21.81 60.99 22.08 61.02 22.32 61.38ZM25.65 65.16C25.71 65.28 25.56 65.43 25.2 65.61H24.84C24.84 65.19 24.9 64.92 25.02 64.8C25.2 64.8 25.41 64.92 25.65 65.16ZM19.98 59.22C19.98 59.28 19.8 59.52 19.44 59.94C19.2 59.52 19.08 59.28 19.08 59.22C19.14 59.1 19.29 59.04 19.53 59.04C19.71 59.04 19.86 59.1 19.98 59.22ZM6.03 45.63C6.09 45.93 5.97 46.14 5.67 46.26C5.43 46.2 5.28 46.05 5.22 45.81L5.31 45.45C5.61 45.39 5.85 45.45 6.03 45.63ZM9.63 49.86C9.51 50.04 9.27 50.04 8.91 49.86C8.79 49.74 8.79 49.62 8.91 49.5L9.27 49.14C9.57 49.32 9.69 49.56 9.63 49.86ZM26.91 66.6C26.79 66.3 26.73 66.54 26.73 67.32C26.31 67.08 26.1 66.87 26.1 66.69C26.1 66.69 26.28 66.6 26.64 66.42C26.7 66.42 26.79 66.48 26.91 66.6ZM3.69 43.83L3.6 44.55C3.48 44.55 3.27 44.46 2.97 44.28C2.91 44.1 3.03 43.89 3.33 43.65C3.51 43.65 3.63 43.71 3.69 43.83ZM26.46 68.58C26.28 68.76 26.04 68.82 25.74 68.76C25.62 68.58 25.62 68.37 25.74 68.13C25.92 67.77 26.16 67.86 26.46 68.4C26.46 68.4 26.46 68.46 26.46 68.58ZM6.48 48.6C6.36 48.84 6.18 49.02 5.94 49.14C5.88 49.14 5.76 48.96 5.58 48.6C5.64 48.48 5.73 48.36 5.85 48.24C5.97 48.36 6.18 48.48 6.48 48.6ZM9.27 51.84C9.09 52.2 8.82 52.26 8.46 52.02C8.4 51.72 8.46 51.48 8.64 51.3C8.94 51.3 9.15 51.48 9.27 51.84ZM19.35 62.1C19.17 62.46 18.93 62.58 18.63 62.46C18.45 62.34 18.45 62.1 18.63 61.74C18.87 61.56 19.11 61.68 19.35 62.1ZM13.05 56.07C13.05 56.25 12.96 56.43 12.78 56.61C12.6 56.61 12.42 56.49 12.24 56.25V55.98C12.72 55.86 12.99 55.89 13.05 56.07ZM3.96 47.16C3.96 47.22 3.84 47.37 3.6 47.61C3.6 47.61 3.54 47.64 3.42 47.7C3.24 47.58 3.15 47.31 3.15 46.89C3.27 46.77 3.54 46.86 3.96 47.16ZM16.83 61.38C16.77 61.68 16.62 61.74 16.38 61.56L16.02 61.02C16.02 61.02 16.26 60.93 16.74 60.75C17.04 60.87 17.07 61.08 16.83 61.38ZM6.48 51.75C6.24 51.99 6 52.05 5.76 51.93C5.58 51.81 5.58 51.66 5.76 51.48L6.03 51.12C6.33 51.54 6.48 51.75 6.48 51.75ZM23.13 68.67C22.83 68.91 22.62 69.03 22.5 69.03C22.44 68.97 22.38 68.76 22.32 68.4C22.5 67.98 22.77 68.07 23.13 68.67ZM4.14 49.59C4.2 49.71 4.05 49.89 3.69 50.13C3.57 50.19 3.45 50.16 3.33 50.04V49.32C3.63 49.32 3.9 49.41 4.14 49.59ZM17.1 62.46C17.04 62.4 16.95 62.64 16.83 63.18C16.41 62.94 16.23 62.73 16.29 62.55C16.59 62.25 16.86 62.22 17.1 62.46ZM8.55 55.71C8.55 55.71 8.31 55.77 7.83 55.89C7.71 55.71 7.71 55.5 7.83 55.26C7.95 55.08 8.1 55.05 8.28 55.17C8.4 55.23 8.49 55.41 8.55 55.71ZM6.39 53.82C6.39 54 6.24 54.21 5.94 54.45C5.82 54.39 5.7 54.24 5.58 54C5.58 53.82 5.64 53.67 5.76 53.55C5.94 53.55 6.15 53.64 6.39 53.82ZM18.45 66.6C18.09 66.9 17.85 67.02 17.73 66.96C17.61 66.72 17.61 66.48 17.73 66.24C17.73 66.18 17.91 66.21 18.27 66.33C18.27 66.33 18.33 66.42 18.45 66.6ZM20.07 68.13C20.01 67.89 19.95 68.13 19.89 68.85C19.71 68.79 19.5 68.67 19.26 68.49C19.26 68.43 19.32 68.31 19.44 68.13C19.74 67.95 19.95 67.95 20.07 68.13ZM14.04 62.73C13.98 62.85 13.83 62.94 13.59 63V63.09C13.53 63.09 13.44 63.06 13.32 63C13.26 62.64 13.32 62.4 13.5 62.28C13.62 62.28 13.8 62.43 14.04 62.73ZM3.69 52.29L3.51 52.92C3.27 52.86 3.06 52.71 2.88 52.47C2.88 52.23 3.06 52.08 3.42 52.02C3.42 52.02 3.51 52.11 3.69 52.29ZM5.85 56.52C5.79 56.7 5.67 56.88 5.49 57.06C5.49 57.06 5.43 57.06 5.31 57.06C5.01 56.94 4.95 56.67 5.13 56.25C5.43 56.25 5.67 56.34 5.85 56.52ZM17.55 68.4C17.55 68.52 17.46 68.7 17.28 68.94C17.16 68.94 17.04 68.88 16.92 68.76C16.86 68.58 16.8 68.4 16.74 68.22C17.28 68.1 17.55 68.16 17.55 68.4ZM3.87 54.99C3.93 55.23 3.84 55.38 3.6 55.44H3.06C3.06 55.26 3.12 55.02 3.24 54.72C3.48 54.66 3.69 54.75 3.87 54.99ZM15.39 66.6C15.27 66.9 15.12 67.08 14.94 67.14C14.94 67.14 14.82 67.02 14.58 66.78C14.52 66.54 14.61 66.39 14.85 66.33C15.03 66.33 15.21 66.42 15.39 66.6ZM11.16 64.08C11.22 64.38 11.16 64.53 10.98 64.53C10.74 64.53 10.53 64.47 10.35 64.35C10.35 64.05 10.5 63.84 10.8 63.72C10.98 63.72 11.1 63.84 11.16 64.08ZM15.12 68.22C15.06 68.4 14.94 68.61 14.76 68.85C14.64 68.85 14.46 68.67 14.22 68.31C14.58 67.71 14.88 67.68 15.12 68.22ZM5.85 59.58C5.91 59.64 5.82 59.82 5.58 60.12C5.46 60.24 5.34 60.24 5.22 60.12C5.1 59.88 5.1 59.64 5.22 59.4C5.46 59.34 5.67 59.4 5.85 59.58ZM3.87 57.78L3.69 58.41C3.51 58.41 3.3 58.32 3.06 58.14C3.06 57.96 3.15 57.78 3.33 57.6C3.51 57.6 3.69 57.66 3.87 57.78ZM11.7 66.51C11.76 66.69 11.67 66.87 11.43 67.05C11.31 67.11 11.13 66.93 10.89 66.51C11.43 66.27 11.7 66.27 11.7 66.51ZM6.57 62.28C6.69 62.58 6.57 62.73 6.21 62.73H5.76C5.7 62.49 5.79 62.22 6.03 61.92C6.21 61.98 6.39 62.1 6.57 62.28ZM8.19 64.17C8.25 64.29 8.22 64.44 8.1 64.62C7.68 64.68 7.44 64.59 7.38 64.35C7.38 64.35 7.53 64.17 7.83 63.81C7.83 63.81 7.95 63.93 8.19 64.17ZM12.24 68.76C12.3 68.94 12.24 69.06 12.06 69.12C11.82 69.12 11.61 69.06 11.43 68.94C11.43 68.76 11.61 68.55 11.97 68.31C12.09 68.31 12.18 68.46 12.24 68.76ZM3.96 60.84L3.87 61.38C3.81 61.38 3.57 61.29 3.15 61.11C3.15 60.99 3.3 60.81 3.6 60.57C3.66 60.57 3.78 60.66 3.96 60.84ZM8.82 67.23C8.58 67.35 8.37 67.35 8.19 67.23C8.19 67.23 8.16 67.11 8.1 66.87L8.46 66.51C8.88 66.69 9 66.93 8.82 67.23ZM4.14 63.18C4.14 63.18 4.08 63.36 3.96 63.72C3.48 63.6 3.27 63.42 3.33 63.18C3.45 63.06 3.63 62.94 3.87 62.82C4.05 62.94 4.14 63.06 4.14 63.18ZM9.54 68.67C9.42 68.85 9.24 69.03 9 69.21C8.94 69.21 8.85 69.12 8.73 68.94C8.67 68.82 8.7 68.64 8.82 68.4C9 68.4 9.24 68.49 9.54 68.67ZM6.21 65.61C6.15 65.79 5.97 65.97 5.67 66.15C5.37 66.03 5.25 65.79 5.31 65.43C5.43 65.25 5.58 65.22 5.76 65.34C5.88 65.4 6.03 65.49 6.21 65.61ZM6.57 68.4C6.57 68.4 6.48 68.58 6.3 68.94C6.24 68.94 6.15 68.97 6.03 69.03C5.73 68.91 5.67 68.64 5.85 68.22C6.15 68.16 6.39 68.22 6.57 68.4ZM3.78 66.78C3.54 66.72 3.3 66.57 3.06 66.33C3.06 66.15 3.24 66 3.6 65.88C3.78 65.88 3.84 66.18 3.78 66.78ZM4.14 68.13C4.2 68.25 4.17 68.49 4.05 68.85C3.63 68.79 3.39 68.64 3.33 68.4C3.45 68.34 3.57 68.22 3.69 68.04C3.81 67.98 3.96 68.01 4.14 68.13ZM55.98 28.08C55.86 31.44 54.48 34.02 51.84 35.82C49.98 37.02 47.67 37.8 44.91 38.16C47.67 38.34 50.13 37.74 52.29 36.36C54.87 34.68 56.16 32.46 56.16 29.7C56.16 29.16 56.1 28.62 55.98 28.08ZM35.82 25.83L33.03 18.99L32.58 17.37C32.58 18.57 32.85 19.92 33.39 21.42C33.93 22.68 34.44 23.97 34.92 25.29C35.46 26.25 35.73 27.36 35.73 28.62C35.73 30.3 35.28 31.77 34.38 33.03L35.1 32.49C35.94 31.53 36.36 30.24 36.36 28.62C36.36 27.6 36.18 26.67 35.82 25.83ZM40.5 42.21C40.62 41.07 40.32 40.14 39.6 39.42C38.88 38.64 37.92 38.25 36.72 38.25L37.44 38.34C39 38.94 40.02 40.23 40.5 42.21Z" fill="#F2F2F2"/>
</svg>
