<svg width="46" height="50" viewBox="0 0 46 50" fill="none" xmlns="http://www.w3.org/2000/svg">
<path d="M45.6753 49.8161C45.6344 49.8161 45.614 49.8774 45.614 50L35.0688 49.9387L0.122618 50L0.0613091 0.9527L21.7647 1.07532L45.7366 1.01401L45.6753 49.8161ZM44.633 41.662L44.3878 2.36281L35.0688 2.24019L1.47142 2.11757L1.41011 4.93779L1.22618 48.8964C1.38967 48.8964 1.63491 48.876 1.96189 48.8351H44.5717L44.633 41.662ZM43.1003 3.6503C43.1003 3.77292 43.039 3.85466 42.9164 3.89554C42.7529 3.89554 42.6303 3.81379 42.5485 3.6503C42.5077 3.52768 42.6098 3.4255 42.8551 3.34375C42.8551 3.34375 42.9368 3.44594 43.1003 3.6503ZM43.6521 5.24434C43.6521 5.40783 43.5908 5.48958 43.4682 5.48958C43.3047 5.53045 43.1821 5.48957 43.1003 5.36695C43.1412 5.12172 43.2229 4.97867 43.3456 4.93779C43.4682 4.93779 43.5704 5.03997 43.6521 5.24434ZM41.5063 3.71161C41.4245 3.83423 41.261 3.83423 41.0158 3.71161C40.9749 3.67074 40.9341 3.6503 40.8932 3.6503C40.9341 3.52768 41.0362 3.38463 41.1997 3.22114C41.445 3.34375 41.5472 3.50724 41.5063 3.71161ZM42.4259 4.69256C42.3442 4.89692 42.3033 4.9991 42.3033 4.9991C42.2216 4.9991 42.0785 4.95823 41.8741 4.87648C41.915 4.75386 41.9968 4.61081 42.1194 4.44732C42.2829 4.48819 42.385 4.56994 42.4259 4.69256ZM43.6521 7.26754C43.5295 7.39016 43.366 7.43103 43.1616 7.39016C43.1208 7.39016 43.1208 7.2471 43.1616 6.96099C43.2434 6.83837 43.4069 6.94056 43.6521 7.26754ZM41.7515 5.79612C41.7106 6.00048 41.6493 6.10267 41.5676 6.10267C41.4858 6.10267 41.3632 6.06179 41.1997 5.98005C41.2406 5.73481 41.3224 5.59176 41.445 5.55088C41.6085 5.55088 41.7106 5.63263 41.7515 5.79612ZM38.9926 3.83423C38.9517 3.95685 38.8291 3.97728 38.6248 3.89554C38.5021 3.69117 38.4408 3.58899 38.4408 3.58899C38.4408 3.54812 38.6043 3.46637 38.9313 3.34375C38.9722 3.58899 38.9926 3.75248 38.9926 3.83423ZM40.2188 5.06041C40.2188 5.18303 40.137 5.30565 39.9735 5.42826C39.8918 5.42826 39.7896 5.38739 39.667 5.30565V4.87648C39.8305 4.83561 40.0144 4.89692 40.2188 5.06041ZM41.7515 7.32885C41.7924 7.45147 41.6698 7.51278 41.3837 7.51278C41.261 7.34928 41.1997 7.22667 41.1997 7.14492C41.2815 7.10405 41.4245 7.04274 41.6289 6.96099C41.6698 7.04274 41.7106 7.16536 41.7515 7.32885ZM43.5908 9.10681C43.3864 9.31117 43.2229 9.39292 43.1003 9.35205C43.0186 9.10681 43.0186 8.94332 43.1003 8.86158C43.3047 8.57547 43.4682 8.65721 43.5908 9.10681ZM36.9081 3.52768C36.6629 3.73205 36.4994 3.79335 36.4176 3.71161C36.3359 3.58899 36.3359 3.44594 36.4176 3.28245C36.4585 3.2007 36.622 3.28244 36.9081 3.52768ZM40.0349 6.83837C40.0349 6.83837 39.9327 7.00186 39.7283 7.32885C39.5648 7.12448 39.4831 6.96099 39.4831 6.83837C39.6466 6.67488 39.7896 6.63401 39.9122 6.71576C39.9531 6.87925 39.994 6.92012 40.0349 6.83837ZM41.8128 9.22943C41.7311 9.31118 41.588 9.31118 41.3837 9.22943C41.3019 9.22943 41.261 9.14769 41.261 8.98419L41.6289 8.73896C41.7924 8.98419 41.8537 9.14768 41.8128 9.22943ZM43.4069 10.333C43.4069 10.4556 43.3047 10.5987 43.1003 10.7622C42.9368 10.6804 42.8346 10.5578 42.7938 10.3943C42.9164 10.0673 43.1208 10.0469 43.4069 10.333ZM34.7623 3.52768C34.6397 3.60943 34.4762 3.69117 34.2718 3.77292C34.1901 3.69117 34.1696 3.54812 34.2105 3.34375C34.3331 3.13939 34.517 3.2007 34.7623 3.52768ZM43.6521 12.7854C43.5295 12.9488 43.3864 13.0102 43.2229 12.9693C43.1003 12.9284 43.0799 12.8058 43.1616 12.6014C43.2842 12.3562 43.4477 12.4175 43.6521 12.7854ZM40.0349 9.16812C39.7079 9.33161 39.5444 9.39292 39.5444 9.35205C39.4626 9.2703 39.4218 9.18856 39.4218 9.10681C39.4218 9.02507 39.4626 8.92288 39.5444 8.80027C39.667 8.75939 39.8305 8.88201 40.0349 9.16812ZM42.6098 11.6205C42.6507 11.7431 42.5894 11.8657 42.4259 11.9883C42.3442 12.0292 42.242 12.0088 42.1194 11.927V11.4979C42.3646 11.4979 42.5281 11.5387 42.6098 11.6205ZM41.0158 10.4556C40.8932 10.5782 40.7297 10.6191 40.5253 10.5782C40.4436 10.4965 40.4232 10.3739 40.464 10.2104L40.7093 10.0265C40.8319 10.0673 40.9341 10.2104 41.0158 10.4556ZM41.1997 11.6205C41.1997 11.6205 41.0976 11.7635 40.8932 12.0497C40.6888 11.8862 40.5866 11.7431 40.5866 11.6205C40.6684 11.4979 40.7706 11.4366 40.8932 11.4366C41.0567 11.4366 41.1589 11.4979 41.1997 11.6205ZM32.4938 3.34375C32.5347 3.4255 32.4734 3.50724 32.3099 3.58899L31.9421 3.52768C31.9421 3.48681 32.0034 3.32332 32.126 3.03721C32.2077 3.03721 32.3303 3.13939 32.4938 3.34375ZM33.6587 4.38601L33.4748 4.81517C33.3522 4.7743 33.2091 4.67212 33.0456 4.50863C33.0456 4.38601 33.1682 4.28383 33.4135 4.20208C33.4952 4.20208 33.577 4.26339 33.6587 4.38601ZM42.5485 13.5211C42.5485 13.5211 42.4668 13.6437 42.3033 13.8889C42.3033 13.8889 42.2011 13.8072 41.9968 13.6437C41.9968 13.5619 42.0376 13.4598 42.1194 13.3371C42.4055 13.2963 42.5485 13.3576 42.5485 13.5211ZM34.7623 5.6735C34.7623 5.75525 34.7214 5.85743 34.6397 5.98005C34.4762 6.02092 34.3331 5.91874 34.2105 5.6735C34.2105 5.63263 34.2718 5.57132 34.3944 5.48958C34.517 5.40783 34.5988 5.38739 34.6397 5.42826C34.7623 5.42826 34.8031 5.51001 34.7623 5.6735ZM43.6521 14.7473C43.693 14.829 43.5908 14.9721 43.3456 15.1764C43.3456 15.1764 43.2638 15.1355 43.1003 15.0538V14.6246C43.3047 14.5838 43.4886 14.6246 43.6521 14.7473ZM35.498 7.14492C35.3345 7.30841 35.1914 7.36972 35.0688 7.32885C34.9462 7.20623 34.9258 7.06317 35.0075 6.89969C35.171 6.61357 35.3345 6.69532 35.498 7.14492ZM39.0539 10.6395C39.013 10.803 38.9313 10.9257 38.8087 11.0074C38.7269 11.0074 38.6248 10.9665 38.5021 10.8848L38.5634 10.5169C38.7678 10.476 38.9313 10.5169 39.0539 10.6395ZM39.5444 11.8044C39.5444 11.8862 39.4626 12.0292 39.2992 12.2336C39.2992 12.2336 39.1765 12.1314 38.9313 11.927C38.9313 11.927 38.9926 11.8453 39.1152 11.6818C39.3605 11.6001 39.5035 11.6409 39.5444 11.8044ZM41.1384 13.4598C41.1384 13.5415 41.0976 13.6437 41.0158 13.7663C40.8523 13.7663 40.7093 13.705 40.5866 13.5824C40.5866 13.4598 40.6684 13.3576 40.8319 13.2758C40.9954 13.1941 41.0976 13.2554 41.1384 13.4598ZM31.6355 4.44732C31.6355 4.52906 31.6151 4.61081 31.5742 4.69256C31.4925 4.73343 31.329 4.71299 31.0837 4.63125C31.0837 4.50863 31.145 4.36557 31.2677 4.20208C31.3903 4.16121 31.5129 4.24296 31.6355 4.44732ZM32.6165 5.55088C32.4121 5.75525 32.2486 5.83699 32.126 5.79612C32.0034 5.71437 32.0034 5.55088 32.126 5.30565C32.2077 5.18303 32.3712 5.26477 32.6165 5.55088ZM30.4093 3.28245C30.3276 3.52768 30.205 3.6503 30.0415 3.6503C29.9189 3.48681 29.8575 3.32332 29.8575 3.15983C30.1437 2.99634 30.3276 3.03721 30.4093 3.28245ZM42.3646 15.3603C42.4055 15.4421 42.3237 15.5647 42.1194 15.7282C41.9968 15.7282 41.915 15.6873 41.8741 15.6056V15.1764C42.1194 15.1355 42.2829 15.1969 42.3646 15.3603ZM43.4682 16.5865C43.509 16.7091 43.4886 16.8318 43.4069 16.9544C43.2025 16.9544 43.039 16.8931 42.9164 16.7705C42.9573 16.6478 43.0594 16.5048 43.2229 16.3413C43.3864 16.423 43.4682 16.5048 43.4682 16.5865ZM33.7813 7.0223C33.577 7.22667 33.4135 7.32885 33.2909 7.32885C33.1274 7.12448 33.1069 6.96099 33.2295 6.83837C33.3113 6.71576 33.4952 6.77707 33.7813 7.0223ZM37.4599 11.0687C37.5007 11.1913 37.4803 11.3139 37.3986 11.4366C37.1942 11.5183 37.0307 11.457 36.9081 11.2526C36.9081 11.2118 37.0307 11.0891 37.2759 10.8848C37.2351 10.9257 37.2964 10.987 37.4599 11.0687ZM36.295 10.2717C36.295 10.3943 36.2337 10.5169 36.1111 10.6395C35.9885 10.5987 35.8658 10.5169 35.7432 10.3943C35.7432 10.2717 35.8658 10.1695 36.1111 10.0878C36.1519 10.0469 36.2133 10.1082 36.295 10.2717ZM39.4218 13.5824C39.4626 13.7867 39.3605 13.9502 39.1152 14.0729C38.9109 13.9502 38.8291 13.7867 38.87 13.5824C38.9109 13.5006 38.9926 13.4598 39.1152 13.4598C39.2378 13.4598 39.34 13.5006 39.4218 13.5824ZM32.0647 6.71576L31.9421 7.14492C31.8194 7.10405 31.6764 6.98143 31.5129 6.77706C31.5129 6.65445 31.6151 6.5727 31.8194 6.53183C31.9421 6.53183 32.0238 6.59314 32.0647 6.71576ZM41.0771 15.9734C40.9545 16.0552 40.791 16.0961 40.5866 16.0961C40.5049 15.9326 40.5049 15.7895 40.5866 15.6669C40.7501 15.4217 40.8932 15.4625 41.0158 15.7895C41.0158 15.8304 41.0362 15.8917 41.0771 15.9734ZM28.3248 3.46637C28.2839 3.58899 28.1205 3.60943 27.8343 3.52768L27.7117 3.34375C27.7117 3.34375 27.8343 3.24157 28.0796 3.03721C28.2022 3.11895 28.2839 3.26201 28.3248 3.46637ZM30.7772 5.6735C30.6954 5.87786 30.5933 6.00048 30.4706 6.04136C30.3889 6.08223 30.3071 6.00048 30.2254 5.79612C30.1845 5.6735 30.2458 5.57132 30.4093 5.48958C30.5319 5.48958 30.6546 5.55088 30.7772 5.6735ZM29.4897 4.50863C29.3671 4.75386 29.2445 4.87648 29.1218 4.87648C28.9583 4.71299 28.9175 4.52906 28.9992 4.3247C29.081 4.24295 29.2445 4.30426 29.4897 4.50863ZM43.4682 18.671C43.3864 18.7937 43.2638 18.9163 43.1003 19.0389L42.8551 18.671C42.8551 18.671 42.9573 18.5893 43.1616 18.4258C43.366 18.5075 43.4682 18.5893 43.4682 18.671ZM42.242 17.5062C42.2011 17.6288 42.1194 17.7514 41.9968 17.874C41.8333 17.9149 41.7311 17.8331 41.6902 17.6288L41.7515 17.3222C41.9559 17.3222 42.1194 17.3835 42.242 17.5062ZM39.8509 15.2377C39.8918 15.3603 39.8305 15.4421 39.667 15.483C39.5035 15.4421 39.3809 15.3603 39.2992 15.2377C39.2992 15.2377 39.4218 15.1355 39.667 14.9312C39.667 14.9312 39.7283 15.0334 39.8509 15.2377ZM43.6521 20.5716C43.6521 20.5716 43.5499 20.6738 43.3456 20.8782C43.2229 20.9599 43.1412 20.8986 43.1003 20.6942V20.3264C43.2638 20.3264 43.4477 20.4081 43.6521 20.5716ZM28.6314 5.42826C28.6314 5.42826 28.5496 5.61219 28.3861 5.98005C28.3044 5.8983 28.2022 5.79612 28.0796 5.6735C28.1205 5.55088 28.2022 5.4487 28.3248 5.36695C28.3657 5.36695 28.4679 5.38739 28.6314 5.42826ZM40.0962 17.1383C39.9736 17.3835 39.8305 17.5062 39.667 17.5062C39.5035 17.3427 39.4831 17.1587 39.6057 16.9544C39.8918 16.9135 40.0553 16.9748 40.0962 17.1383ZM42.3033 19.4067C42.3033 19.4067 42.2216 19.4885 42.0581 19.652C41.9354 19.652 41.8333 19.6111 41.7515 19.5294C41.7515 19.4067 41.8128 19.2637 41.9354 19.1002C41.9354 19.1002 42.0581 19.2024 42.3033 19.4067ZM29.9802 7.14492C29.9393 7.22667 29.878 7.28798 29.7962 7.32885C29.5919 7.32885 29.4488 7.2471 29.3671 7.08361C29.5306 6.92012 29.6941 6.81794 29.8575 6.77706L29.9802 7.14492ZM26.1177 3.6503C26.0359 3.6503 25.9133 3.67074 25.7498 3.71161C25.5863 3.58899 25.525 3.48681 25.5659 3.40506L25.9338 3.15983C26.0564 3.48681 26.1177 3.6503 26.1177 3.6503ZM41.0158 18.3032C41.0158 18.4667 40.9341 18.5893 40.7706 18.671C40.6888 18.671 40.5866 18.6097 40.464 18.4871L40.5253 18.1806C40.7706 18.1806 40.9341 18.2214 41.0158 18.3032ZM27.0373 4.38601C27.0373 4.5495 26.976 4.71299 26.8534 4.87648C26.7717 4.79474 26.649 4.71299 26.4855 4.63125C26.4447 4.46776 26.506 4.34514 26.6695 4.26339C26.7512 4.26339 26.8738 4.30426 27.0373 4.38601ZM43.6521 22.3496C43.4886 22.4722 43.3047 22.5131 43.1003 22.4722C43.0186 22.3496 43.0186 22.2065 43.1003 22.043C43.2638 21.7978 43.4273 21.8387 43.5908 22.1657C43.5908 22.2065 43.6112 22.2678 43.6521 22.3496ZM28.0796 6.77706C28.1205 6.98143 28.0387 7.10405 27.8343 7.14492C27.7117 7.18579 27.63 7.12448 27.5891 6.96099C27.63 6.71576 27.6913 6.59314 27.773 6.59314C27.773 6.63401 27.8139 6.67488 27.8957 6.71576C27.9774 6.71576 28.0387 6.73619 28.0796 6.77706ZM42.3646 21.3686C42.242 21.5321 42.0989 21.5934 41.9354 21.5526C41.8537 21.5117 41.8537 21.3482 41.9354 21.0621C42.1398 20.8169 42.2829 20.919 42.3646 21.3686ZM39.0539 18.1806C38.9722 18.3441 38.8087 18.4054 38.5634 18.3645C38.4408 18.2419 38.4204 18.1193 38.5021 17.9966C38.543 17.7923 38.6452 17.7514 38.8087 17.874C38.9313 17.9558 39.013 18.0579 39.0539 18.1806ZM40.9545 20.5103C40.9136 20.5512 40.8319 20.6329 40.7093 20.7555C40.464 20.5921 40.3618 20.449 40.4027 20.3264C40.4845 20.2855 40.5866 20.2242 40.7093 20.1425C40.9136 20.1833 40.9954 20.3059 40.9545 20.5103ZM23.7266 3.15983C23.7675 3.28244 23.7062 3.40506 23.5427 3.52768C23.3383 3.60943 23.2362 3.54812 23.2362 3.34375C23.2362 3.26201 23.2157 3.18026 23.1749 3.09852C23.461 3.01677 23.6449 3.03721 23.7266 3.15983ZM39.9735 19.4067C39.9735 19.4067 39.8714 19.5294 39.667 19.7746C39.4626 19.652 39.3809 19.5089 39.4218 19.3454C39.5035 19.2637 39.6057 19.2228 39.7283 19.2228C39.8918 19.2228 39.9735 19.2841 39.9735 19.4067ZM34.8236 14.8086C34.7418 14.9312 34.5988 14.9107 34.3944 14.7473C34.3535 14.7064 34.3331 14.6042 34.3331 14.4407C34.374 14.3998 34.517 14.3385 34.7623 14.2568C34.844 14.4203 34.8645 14.6042 34.8236 14.8086ZM24.7689 4.56994C24.4828 4.7743 24.3193 4.87648 24.2784 4.87648C24.1149 4.71299 24.0945 4.52906 24.2171 4.3247C24.258 4.24295 24.4419 4.3247 24.7689 4.56994ZM32.9843 12.9693C32.9843 13.1737 32.8821 13.3167 32.6778 13.3985C32.596 13.4393 32.5143 13.378 32.4325 13.2145L32.4938 12.8467C32.6573 12.8467 32.8208 12.8875 32.9843 12.9693ZM43.6521 24.0662C43.6112 24.2297 43.5295 24.3523 43.4069 24.4341C43.3251 24.475 43.2229 24.4545 43.1003 24.3728V23.9436C43.2229 23.9027 43.4069 23.9436 43.6521 24.0662ZM35.2527 15.7895C35.3345 15.9121 35.3141 16.0347 35.1914 16.1574C35.1914 16.1574 35.0279 16.1165 34.701 16.0347C34.8236 15.5034 35.0075 15.4217 35.2527 15.7895ZM31.2063 11.8044C31.1655 11.8862 31.0837 12.0292 30.9611 12.2336C30.9611 12.2336 30.8385 12.1314 30.5933 11.927C30.5933 11.927 30.6341 11.8453 30.7159 11.6818C30.9611 11.6001 31.1246 11.6409 31.2063 11.8044ZM42.4259 23.0853C42.4259 23.2079 42.3237 23.351 42.1194 23.5145C41.9559 23.351 41.8741 23.2079 41.8741 23.0853C41.915 23.0035 41.9968 22.9627 42.1194 22.9627C42.242 22.9627 42.3442 23.0035 42.4259 23.0853ZM26.4855 7.26754C26.4038 7.43103 26.2607 7.51278 26.0564 7.51278C25.8929 7.34928 25.852 7.20623 25.9338 7.08361C26.0973 6.83837 26.2812 6.89968 26.4855 7.26754ZM41.1997 22.1657C41.118 22.2883 40.9136 22.2883 40.5866 22.1657C40.7093 21.5934 40.8932 21.4913 41.1384 21.8591C41.1793 21.9409 41.1997 22.043 41.1997 22.1657ZM33.2909 14.3794C33.0865 14.5429 32.923 14.6042 32.8004 14.5633C32.6778 14.4407 32.6573 14.2977 32.7391 14.1342C32.8617 13.9298 32.9843 13.9094 33.1069 14.0729C33.1887 14.1546 33.25 14.2568 33.2909 14.3794ZM37.4599 18.3645L37.3986 18.671C37.3986 18.671 37.3577 18.6915 37.2759 18.7323C37.0716 18.6506 36.949 18.5484 36.9081 18.4258C36.949 18.3441 37.0512 18.2623 37.2146 18.1806C37.3781 18.1397 37.4599 18.201 37.4599 18.3645ZM38.4408 20.0198C38.3182 20.1425 38.1547 20.1833 37.9503 20.1425C37.8277 20.0607 37.8073 19.9381 37.889 19.7746C37.9299 19.652 38.0117 19.6111 38.1343 19.652C38.2569 19.6929 38.3182 19.7542 38.3182 19.8359C38.3591 19.9177 38.4 19.979 38.4408 20.0198ZM25.0754 6.59314C24.9119 6.87925 24.7485 6.98143 24.585 6.89969C24.5441 6.81794 24.5236 6.67488 24.5236 6.47052C24.6054 6.26616 24.7893 6.30703 25.0754 6.59314ZM39.667 21.246C39.667 21.4095 39.5648 21.5321 39.3605 21.6139C39.2378 21.6547 39.1561 21.5934 39.1152 21.4299V21.0621C39.2787 21.0621 39.4626 21.1234 39.667 21.246ZM31.5129 13.0306C31.5538 13.1532 31.4925 13.3167 31.329 13.5211C31.2063 13.5211 31.0837 13.4189 30.9611 13.2145C30.9611 12.9693 31.145 12.908 31.5129 13.0306ZM22.2552 4.50863C22.1735 4.63125 22.01 4.65168 21.7647 4.56994C21.7239 4.52906 21.7034 4.44732 21.7034 4.3247L22.0713 4.07947C22.1939 4.36557 22.2552 4.50863 22.2552 4.50863ZM43.5908 25.7829C43.6317 25.8646 43.5295 25.9873 43.2842 26.1507C43.1616 26.1916 43.0799 26.1303 43.039 25.9668C43.039 25.8442 43.0594 25.7216 43.1003 25.599C43.2638 25.599 43.4273 25.6603 43.5908 25.7829ZM20.9064 3.15983C20.9064 3.15983 20.8451 3.30288 20.7225 3.58899C20.5181 3.54812 20.3955 3.44594 20.3546 3.28245C20.3138 3.15983 20.3751 3.07808 20.5386 3.03721C20.6612 2.99634 20.7838 3.03721 20.9064 3.15983ZM41.0771 23.5758C41.0771 23.6984 40.9749 23.821 40.7706 23.9436C40.6888 23.9845 40.6071 23.8823 40.5253 23.6371L40.5866 23.4531C40.8319 23.4531 40.9954 23.494 41.0771 23.5758ZM42.3033 24.8019C42.3033 24.9246 42.242 25.0676 42.1194 25.2311C41.9968 25.272 41.8741 25.2515 41.7515 25.1698V24.6793C41.9559 24.6793 42.1398 24.7202 42.3033 24.8019ZM29.6736 12.3562C29.3058 12.5197 29.1218 12.6014 29.1218 12.6014C28.9992 12.4788 28.9992 12.3153 29.1218 12.111C29.2445 11.9066 29.4284 11.9883 29.6736 12.3562ZM39.667 22.7787C39.667 22.9014 39.5853 23.0444 39.4218 23.2079C39.2174 22.8809 39.1152 22.7379 39.1152 22.7787C39.197 22.6561 39.2992 22.5948 39.4218 22.5948C39.5444 22.5948 39.6261 22.6561 39.667 22.7787ZM28.2022 11.3139C28.2022 11.4366 28.1205 11.5796 27.957 11.7431C27.8343 11.784 27.7322 11.7227 27.6504 11.5592C27.6913 11.3139 27.7526 11.1913 27.8343 11.1913C27.957 11.1505 28.0796 11.1913 28.2022 11.3139ZM23.7266 7.20623C23.6858 7.28798 23.6244 7.43103 23.5427 7.63539C23.4201 7.59452 23.277 7.49234 23.1135 7.32885C23.1544 7.20623 23.2566 7.12448 23.4201 7.08361C23.5836 7.04274 23.6858 7.08361 23.7266 7.20623ZM43.3456 27.8061C43.2638 27.8061 43.1616 27.7857 43.039 27.7448C42.9164 27.663 42.8551 27.5609 42.8551 27.4382C42.9368 27.3974 43.0799 27.3361 43.2842 27.2543C43.4069 27.4178 43.4273 27.6017 43.3456 27.8061ZM20.0481 4.38601C20.0481 4.38601 19.8642 4.42688 19.4963 4.50863C19.4963 4.30426 19.5576 4.12034 19.6802 3.95685C19.8846 3.91597 20.0072 3.97728 20.0481 4.14077C20.0481 4.14077 20.0481 4.22252 20.0481 4.38601ZM19.0058 3.28245C19.0058 3.48681 18.9445 3.58899 18.8219 3.58899C18.8219 3.58899 18.6993 3.56856 18.454 3.52768C18.454 3.36419 18.5154 3.24157 18.638 3.15983C18.8015 3.03721 18.9241 3.07808 19.0058 3.28245ZM22.1326 6.53183L22.01 6.96099C21.8056 6.92012 21.6626 6.83838 21.5808 6.71576C21.5808 6.67488 21.6421 6.59314 21.7647 6.47052C21.9282 6.3479 22.0509 6.36834 22.1326 6.53183ZM40.0962 24.8019C39.9736 24.9246 39.8305 24.9654 39.667 24.9246C39.5035 24.8428 39.4831 24.6998 39.6057 24.4954C39.8101 24.1684 39.9736 24.2706 40.0962 24.8019ZM41.1997 25.8442C41.1997 25.9668 41.1589 26.0486 41.0771 26.0894C40.9954 26.0894 40.8319 26.0486 40.5866 25.9668C40.6684 25.7216 40.7501 25.5785 40.8319 25.5377C40.8319 25.5377 40.9545 25.6398 41.1997 25.8442ZM25.9951 11.13C25.9542 11.2526 25.8929 11.3139 25.8111 11.3139C25.8111 11.3139 25.6885 11.2935 25.4433 11.2526C25.4024 11.0074 25.4842 10.8439 25.6885 10.7622C25.8111 10.7622 25.9133 10.8848 25.9951 11.13ZM41.9968 27.3156C41.9968 27.3974 41.9354 27.4996 41.8128 27.6222C41.7311 27.5813 41.588 27.52 41.3837 27.4382C41.4654 27.2748 41.5676 27.1521 41.6902 27.0704C41.8537 26.9886 41.9559 27.0704 41.9968 27.3156ZM43.4682 29.2775C43.4682 29.4001 43.3864 29.5023 43.2229 29.5841C43.0594 29.6249 42.9573 29.5841 42.9164 29.4614L42.9777 29.0323C43.1412 29.0323 43.3047 29.114 43.4682 29.2775ZM18.1475 4.3247C18.1066 4.52906 18.0453 4.67212 17.9636 4.75386C17.9227 4.75386 17.8001 4.67212 17.5957 4.50863C17.5548 4.38601 17.5957 4.30426 17.7183 4.26339C17.841 4.22252 17.984 4.24295 18.1475 4.3247ZM21.213 7.51278C21.2538 7.67627 21.213 7.83976 21.0903 8.00325C20.8451 7.96237 20.702 7.86019 20.6612 7.6967C20.702 7.36972 20.886 7.30841 21.213 7.51278ZM39.4831 26.0894C39.524 26.1712 39.524 26.2938 39.4831 26.4573C39.2787 26.4573 39.0948 26.4164 38.9313 26.3347C39.013 26.0894 39.1357 25.9464 39.2992 25.9055C39.34 25.9055 39.4013 25.9668 39.4831 26.0894ZM24.2784 11.0074C24.2784 11.13 24.1762 11.2526 23.9719 11.3752C23.8493 11.3344 23.7675 11.2322 23.7266 11.0687C23.6858 10.987 23.7266 10.9052 23.8493 10.8235C24.0945 10.8235 24.2375 10.8848 24.2784 11.0074ZM19.6802 7.26754C19.6802 7.34928 19.6189 7.41059 19.4963 7.45147C19.4963 7.45147 19.3737 7.41059 19.1284 7.32885C19.0876 7.12448 19.1693 6.98143 19.3737 6.89969C19.4963 6.89969 19.5985 7.0223 19.6802 7.26754ZM40.4027 27.6835C40.4436 27.6835 40.3618 27.8265 40.1575 28.1126C39.9531 27.9491 39.8509 27.8061 39.8509 27.6835C39.9327 27.5609 40.0349 27.4996 40.1575 27.4996C40.321 27.4996 40.4027 27.5609 40.4027 27.6835ZM41.8128 29.1549C41.8537 29.4001 41.8128 29.5432 41.6902 29.5841C41.6085 29.5841 41.5063 29.5841 41.3837 29.5841C41.3837 29.4614 41.3632 29.2775 41.3224 29.0323C41.5267 29.0323 41.6902 29.0732 41.8128 29.1549ZM43.5295 30.8716C43.5704 31.035 43.4682 31.1781 43.2229 31.3007C43.0594 31.1372 42.9777 30.9942 42.9777 30.8716C43.0594 30.7898 43.1616 30.7489 43.2842 30.7489C43.366 30.7489 43.4477 30.7898 43.5295 30.8716ZM15.7564 3.34375C15.593 3.50725 15.4703 3.56856 15.3886 3.52768C15.3477 3.52768 15.266 3.38463 15.1434 3.09852C15.593 3.05765 15.7973 3.13939 15.7564 3.34375ZM29.3058 17.5062C29.3058 17.6697 29.2445 17.7514 29.1218 17.7514L28.754 17.6288C28.754 17.5062 28.8153 17.3631 28.9379 17.1996C29.1423 17.1587 29.2649 17.2609 29.3058 17.5062ZM27.773 16.1574C27.8139 16.3617 27.7935 16.5048 27.7117 16.5865C27.63 16.5865 27.4869 16.5252 27.2826 16.4026C27.2826 16.4026 27.3847 16.28 27.5891 16.0347C27.7117 16.0347 27.773 16.0756 27.773 16.1574ZM37.6438 26.1507C37.6438 26.2325 37.6234 26.3347 37.5825 26.4573C37.746 26.3756 37.5825 26.3347 37.092 26.3347C37.1329 26.2121 37.2146 26.069 37.3373 25.9055C37.5007 25.8646 37.6029 25.9464 37.6438 26.1507ZM30.4093 18.9776C30.4093 19.0185 30.3685 19.1002 30.2867 19.2228L29.8575 19.1615C29.8575 19.0389 29.9189 18.8754 30.0415 18.671C30.1641 18.671 30.2867 18.7732 30.4093 18.9776ZM42.1194 30.9942C42.0376 31.035 41.8946 31.0759 41.6902 31.1168C41.5267 30.9942 41.5063 30.8511 41.6289 30.6876C41.7515 30.5241 41.8537 30.5037 41.9354 30.6263C42.0581 30.7489 42.1194 30.8716 42.1194 30.9942ZM22.1326 11.13C22.0509 11.3344 21.9282 11.4366 21.7647 11.4366C21.6012 11.2731 21.5604 11.13 21.6421 11.0074C21.7647 10.8439 21.9282 10.8848 22.1326 11.13ZM26.1177 15.4217C26.0359 15.4625 25.9133 15.5034 25.7498 15.5443C25.5455 15.4625 25.5046 15.3399 25.6272 15.1764C25.9133 15.0129 26.0768 14.9925 26.1177 15.1151C26.1177 15.1969 26.1177 15.299 26.1177 15.4217ZM43.4682 32.7721C43.3456 32.9765 43.2229 33.0787 43.1003 33.0787C42.9368 32.9969 42.896 32.813 42.9777 32.5269C43.2638 32.486 43.4273 32.5678 43.4682 32.7721ZM13.8559 3.15983C13.8559 3.28244 13.815 3.36419 13.7332 3.40506H13.3041C13.2632 3.15983 13.3245 2.99634 13.488 2.91459C13.5698 2.87372 13.6924 2.95546 13.8559 3.15983ZM18.7606 8.3711C18.5971 8.53459 18.4132 8.55503 18.2088 8.43241C18.1679 8.18718 18.2292 8.02368 18.3927 7.94194C18.5971 8.02368 18.7197 8.16674 18.7606 8.3711ZM38.9313 28.0513C38.7269 28.4192 38.4613 28.644 38.1343 28.7257C37.8073 28.7666 37.5007 28.644 37.2146 28.3579C36.9285 28.0309 36.8672 27.6835 37.0307 27.3156C37.1533 27.1113 37.3986 26.9273 37.7664 26.7638C38.0934 26.723 38.3795 26.8456 38.6248 27.1317C38.9109 27.4178 39.013 27.7244 38.9313 28.0513ZM31.0224 20.3264C31.0633 20.449 31.002 20.6125 30.8385 20.8169C30.5933 20.6534 30.4706 20.5103 30.4706 20.3877C30.7567 20.0607 30.9407 20.0403 31.0224 20.3264ZM39.7896 29.5228C39.667 29.6454 39.5035 29.7067 39.2992 29.7067C39.1765 29.6249 39.1765 29.5023 39.2992 29.3388L39.4831 29.1549C39.6466 29.1958 39.7487 29.3184 39.7896 29.5228ZM17.5957 7.51278C17.5548 7.63539 17.3709 7.65583 17.0439 7.57408C17.0439 7.41059 17.1257 7.2471 17.2892 7.08361C17.4935 7.16536 17.5957 7.30841 17.5957 7.51278ZM32.0647 22.043C32.1464 22.2474 32.1055 22.4518 31.9421 22.6561C31.7786 22.6561 31.6559 22.5744 31.5742 22.4109C31.6151 22.2883 31.7786 22.1657 32.0647 22.043ZM26.1177 16.3413C26.1177 16.3413 26.0564 16.4843 25.9338 16.7705C25.852 16.7296 25.7294 16.6478 25.5659 16.5252C25.525 16.4026 25.5863 16.3004 25.7498 16.2187C25.8725 16.2187 25.9951 16.2595 26.1177 16.3413ZM40.4027 30.8102C40.4436 30.892 40.4027 30.9942 40.2801 31.1168L39.8509 30.9942C39.8918 30.7898 39.994 30.6263 40.1575 30.5037C40.2801 30.5854 40.3618 30.6876 40.4027 30.8102ZM24.2171 14.8699C24.1354 15.0742 23.9923 15.1151 23.7879 14.9925L23.604 14.7473C23.7266 14.5838 23.8697 14.4816 24.0332 14.4407L24.2171 14.8699ZM41.3224 31.9751C41.0771 32.1386 40.9136 32.1999 40.8319 32.159C40.8319 32.159 40.8114 32.0364 40.7706 31.7912C40.8114 31.6277 40.9136 31.5868 41.0771 31.6686C41.1997 31.7503 41.2815 31.8525 41.3224 31.9751ZM43.6521 34.6114C43.3251 34.6932 43.1616 34.734 43.1616 34.734C43.039 34.6523 43.0186 34.5092 43.1003 34.3049C43.2229 34.1414 43.4069 34.2436 43.6521 34.6114ZM29.1831 20.5103C28.9788 20.5921 28.7949 20.5716 28.6314 20.449C28.6722 20.3264 28.7335 20.1833 28.8153 20.0198C28.9379 20.0198 29.0197 20.0607 29.0605 20.1425C29.1423 20.2242 29.1831 20.3468 29.1831 20.5103ZM20.232 11.6205C20.1503 11.7431 20.089 11.8044 20.0481 11.8044C19.9255 11.8453 19.8028 11.8044 19.6802 11.6818C19.6394 11.6001 19.762 11.457 20.0481 11.2526C20.1298 11.2935 20.1911 11.4161 20.232 11.6205ZM36.6629 27.8674C36.6629 27.99 36.5811 28.1331 36.4176 28.2966C36.1724 28.174 36.0702 28.0309 36.1111 27.8674C36.2337 27.7857 36.3359 27.7448 36.4176 27.7448C36.4994 27.7448 36.5811 27.7857 36.6629 27.8674ZM32.6778 24.0049C32.6778 24.1275 32.6165 24.2297 32.4938 24.3115C32.4121 24.3115 32.2895 24.291 32.126 24.2502C32.126 24.0867 32.1873 23.9232 32.3099 23.7597C32.4325 23.7188 32.5551 23.8006 32.6778 24.0049ZM29.9802 21.4299C29.6941 21.5934 29.5306 21.6547 29.4897 21.6139C29.4079 21.5321 29.4079 21.3891 29.4897 21.1847C29.6532 20.9395 29.8167 21.0212 29.9802 21.4299ZM11.7714 3.09852C11.8122 3.18026 11.7918 3.32332 11.71 3.52768C11.5874 3.52768 11.4239 3.46637 11.2196 3.34375C11.2196 3.22114 11.3218 3.09852 11.5261 2.9759C11.6079 2.9759 11.6896 3.01677 11.7714 3.09852ZM12.9362 4.38601C12.8954 4.50863 12.7727 4.63125 12.5684 4.75386C12.364 4.67212 12.2823 4.50863 12.3231 4.26339C12.4049 4.18165 12.6092 4.22252 12.9362 4.38601ZM37.7664 29.4614C37.7255 29.5841 37.6029 29.6862 37.3986 29.768C37.2351 29.6862 37.1942 29.5228 37.2759 29.2775C37.4394 29.0323 37.6029 29.0936 37.7664 29.4614ZM24.0945 16.4026C24.0945 16.5252 24.0332 16.607 23.9106 16.6478C23.7879 16.6887 23.6653 16.6274 23.5427 16.4639C23.5427 16.423 23.6449 16.3004 23.8493 16.0961C23.9719 16.0961 24.0536 16.1982 24.0945 16.4026ZM30.2867 22.4722C30.2867 22.4722 30.2254 22.6357 30.1028 22.9627C29.8984 22.9218 29.7758 22.7992 29.7349 22.5948C29.7349 22.5539 29.8167 22.4926 29.9802 22.4109C30.0619 22.37 30.1641 22.3905 30.2867 22.4722ZM24.9528 17.5062C24.9528 17.6288 24.8915 17.7105 24.7689 17.7514L24.401 17.6901C24.3602 17.4449 24.4215 17.2814 24.585 17.1996C24.7485 17.1996 24.8711 17.3018 24.9528 17.5062ZM42.4259 35.2245C42.4668 35.3471 42.3646 35.4902 42.1194 35.6537C42.1194 35.6537 42.0581 35.6128 41.9354 35.531V35.1019C42.1398 35.061 42.3033 35.1019 42.4259 35.2245ZM32.8617 25.7216L32.6165 26.1507C32.3712 25.8646 32.2486 25.7216 32.2486 25.7216C32.2895 25.6807 32.3712 25.6194 32.4938 25.5377C32.6165 25.5377 32.7391 25.599 32.8617 25.7216ZM43.4069 36.4507C43.4069 36.5324 43.3456 36.6346 43.2229 36.7572L42.8551 36.6346C42.8551 36.512 42.9368 36.3689 43.1003 36.2054C43.1821 36.1646 43.2842 36.2463 43.4069 36.4507ZM15.5112 8.86158C15.5112 8.98419 15.4703 9.06594 15.3886 9.10681C15.3068 9.10681 15.1638 9.10681 14.9594 9.10681C14.9186 8.86158 14.9799 8.69809 15.1434 8.61634C15.2251 8.57547 15.3477 8.65721 15.5112 8.86158ZM39.4218 32.7108C39.3809 32.8743 39.2583 32.9969 39.0539 33.0787C38.8087 32.9561 38.7678 32.7721 38.9313 32.5269C39.1765 32.5269 39.34 32.5882 39.4218 32.7108ZM28.3861 21.6139C28.427 21.8182 28.3453 21.9613 28.1409 22.043C28.0591 22.0839 27.957 22.043 27.8343 21.9204V21.5526C27.957 21.5117 28.1409 21.5321 28.3861 21.6139ZM18.5767 12.2336C18.3314 12.4379 18.1884 12.5401 18.1475 12.5401C17.984 12.3358 17.9431 12.1723 18.0249 12.0497C18.1475 11.927 18.3314 11.9883 18.5767 12.2336ZM20.8451 15.299C20.7634 15.3808 20.6407 15.3808 20.4772 15.299C20.3138 15.1764 20.2729 15.0742 20.3546 14.9925C20.3546 14.9925 20.4364 14.9312 20.5999 14.8086C20.7225 14.7677 20.8042 14.8086 20.8451 14.9312C20.8451 14.9312 20.8451 15.0538 20.8451 15.299ZM9.13506 3.22114C8.97157 3.46637 8.82851 3.58899 8.7059 3.58899C8.54241 3.50724 8.4811 3.36419 8.52197 3.15983C8.60371 2.99634 8.80808 3.01677 9.13506 3.22114ZM43.6521 38.0447C43.693 38.1265 43.6317 38.2491 43.4682 38.4126C43.3456 38.4534 43.2434 38.433 43.1616 38.3513V37.8608C43.366 37.8608 43.5295 37.9221 43.6521 38.0447ZM32.923 27.6835C32.7186 27.847 32.5756 27.9083 32.4938 27.8674C32.4121 27.7857 32.3712 27.7039 32.3712 27.6222C32.3712 27.5404 32.4121 27.4382 32.4938 27.3156C32.5756 27.2748 32.7186 27.3974 32.923 27.6835ZM28.3861 23.4531C28.2635 23.5349 28.1205 23.5553 27.957 23.5145C27.8343 23.351 27.773 23.2488 27.773 23.2079L28.2022 22.9627C28.3248 23.0853 28.3861 23.2488 28.3861 23.4531ZM41.9354 37.0638L41.8741 37.309C41.7515 37.3499 41.5676 37.309 41.3224 37.1864C41.3632 37.0638 41.4654 36.9207 41.6289 36.7572C41.6698 36.7572 41.772 36.8594 41.9354 37.0638ZM13.3654 8.61634C13.4063 8.73896 13.3858 8.86158 13.3041 8.98419H12.8136C12.7727 8.8207 12.834 8.63678 12.9975 8.43241C13.0793 8.43241 13.2019 8.49372 13.3654 8.61634ZM14.1011 9.41336L13.9785 9.90383C13.6924 9.65859 13.5493 9.53598 13.5493 9.53598C13.7537 9.24987 13.9376 9.20899 14.1011 9.41336ZM31.6968 27.3156C31.7377 27.4382 31.6764 27.52 31.5129 27.5609L31.145 27.4382C31.145 27.3156 31.2268 27.1726 31.3903 27.0091C31.5129 27.0091 31.6151 27.1113 31.6968 27.3156ZM38.5021 34.2436C38.5021 34.3662 38.3999 34.5092 38.1956 34.6727C37.9912 34.5501 37.9095 34.407 37.9503 34.2436C38.0321 34.1618 38.1138 34.1209 38.1956 34.1209C38.3182 34.1209 38.4204 34.1618 38.5021 34.2436ZM20.8451 16.7091C20.559 16.9135 20.4159 17.0157 20.4159 17.0157C20.3751 16.8931 20.3342 16.7296 20.2933 16.5252C20.4159 16.4026 20.5999 16.4639 20.8451 16.7091ZM7.23448 3.22114C7.1936 3.34375 7.07099 3.44594 6.86662 3.52768H6.68269C6.68269 3.36419 6.72357 3.18026 6.80531 2.9759C6.92793 2.9759 7.07099 3.05765 7.23448 3.22114ZM8.58328 4.9991C8.41979 5.08085 8.2563 5.08085 8.0928 4.9991C7.97019 4.87648 8.07237 4.71299 8.39935 4.50863C8.56284 4.71299 8.62415 4.87648 8.58328 4.9991ZM19.7415 15.7895C19.7007 15.8713 19.5985 15.9939 19.435 16.1574C19.2715 16.1165 19.1693 16.0143 19.1284 15.8508C19.2102 15.7691 19.2919 15.6669 19.3737 15.5443C19.4963 15.5851 19.6189 15.6669 19.7415 15.7895ZM32.5551 28.9097C32.5551 29.0323 32.4734 29.114 32.3099 29.1549H32.0034C32.0034 28.9914 32.0851 28.8279 32.2486 28.6644C32.3303 28.6236 32.4325 28.7053 32.5551 28.9097ZM42.4259 38.7804C42.4259 38.7804 42.4055 38.8622 42.3646 39.0257C42.1602 39.0665 42.0172 39.0052 41.9354 38.8417C41.8946 38.8009 41.9354 38.7191 42.0581 38.5965C42.1807 38.5556 42.3033 38.6169 42.4259 38.7804ZM43.7747 40.3132C43.7747 40.3949 43.7338 40.4971 43.6521 40.6197C43.5295 40.5788 43.3864 40.5175 43.2229 40.4358C43.1821 40.2723 43.2638 40.1497 43.4682 40.0679C43.6317 40.027 43.7338 40.1088 43.7747 40.3132ZM26.3016 5.98005C21.0699 6.06179 17.1257 6.45008 14.469 7.14492C15.6134 7.39016 16.3082 7.81932 16.5535 8.43241C15.082 7.90107 13.2836 7.94194 11.1583 8.55503C11.9757 8.88201 12.4253 9.29074 12.5071 9.78121C12.5479 10.0264 12.4866 10.2717 12.3231 10.5169C11.6692 10.1082 10.9335 9.90383 10.116 9.90383C9.01244 9.90383 8.01106 10.1899 7.11186 10.7622C7.97019 10.8439 8.54241 11.0891 8.82851 11.4979C8.99201 11.8657 9.05331 12.1314 9.01244 12.2949C7.70451 12.2131 6.62139 12.8058 5.76306 14.0729C4.61862 15.8304 4.06684 17.7105 4.10771 19.7133C3.78073 19.6724 3.51506 19.5498 3.31069 19.3454C3.47418 17.9558 3.53549 15.8713 3.49462 13.0919C3.41287 12.8875 3.26982 12.6014 3.06546 12.2336C3.51506 12.2336 3.88291 12.4584 4.16902 12.908C4.25077 12.4993 4.20989 11.9883 4.0464 11.3752C3.80117 10.3943 3.49462 8.90245 3.12677 6.89969C3.69898 6.77707 4.20989 7.04274 4.65949 7.6967C4.78211 7.81932 4.92517 8.02368 5.08866 8.3098C5.08866 7.94194 5.19084 7.43103 5.3952 6.77706C5.64044 6.1231 5.76306 5.63263 5.76306 5.30565C5.76306 4.93779 5.70175 4.61081 5.57913 4.3247C6.23309 4.36557 6.68269 4.63125 6.92793 5.12172C7.17317 5.57132 7.29579 6.18441 7.29579 6.96099C8.3176 6.26616 8.91026 5.83699 9.07375 5.6735C9.76859 5.10128 10.1773 4.50863 10.2999 3.89554C10.8722 3.89554 11.2809 4.0999 11.5261 4.50863C11.6487 4.83561 11.7305 5.20346 11.7714 5.61219L16.6761 3.77292C16.6761 4.34514 16.3695 4.89692 15.7564 5.42826L15.9404 5.48958L20.4772 5.24434C22.5618 5.16259 24.5032 5.40783 26.3016 5.98005ZM16.4308 13.3371C16.39 13.378 16.3491 13.4393 16.3082 13.5211C16.0221 13.3576 15.8995 13.235 15.9404 13.1532C15.9812 13.0715 16.1039 13.0102 16.3082 12.9693C16.3491 13.051 16.39 13.1736 16.4308 13.3371ZM31.329 28.971C31.1246 29.1345 30.9611 29.1958 30.8385 29.1549C30.7159 29.0732 30.7159 28.9301 30.8385 28.7257C30.8794 28.5622 30.9815 28.5418 31.145 28.6644C31.1859 28.7053 31.2472 28.8075 31.329 28.971ZM19.3737 17.077L19.3124 17.5062C19.2715 17.5062 19.108 17.4449 18.8219 17.3222C18.8219 17.2814 18.8832 17.1587 19.0058 16.9544C19.2102 16.7909 19.3328 16.8318 19.3737 17.077ZM41.6289 39.7001C41.3428 39.8227 41.1793 39.8636 41.1384 39.8227C41.0567 39.7001 41.0567 39.5774 41.1384 39.4548C41.261 39.1687 41.4245 39.2505 41.6289 39.7001ZM5.21128 3.09852C5.25215 3.26201 5.21128 3.40506 5.08866 3.52768C4.92517 3.60943 4.80255 3.52768 4.7208 3.28245C4.67993 3.15983 4.74124 3.07808 4.90473 3.03721C5.02735 3.03721 5.12953 3.05765 5.21128 3.09852ZM32.4938 30.3811C32.5347 30.5037 32.453 30.6672 32.2486 30.8716C32.0034 30.7081 31.9012 30.565 31.9421 30.4424C31.9421 30.4015 32.0238 30.3402 32.1873 30.2585C32.269 30.2585 32.3712 30.2993 32.4938 30.3811ZM38.0117 36.1441C37.9708 36.2259 37.8277 36.2872 37.5825 36.3281C37.4599 36.2054 37.3986 36.1441 37.3986 36.1441C37.3986 36.0215 37.4599 35.8989 37.5825 35.7763C37.6642 35.7354 37.8073 35.858 38.0117 36.1441ZM43.6521 42.0298C43.6521 42.1524 43.5704 42.3159 43.4069 42.5203C43.2025 42.2342 43.1003 42.0502 43.1003 41.9685C43.3456 41.7233 43.5295 41.7437 43.6521 42.0298ZM42.4872 40.9262C42.5281 41.0489 42.4464 41.2124 42.242 41.4167C42.0376 41.2124 41.9354 41.0489 41.9354 40.9262C42.0581 40.8445 42.1602 40.8036 42.242 40.8036C42.3237 40.8036 42.4055 40.8445 42.4872 40.9262ZM18.0249 17.077C17.984 17.1179 17.9227 17.1792 17.841 17.2609C17.5957 17.2609 17.4527 17.1996 17.4118 17.077C17.4118 16.9544 17.514 16.8318 17.7183 16.7091C17.7183 16.7091 17.8205 16.8318 18.0249 17.077ZM11.5874 10.8848C11.6283 11.0074 11.567 11.13 11.4035 11.2526C11.3218 11.2935 11.24 11.2731 11.1583 11.1913C11.1174 11.0687 11.0765 10.9461 11.0356 10.8235C11.1583 10.7417 11.3422 10.7622 11.5874 10.8848ZM14.9594 14.4407C14.9594 14.4816 14.8981 14.5838 14.7755 14.7473C14.6938 14.7473 14.5711 14.7064 14.4076 14.6246C14.4076 14.502 14.469 14.359 14.5916 14.1955C14.6733 14.1955 14.7959 14.2772 14.9594 14.4407ZM3.12677 3.34375C3.08589 3.50725 2.9224 3.54812 2.63629 3.46637C2.59542 3.4255 2.59542 3.32332 2.63629 3.15983L2.94284 2.9759C2.98371 3.01677 3.04502 3.13939 3.12677 3.34375ZM41.261 41.3554C41.261 41.3554 41.1793 41.478 41.0158 41.7233C40.8523 41.7641 40.7501 41.6824 40.7093 41.478L40.7706 41.2328C40.8932 41.1919 41.0567 41.2328 41.261 41.3554ZM42.6712 42.9495C42.6712 43.1129 42.569 43.2356 42.3646 43.3173C42.2011 43.3173 42.1194 43.256 42.1194 43.1334V42.7655C42.3237 42.7655 42.5077 42.8268 42.6712 42.9495ZM43.5908 43.8691C43.5908 44.0735 43.4886 44.2165 43.2842 44.2983C43.1208 44.2165 43.039 44.0735 43.039 43.8691C43.0799 43.7873 43.1616 43.7465 43.2842 43.7465C43.4069 43.7465 43.509 43.7873 43.5908 43.8691ZM42.3646 33.6918C41.3837 33.7735 40.7093 34.1618 40.3414 34.8566C40.0962 35.3062 39.9735 35.8172 39.9735 36.3894C39.9735 36.5937 40.0553 37.2681 40.2188 38.4126C40.3414 39.2709 40.321 39.9657 40.1575 40.4971C39.9531 41.151 39.994 42.2342 40.2801 43.7465L39.4831 44.6048C38.4204 42.3977 37.3168 41.335 36.1724 41.4167C35.5593 41.4985 35.1506 41.7641 34.9462 42.2137C34.6192 42.8677 34.5783 43.4808 34.8236 44.053C34.1287 43.9713 33.6996 43.6647 33.5361 43.1334C33.3726 42.0298 33.7813 41.1102 34.7623 40.3745C35.498 39.8022 36.4381 39.7818 37.5825 40.3132C37.7869 40.4358 38.073 40.6401 38.4408 40.9262C38.4817 40.7628 38.4408 40.4971 38.3182 40.1292C37.9095 38.903 37.2146 38.0038 36.2337 37.4316C36.3563 37.2273 36.5402 36.9207 36.7855 36.512C37.6029 37.0842 38.3182 37.8812 38.9313 38.903C39.0539 38.7396 39.0743 38.2695 38.9926 37.4929C38.7882 36.6755 38.6861 35.9806 38.6861 35.4084C38.6861 34.5501 38.9313 33.8757 39.4218 33.3852C39.9531 32.8539 40.5866 32.6904 41.3224 32.8948C41.6493 32.9765 41.9968 33.2422 42.3646 33.6918ZM19.8642 20.6329C19.8233 20.6738 19.762 20.7351 19.6802 20.8169C19.435 20.8169 19.2919 20.7555 19.2511 20.6329C19.2511 20.5103 19.3532 20.3877 19.5576 20.2651C19.6802 20.3059 19.7824 20.4286 19.8642 20.6329ZM10.1773 10.7622C10.2182 10.8439 10.1569 10.9665 9.99339 11.13C9.95251 11.1709 9.85033 11.0891 9.68684 10.8848C9.68684 10.8439 9.66641 10.7826 9.62553 10.7008C9.99339 10.5782 10.1773 10.5987 10.1773 10.7622ZM3.73986 4.56994C3.69898 4.69255 3.5968 4.81517 3.43331 4.93779C3.31069 4.97867 3.22895 4.91736 3.18807 4.75386C3.18807 4.67212 3.20851 4.5495 3.24938 4.38601C3.33113 4.34514 3.49462 4.40644 3.73986 4.56994ZM17.4118 18.4258C17.4935 18.5484 17.4527 18.6302 17.2892 18.671C17.1666 18.671 17.0439 18.6915 16.9213 18.7323C16.8804 18.4871 16.9213 18.3032 17.0439 18.1806C17.1666 18.1397 17.2892 18.2214 17.4118 18.4258ZM18.5767 19.5907C18.3723 19.8768 18.1884 19.9585 18.0249 19.8359C17.9431 19.5907 17.9431 19.4272 18.0249 19.3454C18.0658 19.3046 18.2497 19.3863 18.5767 19.5907ZM4.78211 5.79612C4.74124 6.00048 4.67993 6.14354 4.59818 6.22528C4.47557 6.22528 4.35295 6.08223 4.23033 5.79612C4.55731 5.6735 4.74124 5.6735 4.78211 5.79612ZM41.5063 42.8881C41.5063 42.8881 41.4041 43.0312 41.1997 43.3173C41.0362 43.0312 40.9545 42.8881 40.9545 42.8881C40.9954 42.7655 41.0771 42.7042 41.1997 42.7042C41.3224 42.7042 41.4245 42.7655 41.5063 42.8881ZM43.6521 45.5244C43.6521 45.6471 43.5908 45.7697 43.4682 45.8923L43.1003 45.7697C43.1003 45.5244 43.1821 45.3609 43.3456 45.2792C43.509 45.3201 43.6112 45.4018 43.6521 45.5244ZM13.6719 15.483L13.488 15.9734C13.4471 15.9326 13.3245 15.8508 13.1202 15.7282C13.0793 15.6465 13.1406 15.5443 13.3041 15.4217C13.3858 15.3808 13.5084 15.4012 13.6719 15.483ZM20.1094 22.043C20.1503 22.2474 20.0685 22.3905 19.8642 22.4722C19.905 22.4722 19.8437 22.4313 19.6802 22.3496L19.5576 21.9817C19.8437 21.8591 20.0276 21.8795 20.1094 22.043ZM36.6629 38.6578C36.6629 38.7804 36.6015 38.8826 36.4789 38.9644L36.0498 38.8417C36.0498 38.6782 36.1315 38.5556 36.295 38.4739C36.4585 38.3921 36.5811 38.4534 36.6629 38.6578ZM18.7606 21.0621C18.7197 21.3073 18.5971 21.4299 18.3927 21.4299C18.311 21.4708 18.2497 21.4095 18.2088 21.246C18.1679 21.1643 18.1884 21.0417 18.2701 20.8782C18.2701 20.8782 18.4336 20.9395 18.7606 21.0621ZM38.6861 30.3198C38.2773 33.3035 36.7242 36.0624 34.0266 38.5965C31.4925 40.9262 28.6927 42.459 25.6272 43.1947C24.3193 43.5217 22.9909 43.6852 21.6421 43.6852C17.7183 43.6852 14.0807 42.4998 10.7291 40.1292C6.27397 36.9003 4.10771 32.9152 4.23033 28.174C5.37477 28.2966 6.25353 27.9696 6.86662 27.193C7.31622 26.4164 7.43884 25.6194 7.23448 24.8019C6.98924 23.9436 6.41702 23.351 5.51782 23.024C5.02735 22.8605 4.53688 22.8605 4.0464 23.024C4.33251 19.9994 5.74262 17.1792 8.27673 14.5633C10.6882 12.0701 13.4267 10.3739 16.4922 9.47467C19.3124 8.65721 21.826 8.24848 24.0332 8.24848L31.7581 8.3711C32.7799 8.24848 33.8222 8.12587 34.8849 8.00325C35.9476 7.83976 36.7855 7.41059 37.3986 6.71576C37.5621 6.30703 37.5007 5.91874 37.2146 5.55088C37.0103 5.51001 36.8877 5.53045 36.8468 5.61219C36.8468 5.81656 36.7446 6.08223 36.5402 6.40921C36.1315 6.45008 35.8658 6.3479 35.7432 6.10267C35.6615 5.85743 35.6819 5.57132 35.8045 5.24434C35.968 4.91736 36.2541 4.69255 36.6629 4.56994C36.949 4.56994 37.3577 4.65168 37.889 4.81517C38.5839 5.34652 38.7678 6.24572 38.4408 7.51278C38.4408 7.63539 38.3591 7.81932 38.1956 8.06456C38.0321 8.30979 37.9503 8.47328 37.9503 8.55503C37.9503 8.71852 38.0117 8.86158 38.1343 8.98419C38.216 9.31118 38.2569 9.47467 38.2569 9.47467C38.0525 9.51554 37.8073 9.45423 37.5212 9.29074C37.2351 9.12725 37.0307 9.0455 36.9081 9.0455C36.8263 9.0455 36.7242 9.08638 36.6015 9.16812L33.6587 10.1491C34.0674 10.2308 34.5579 10.5987 35.1301 11.2526C35.7432 11.9066 36.2541 12.254 36.6629 12.2949C36.9898 12.3358 37.2964 12.3153 37.5825 12.2336C37.5416 12.5606 37.5416 13.0715 37.5825 13.7663C38.1956 14.7473 38.5021 15.4625 38.5021 15.9121C38.5021 16.28 38.3795 16.607 38.1343 16.8931C37.8073 17.3427 37.2555 17.5062 36.4789 17.3835C36.2746 17.3018 36.0293 17.1179 35.7432 16.8318C35.6206 16.5865 35.6206 16.3413 35.7432 16.0961C35.9067 15.8917 36.0906 15.8099 36.295 15.8508C36.4585 16.0143 36.6015 16.1778 36.7242 16.3413C36.8877 16.5048 37.0512 16.5457 37.2146 16.4639C37.3373 16.3413 37.3986 16.1982 37.3986 16.0347C37.3986 15.8713 37.2759 15.6465 37.0307 15.3603C36.7855 15.0334 36.6424 14.829 36.6015 14.7473C33.8222 11.6001 29.8575 10.0265 24.7076 10.0265C23.8901 10.0265 23.0318 10.0673 22.1326 10.1491C19.6394 10.3943 17.2687 11.3548 15.0207 13.0306C12.8136 14.6655 11.2809 16.6683 10.4226 19.0389C9.6051 21.246 9.19637 23.5553 9.19637 25.9668C9.19637 31.1577 10.8108 35.3471 14.0398 38.5352C16.0834 40.538 18.6175 41.5393 21.6421 41.5393C22.7866 41.5393 23.931 41.3758 25.0754 41.0489C27.2008 40.3949 29.0401 39.0461 30.5933 37.0025C32.0238 35.0814 32.9026 32.9765 33.2295 30.6876C33.393 29.6658 33.4748 28.644 33.4748 27.6222C33.4748 23.4531 32.269 19.9177 29.8575 17.0157C27.9774 14.7677 25.709 13.6437 23.0522 13.6437C21.4991 13.6437 20.0481 14.032 18.6993 14.8086C17.2279 15.6669 16.2674 16.7909 15.8178 18.1806C15.6543 18.7119 15.7769 19.1819 16.1856 19.5907C16.39 19.8359 16.7987 20.0403 17.4118 20.2038C17.2892 20.4081 17.0644 20.6329 16.7374 20.8782C16.2878 21.0417 15.8586 20.9395 15.4499 20.5716C14.7142 19.9177 14.3463 19.1002 14.3463 18.1193C14.3463 17.7105 14.4281 17.3222 14.5916 16.9544L14.5303 16.8931C14.1215 17.3427 13.6924 17.8331 13.2428 18.3645C12.7932 18.855 12.3231 19.1819 11.8327 19.3454C11.6692 19.3454 11.4239 19.2841 11.097 19.1615L15.266 15.0538C17.2687 13.0919 19.9663 12.111 23.3588 12.111C25.525 12.111 27.5278 12.5197 29.3671 13.3371C31.7786 14.4407 33.8222 16.0143 35.498 18.0579C37.3781 20.3059 38.3591 22.6561 38.4408 25.1085C37.3373 25.0676 36.5198 25.5172 35.9885 26.4573C35.4571 27.3565 35.5184 28.3374 36.1724 29.4001C36.7855 30.1767 37.6234 30.4833 38.6861 30.3198ZM30.4093 33.3239C30.4093 33.4465 30.2867 33.5487 30.0415 33.6305C29.8371 33.5487 29.7962 33.3852 29.9189 33.14C30.0823 32.8539 30.2458 32.9152 30.4093 33.3239ZM31.5742 34.4888C31.5742 34.5705 31.5333 34.6727 31.4516 34.7953C31.4516 34.7953 31.3085 34.7545 31.0224 34.6727C31.0224 34.5501 31.0837 34.407 31.2063 34.2436C31.329 34.2436 31.4516 34.3253 31.5742 34.4888ZM3.12677 6.16397C3.12677 6.28659 3.04502 6.36834 2.88153 6.40921C2.67717 6.45008 2.57498 6.38877 2.57498 6.22528C2.57498 6.06179 2.61586 5.93917 2.6976 5.85743C2.86109 5.85743 3.00415 5.95961 3.12677 6.16397ZM41.8128 44.9727C41.772 45.1361 41.6902 45.2792 41.5676 45.4018C41.5267 45.4018 41.4858 45.4018 41.445 45.4018C41.2406 45.3201 41.1997 45.1361 41.3224 44.85C41.5267 44.85 41.6902 44.8909 41.8128 44.9727ZM43.6521 47.2411C43.6112 47.4046 43.4682 47.425 43.2229 47.3024C43.2229 47.2615 43.1821 47.2411 43.1003 47.2411C43.1412 47.1185 43.2229 46.9754 43.3456 46.8119C43.4273 46.7711 43.5295 46.8119 43.6521 46.9345C43.6521 47.0163 43.6521 47.1185 43.6521 47.2411ZM35.3754 39.087C35.4162 39.2096 35.3345 39.3322 35.1301 39.4548C35.0484 39.4957 34.9462 39.3935 34.8236 39.1483L34.8849 38.9644C35.1301 38.9235 35.2936 38.9644 35.3754 39.087ZM18.6993 22.3496C18.6993 22.4722 18.6175 22.6153 18.454 22.7787C18.3314 22.7787 18.2292 22.6357 18.1475 22.3496C18.4336 22.1452 18.6175 22.1452 18.6993 22.3496ZM28.2022 32.7721C27.957 32.9356 27.7935 32.9969 27.7117 32.9561C27.6709 32.8743 27.6709 32.7313 27.7117 32.5269C27.8343 32.3634 27.9978 32.4452 28.2022 32.7721ZM12.4458 17.077C12.1188 17.2814 11.9553 17.3835 11.9553 17.3835C11.8327 17.3018 11.8327 17.1383 11.9553 16.8931C11.9962 16.8113 12.1596 16.8726 12.4458 17.077ZM29.3058 33.7531C29.3058 33.7531 29.2445 33.9166 29.1218 34.2436C28.9175 34.2027 28.7949 34.0801 28.754 33.8757C28.7131 33.794 28.7744 33.7326 28.9379 33.6918C29.0197 33.6509 29.1423 33.6713 29.3058 33.7531ZM8.58328 13.1532C8.58328 13.2758 8.52197 13.3985 8.39935 13.5211C8.19499 13.5619 8.07237 13.5006 8.0315 13.3371C7.99062 13.0919 8.05193 12.9693 8.21542 12.9693C8.33804 12.9693 8.46066 13.0306 8.58328 13.1532ZM17.0439 21.7978C17.0439 21.7978 17.0031 21.9409 16.9213 22.227C16.7987 22.227 16.6556 22.1657 16.4922 22.043C16.4513 21.9204 16.5126 21.7978 16.6761 21.6752C16.7987 21.6752 16.9213 21.7161 17.0439 21.7978ZM30.1641 35.0406C30.205 35.1223 30.1437 35.2449 29.9802 35.4084C29.9393 35.3676 29.878 35.3676 29.7962 35.4084C29.7962 35.4084 29.7554 35.2245 29.6736 34.8566C29.9189 34.8566 30.0823 34.918 30.1641 35.0406ZM21.029 26.0894C20.9064 26.2938 20.7838 26.396 20.6612 26.396C20.4977 26.3551 20.4568 26.1712 20.5386 25.8442C20.6203 25.8033 20.7838 25.8851 21.029 26.0894ZM41.3837 46.5054C41.3837 46.5054 41.3019 46.5871 41.1384 46.7506C40.9749 46.7915 40.8728 46.7506 40.8319 46.628C40.8319 46.4645 40.8932 46.3215 41.0158 46.1988C41.0976 46.158 41.2202 46.2601 41.3837 46.5054ZM38.0117 42.9495C38.0525 43.0721 37.9708 43.2356 37.7664 43.4399C37.5621 43.2764 37.4599 43.1334 37.4599 43.0108C37.5416 42.9699 37.6438 42.9086 37.7664 42.8268C37.9299 43.0312 38.0117 43.0721 38.0117 42.9495ZM42.4872 47.4863C42.4872 47.6089 42.4259 47.7316 42.3033 47.8542C42.1807 47.8951 42.0581 47.8951 41.9354 47.8542V47.3637C42.1398 47.3228 42.3237 47.3637 42.4872 47.4863ZM31.9421 33.2013C31.5742 33.1196 31.0633 32.8743 30.4093 32.4656C29.7962 32.0569 29.2853 31.8116 28.8766 31.7299C27.6504 31.6481 26.833 31.9138 26.4242 32.5269C26.0564 33.14 26.1177 33.8144 26.6082 34.5501C26.9351 35.0814 27.5074 35.4493 28.3248 35.6537C28.4066 36.1441 28.2022 36.5529 27.7117 36.8798C27.2213 37.0842 26.7921 37.0229 26.4242 36.6959C26.2199 36.5324 25.9338 36.2259 25.5659 35.7763C25.0754 37.9017 24.1149 39.2709 22.6844 39.884C22.1122 40.1292 21.4991 40.0679 20.8451 39.7001C22.4391 38.9644 23.3179 37.4725 23.4814 35.2245C22.8274 36.2872 21.7239 36.8185 20.1707 36.8185C19.7211 36.8185 19.2306 36.7777 18.6993 36.6959C18.7402 36.1237 19.0263 35.715 19.5576 35.4697C20.8247 35.1019 21.6626 34.7953 22.0713 34.5501C22.9705 34.0596 23.4814 33.3648 23.604 32.4656C24.0536 31.689 25.1572 31.0146 26.9147 30.4424V30.3811C25.8929 29.9724 24.8302 29.768 23.7266 29.768C21.6421 29.768 19.9868 30.422 18.7606 31.7299C17.7388 32.7926 17.2279 33.8553 17.2279 34.918C17.2279 35.3676 17.33 35.7967 17.5344 36.2054C17.8614 36.8594 18.3519 37.3499 19.0058 37.6769C18.3927 38.2082 17.9431 38.4534 17.657 38.4126C16.8396 38.2491 16.206 37.4929 15.7564 36.1441C15.3068 37.0025 14.8777 37.6156 14.469 37.9834L13.9785 37.4929C14.5916 36.7981 15.2251 35.715 15.8791 34.2436C16.0834 35.2245 16.2469 35.8785 16.3695 36.2054C16.6148 36.9003 17.0235 37.4112 17.5957 37.7382L17.657 37.6769C16.9213 36.7777 16.5535 35.6741 16.5535 34.3662C16.5535 33.4261 16.7783 32.5678 17.2279 31.7912C18.4949 29.5432 20.3546 28.4192 22.807 28.4192C23.134 28.4192 23.461 28.4396 23.7879 28.4805C25.3411 28.5622 27.6913 29.6249 30.8385 31.6686C31.329 31.7912 31.5742 31.8525 31.5742 31.8525C29.5714 30.2993 28.5701 28.4396 28.5701 26.2734C28.5701 25.8238 28.6314 25.3742 28.754 24.9246L28.6927 24.8633C28.2431 25.272 28.0387 26.3142 28.0796 27.99C26.4038 25.9055 25.4024 23.2897 25.0754 20.1425C24.9119 20.6329 24.8302 21.1643 24.8302 21.7365C24.8302 22.7174 25.1367 23.9436 25.7498 25.415L26.179 26.5799C24.1762 24.0867 22.807 21.1234 22.0713 17.6901C21.826 18.5075 21.9078 19.652 22.3165 21.1234C21.826 20.6329 21.3969 20.4286 21.029 20.5103C22.1735 21.6547 23.4201 23.3714 24.7689 25.6603C23.461 25.1289 22.6639 24.8633 22.3778 24.8633C22.1735 24.8633 21.9691 24.9041 21.7647 24.9859V25.0472C23.8493 25.5377 25.6068 26.6617 27.0373 28.4192C25.8111 28.174 24.6463 28.0513 23.5427 28.0513L19.0671 28.1126C18.7402 28.0718 18.2497 28.0513 17.5957 28.0513C17.7183 28.2148 18.2906 28.4805 19.3124 28.8484C17.9636 30.0337 16.4513 30.8102 14.7755 31.1781C15.0207 31.3007 15.7156 31.2598 16.86 31.0555C16.2878 31.7094 15.736 32.7108 15.2047 34.0596C14.6324 35.5719 14.142 36.5937 13.7332 37.1251C13.4063 37.0025 13.2836 36.7777 13.3654 36.4507C13.4471 35.8376 13.488 35.5515 13.488 35.5924C13.9785 34.0392 14.6938 32.7721 15.6338 31.7912L15.5725 31.7299C14.5098 32.2204 13.6924 32.343 13.1202 32.0977C12.0575 31.689 11.4852 30.7898 11.4035 29.4001C11.4444 28.6644 11.6896 28.1535 12.1392 27.8674L12.5071 27.7448C12.5479 28.317 12.6092 28.7462 12.691 29.0323C12.8136 29.441 13.0588 29.768 13.4267 30.0132C13.7946 30.2585 14.2033 30.3811 14.6529 30.3811C15.4295 30.3811 16.3082 30.0132 17.2892 29.2775C16.3082 29.0732 15.7564 28.7053 15.6338 28.174C15.5521 27.8061 15.7156 27.4382 16.1243 27.0704C16.533 27.3974 17.0235 27.5609 17.5957 27.5609C17.9636 27.5609 18.5971 27.4382 19.4963 27.193C20.3955 26.9478 21.0903 26.8456 21.5808 26.8865C22.2348 27.0091 23.3179 27.2748 24.8302 27.6835H24.8915C24.1558 27.2748 23.4405 26.8865 22.7457 26.5186C21.9282 26.0281 21.2743 25.4763 20.7838 24.8633C20.089 24.4545 19.2306 24.3523 18.2088 24.5567C18.2906 24.1889 18.5971 23.7393 19.1284 23.2079C19.7007 23.0853 20.6407 23.2488 21.9487 23.6984C22.0713 23.5758 22.0713 23.3918 21.9487 23.1466C21.1721 22.4518 20.5999 21.4095 20.232 20.0198C19.9868 19.325 19.4759 18.9776 18.6993 18.9776C18.6993 18.6097 18.9036 18.2827 19.3124 17.9966C19.8028 17.7923 20.3546 17.8945 20.9677 18.3032L21.3356 18.7323C21.3356 17.9149 21.356 17.1179 21.3969 16.3413C21.5195 15.4012 21.9487 14.829 22.6844 14.6246C22.7252 16.75 23.3792 18.4871 24.6463 19.8359C24.728 18.8141 25.0959 18.1601 25.7498 17.874C26.7717 17.4244 27.6504 17.4857 28.3861 18.0579C28.7949 18.3849 29.0401 18.7937 29.1218 19.2841C28.1409 19.1206 27.3847 19.4067 26.8534 20.1425C26.7717 20.4286 26.7308 20.7555 26.7308 21.1234C26.7308 21.573 26.8534 22.227 27.0986 23.0853C27.3439 23.9436 27.4869 24.5567 27.5278 24.9246C27.8548 24.5976 28.3861 24.2093 29.1218 23.7597C30.0619 23.6779 30.7772 24.0049 31.2677 24.7406C31.5129 25.3537 31.4925 25.8646 31.2063 26.2734C31.0429 26.1507 30.8385 26.069 30.5933 26.0281C30.2254 26.069 29.9802 26.2734 29.8575 26.6412C29.7349 26.9682 29.6736 27.3156 29.6736 27.6835C29.6736 29.1549 30.4298 30.6059 31.9421 32.0364V33.2013ZM2.6976 7.94194L2.57498 8.3711C2.41149 8.3711 2.26844 8.30979 2.14582 8.18717C2.10495 8.06456 2.18669 7.94194 2.39106 7.81932C2.55455 7.77845 2.65673 7.81932 2.6976 7.94194ZM39.9122 45.2792C39.9531 45.3609 39.8918 45.4836 39.7283 45.6471C39.6057 45.6879 39.5035 45.6675 39.4218 45.5857V45.1566C39.6261 45.1157 39.7896 45.1566 39.9122 45.2792ZM36.8468 42.2751C36.8468 42.4385 36.765 42.5612 36.6015 42.6429C36.4789 42.6838 36.3767 42.602 36.295 42.3977L36.3563 42.1524C36.6015 42.1116 36.765 42.1524 36.8468 42.2751ZM17.9023 23.821C17.7388 23.9027 17.5753 23.9027 17.4118 23.821C17.3709 23.7801 17.3505 23.6984 17.3505 23.5758L17.7183 23.3305C17.8818 23.5349 17.9431 23.6984 17.9023 23.821ZM24.8302 30.3198C24.8302 30.4424 24.7485 30.6059 24.585 30.8102C24.5032 30.7285 24.3806 30.6059 24.2171 30.4424C24.3397 30.1154 24.5441 30.0745 24.8302 30.3198ZM15.7564 21.5526C15.7564 21.7161 15.6747 21.8387 15.5112 21.9204C15.3886 21.9613 15.2864 21.9 15.2047 21.7365C15.2455 21.4913 15.3068 21.3686 15.3886 21.3686C15.4295 21.4095 15.4908 21.4504 15.5725 21.4913C15.6543 21.4913 15.7156 21.5117 15.7564 21.5526ZM27.773 34.3049C27.6095 34.3866 27.4665 34.3049 27.3439 34.0596C27.3439 33.9779 27.4256 33.8961 27.5891 33.8144L27.773 33.7531C27.773 34.1209 27.773 34.3049 27.773 34.3049ZM34.0879 40.1292C34.1287 40.2518 34.047 40.4153 33.8426 40.6197C33.5565 40.4153 33.4748 40.2518 33.5974 40.1292C33.8426 40.0066 34.0061 40.0066 34.0879 40.1292ZM19.3124 25.7829C19.2306 25.8646 19.0671 25.8851 18.8219 25.8442C18.781 25.8033 18.7606 25.7216 18.7606 25.599L19.1284 25.3537C19.2511 25.6398 19.3124 25.7829 19.3124 25.7829ZM7.4184 14.1955C7.4184 14.359 7.3571 14.4816 7.23448 14.5633C7.23448 14.5633 7.11186 14.4611 6.86662 14.2568C6.82575 14.175 6.9075 14.0933 7.11186 14.0115C7.23448 14.0115 7.33666 14.0729 7.4184 14.1955ZM29.8575 36.7572C29.8167 36.839 29.6941 36.9207 29.4897 37.0025C29.3671 37.0433 29.3058 37.0025 29.3058 36.8798C29.2649 36.6346 29.3262 36.4916 29.4897 36.4507C29.5306 36.4507 29.6532 36.5529 29.8575 36.7572ZM2.82022 9.59728C2.82022 9.7199 2.77935 9.8834 2.6976 10.0878C2.49324 10.0469 2.37062 9.98558 2.32975 9.90383C2.28887 9.86296 2.37062 9.74034 2.57498 9.53598C2.6976 9.4951 2.77935 9.51554 2.82022 9.59728ZM40.648 47.5476C40.7706 47.7111 40.6888 47.8337 40.4027 47.9155C40.2801 47.9564 40.1984 47.8951 40.1575 47.7316C40.1575 47.6498 40.2188 47.5272 40.3414 47.3637C40.3414 47.3637 40.4436 47.425 40.648 47.5476ZM38.073 45.2179C38.073 45.2588 37.9708 45.2996 37.7664 45.3405C37.6847 45.2588 37.6029 45.1361 37.5212 44.9727C37.5621 44.9318 37.7051 44.8705 37.9503 44.7887C38.073 44.8705 38.1138 45.0135 38.073 45.2179ZM36.7242 43.6852C36.7242 43.6852 36.6424 43.8487 36.4789 44.1756C36.2746 44.0121 36.1724 43.8487 36.1724 43.6852C36.2541 43.6443 36.3563 43.6239 36.4789 43.6239C36.5607 43.6239 36.6424 43.6443 36.7242 43.6852ZM14.5303 20.3264C14.1624 21.0621 13.488 22.0635 12.5071 23.3305C12.1801 22.4313 11.9757 21.2051 11.894 19.652C12.6706 19.3659 13.345 18.8754 13.9172 18.1806C13.8763 18.9163 14.0807 19.6315 14.5303 20.3264ZM23.9106 31.1168C23.9514 31.3212 23.8697 31.4642 23.6653 31.546C23.5427 31.5868 23.461 31.5255 23.4201 31.362V31.0555C23.5427 31.0146 23.7062 31.035 23.9106 31.1168ZM39.2378 46.9345C39.0744 46.9754 38.9109 46.9345 38.7474 46.8119C38.7474 46.7302 38.7678 46.628 38.8087 46.5054L39.1765 46.3828C39.2992 46.5463 39.3196 46.7302 39.2378 46.9345ZM16.063 23.3305L16.0017 23.5145C15.8382 23.6779 15.7156 23.7393 15.6338 23.6984C15.5521 23.6575 15.5112 23.5145 15.5112 23.2692C15.5521 23.1466 15.736 23.167 16.063 23.3305ZM17.4118 24.9246C17.4527 24.9654 17.4322 25.0267 17.3505 25.1085H16.86C16.86 24.9859 16.9213 24.8224 17.0439 24.618C17.2074 24.5771 17.33 24.6793 17.4118 24.9246ZM3.24938 11.6205C3.16764 11.784 3.00415 11.8044 2.75891 11.6818C2.63629 11.6409 2.61586 11.5387 2.6976 11.3752L3.00415 11.1913C3.20851 11.3957 3.29026 11.5387 3.24938 11.6205ZM14.7142 23.1466C14.5916 23.2283 14.4485 23.2283 14.285 23.1466L14.1624 22.9627C14.2033 22.7992 14.3463 22.6766 14.5916 22.5948C14.7142 22.8401 14.7551 23.024 14.7142 23.1466ZM17.657 26.0894C17.657 26.1712 17.5957 26.3142 17.4731 26.5186C17.3096 26.4777 17.187 26.396 17.1052 26.2734C17.0644 26.1099 17.1257 26.0077 17.2892 25.9668C17.4118 25.9259 17.5344 25.9668 17.657 26.0894ZM32.923 41.662C32.6778 41.8255 32.5143 41.8868 32.4325 41.8459C32.3508 41.6824 32.3508 41.5393 32.4325 41.4167C32.5551 41.2941 32.7186 41.3758 32.923 41.662ZM36.295 45.1566C36.3359 45.2383 36.2541 45.3814 36.0498 45.5857C35.9271 45.5857 35.8454 45.5449 35.8045 45.4631V44.9727C36.0089 44.9727 36.1724 45.034 36.295 45.1566ZM22.4391 31.3007C22.4391 31.4233 22.3983 31.5051 22.3165 31.546C22.2348 31.546 22.0917 31.5051 21.8874 31.4233C21.8465 31.2598 21.9282 31.1372 22.1326 31.0555C22.2961 30.9737 22.3983 31.0555 22.4391 31.3007ZM37.3986 46.3215C37.3986 46.4032 37.2964 46.5258 37.092 46.6893C36.9694 46.7302 36.8877 46.6689 36.8468 46.5054V46.1375C37.0103 46.0967 37.1942 46.158 37.3986 46.3215ZM15.7564 24.9859C15.7973 25.1902 15.736 25.3333 15.5725 25.415C15.5316 25.4559 15.4295 25.3946 15.266 25.2311C15.1842 25.0676 15.2251 24.9654 15.3886 24.9246C15.5112 24.9246 15.6338 24.945 15.7564 24.9859ZM11.3422 20.6942C11.3422 20.8169 11.2809 20.9395 11.1583 21.0621L10.8517 21.0008C10.8108 20.7964 10.8517 20.6329 10.9743 20.5103C11.1378 20.4694 11.2604 20.5307 11.3422 20.6942ZM6.19222 15.6056C6.23309 15.7691 6.21266 15.8917 6.13091 15.9734H5.70175C5.66088 15.7691 5.70175 15.5851 5.82437 15.4217C5.90611 15.4217 6.02873 15.483 6.19222 15.6056ZM38.1343 47.7929C38.0934 47.9564 38.0525 48.0381 38.0117 48.0381C37.889 48.0381 37.746 47.9768 37.5825 47.8542C37.5416 47.7316 37.6438 47.6089 37.889 47.4863C38.0117 47.4455 38.0934 47.5476 38.1343 47.7929ZM22.7457 32.4043C22.7048 32.6495 22.6231 32.813 22.5004 32.8948C22.2961 32.7313 22.1939 32.5882 22.1939 32.4656C22.3165 32.1795 22.5004 32.159 22.7457 32.4043ZM28.2022 38.1673C28.1613 38.2082 28.1 38.2695 28.0183 38.3513C27.8957 38.3513 27.7526 38.2695 27.5891 38.106C27.5482 37.9834 27.6095 37.9017 27.773 37.8608C27.9774 37.6973 28.1205 37.7995 28.2022 38.1673ZM14.0398 24.2502C14.0807 24.3319 14.0602 24.3932 13.9785 24.4341H13.488C13.488 24.3115 13.5493 24.148 13.6719 23.9436C13.7946 23.9436 13.9172 24.0458 14.0398 24.2502ZM2.88153 13.1532C2.88153 13.2758 2.82022 13.378 2.6976 13.4598C2.41149 13.4189 2.28887 13.3371 2.32975 13.2145C2.32975 13.1328 2.37062 13.051 2.45237 12.9693C2.61586 12.9284 2.75891 12.9897 2.88153 13.1532ZM32.8004 43.3786C32.8821 43.6647 32.8617 43.8487 32.7391 43.9304C32.6165 43.9713 32.4734 43.91 32.3099 43.7465C32.269 43.583 32.4325 43.4604 32.8004 43.3786ZM26.6695 37.8608C26.7103 37.9017 26.6899 37.9834 26.6082 38.106C26.4447 38.1469 26.3016 38.0856 26.179 37.9221C26.1381 37.8404 26.2403 37.7177 26.4855 37.5542C26.6082 37.5134 26.6695 37.6156 26.6695 37.8608ZM33.9039 44.7887C33.9039 44.8296 33.8222 44.9931 33.6587 45.2792C33.4135 44.9931 33.3113 44.8296 33.3522 44.7887C33.5974 44.5435 33.7813 44.5435 33.9039 44.7887ZM31.2063 42.3977C31.2063 42.5203 31.145 42.602 31.0224 42.6429L30.6546 42.5816C30.6954 42.4181 30.7772 42.2546 30.8998 42.0911C31.0633 42.132 31.1655 42.2342 31.2063 42.3977ZM15.5112 26.5799C15.4703 26.7434 15.3886 26.866 15.266 26.9478C15.1842 26.9886 15.082 26.9069 14.9594 26.7025C14.9594 26.6617 14.939 26.6004 14.8981 26.5186C15.266 26.4777 15.4703 26.4982 15.5112 26.5799ZM21.029 32.159C21.029 32.3634 20.9268 32.486 20.7225 32.5269C20.5999 32.5678 20.5181 32.4656 20.4772 32.2204C20.4364 32.0977 20.4772 32.016 20.5999 31.9751C20.7634 31.9751 20.9064 32.0364 21.029 32.159ZM34.8849 46.1375C34.9258 46.2193 34.9053 46.3419 34.8236 46.5054C34.8645 46.5054 34.701 46.4441 34.3331 46.3215C34.374 46.2397 34.4557 46.1171 34.5783 45.9536C34.701 45.9536 34.8031 46.0149 34.8849 46.1375ZM10.7291 22.043L10.6678 22.4722C10.3817 22.4313 10.2182 22.3291 10.1773 22.1657C10.2591 22.043 10.3612 21.9613 10.4839 21.9204C10.6474 21.9204 10.7291 21.9613 10.7291 22.043ZM21.7647 33.5078C21.8056 33.6713 21.7443 33.7531 21.5808 33.7531L21.213 33.6918C21.2538 33.61 21.3151 33.467 21.3969 33.2626C21.5604 33.2217 21.683 33.3035 21.7647 33.5078ZM36.1111 47.7929C36.1111 47.8337 36.0498 47.9359 35.9271 48.0994C35.8045 48.0994 35.6819 48.0585 35.5593 47.9768L35.6206 47.6089C35.8658 47.5681 36.0293 47.6294 36.1111 47.7929ZM11.7714 23.3918C11.7714 23.5145 11.71 23.6575 11.5874 23.821C11.5057 23.8619 11.3831 23.7393 11.2196 23.4531C11.2196 23.3714 11.24 23.3305 11.2809 23.3305C11.3218 23.3305 11.3626 23.3305 11.4035 23.3305C11.4852 23.2897 11.6079 23.3101 11.7714 23.3918ZM13.9172 25.9668C13.8354 26.1303 13.6924 26.1507 13.488 26.0281C13.3654 25.8646 13.3041 25.7829 13.3041 25.7829L13.6719 25.5377C13.7946 25.5785 13.8763 25.7216 13.9172 25.9668ZM5.3952 17.5062C5.3952 17.6697 5.33389 17.7718 5.21128 17.8127C5.12953 17.8127 4.98648 17.7718 4.78211 17.6901C4.78211 17.4857 4.88429 17.3427 5.08866 17.2609C5.08866 17.2609 5.19084 17.3427 5.3952 17.5062ZM31.5129 43.8691C31.4311 43.9917 31.2677 44.0735 31.0224 44.1143C30.8998 44.0326 30.8998 43.8895 31.0224 43.6852C31.2268 43.3582 31.3903 43.4195 31.5129 43.8691ZM26.9147 39.2709C26.9556 39.3526 26.9351 39.4753 26.8534 39.6388C26.8534 39.6388 26.6899 39.5979 26.3629 39.5161C26.4038 39.3526 26.4855 39.23 26.6082 39.1483C26.7308 39.0257 26.833 39.0665 26.9147 39.2709ZM2.88153 15.4217C2.84066 15.5034 2.73847 15.626 2.57498 15.7895C2.49324 15.8304 2.39106 15.7282 2.26844 15.483C2.30931 15.2377 2.41149 15.156 2.57498 15.2377C2.65673 15.2377 2.75891 15.299 2.88153 15.4217ZM12.2005 24.7406C12.2005 24.9041 12.1392 25.0676 12.0166 25.2311C11.7305 25.0676 11.6079 24.9246 11.6487 24.8019C11.7305 24.7611 11.8531 24.6998 12.0166 24.618C12.0575 24.618 12.1188 24.6589 12.2005 24.7406ZM25.8725 38.7804C25.7907 38.9848 25.6477 39.087 25.4433 39.087C25.3207 39.0461 25.2798 38.8622 25.3207 38.5352C25.4842 38.5352 25.6681 38.6169 25.8725 38.7804ZM14.0398 27.3156C13.9172 27.52 13.7332 27.5609 13.488 27.4382C13.4471 27.1521 13.5084 26.9682 13.6719 26.8865C13.7946 26.9682 13.9172 27.1113 14.0398 27.3156ZM32.7391 46.2601C32.6982 46.3828 32.5756 46.4032 32.3712 46.3215C32.2486 46.1988 32.2077 46.0762 32.2486 45.9536C32.2486 45.9536 32.3917 45.8923 32.6778 45.7697C32.7186 45.8105 32.7391 45.974 32.7391 46.2601ZM19.4963 33.2013C19.4554 33.2422 19.3124 33.2217 19.0671 33.14C19.0671 33.0991 19.0263 33.0378 18.9445 32.9561C18.9445 32.9561 19.0876 32.8539 19.3737 32.6495C19.4963 32.9765 19.5372 33.1604 19.4963 33.2013ZM10.5452 23.8823C10.4634 24.0867 10.3817 24.2093 10.2999 24.2502C10.2591 24.2502 10.1569 24.148 9.99339 23.9436C9.95251 23.7801 10.0138 23.6984 10.1773 23.6984C10.2999 23.6984 10.4226 23.7597 10.5452 23.8823ZM14.7755 28.5418C14.7346 28.6644 14.5916 28.6849 14.3463 28.6031C14.1828 28.5214 14.1624 28.3988 14.285 28.2353L14.5916 28.0513C14.7551 28.2557 14.8164 28.4192 14.7755 28.5418ZM15.7564 29.0936C15.7973 29.2571 15.7564 29.4001 15.6338 29.5228C15.4295 29.5228 15.2864 29.441 15.2047 29.2775C15.2047 29.1549 15.2864 29.0527 15.4499 28.971C15.5316 28.971 15.6338 29.0118 15.7564 29.0936ZM34.0266 48.0381C33.9857 48.0381 33.9244 48.0585 33.8426 48.0994C33.6383 48.0585 33.5157 47.9768 33.4748 47.8542C33.4748 47.7316 33.6383 47.6089 33.9653 47.4863C34.0879 47.6498 34.1083 47.8337 34.0266 48.0381ZM20.3546 34.1209C20.0685 34.3253 19.905 34.4275 19.8642 34.4275C19.7824 34.1822 19.762 34.0188 19.8028 33.937C19.9255 33.8144 20.1094 33.8757 20.3546 34.1209ZM31.4516 45.2179C31.4516 45.2996 31.3698 45.4223 31.2063 45.5857C31.1655 45.5449 31.1246 45.5449 31.0837 45.5857C30.8794 45.504 30.8385 45.3201 30.9611 45.034C31.2063 44.9931 31.3698 45.0544 31.4516 45.2179ZM12.3231 26.2121C12.2823 26.0486 12.2414 26.2121 12.2005 26.7025C12.2005 26.7025 12.0575 26.6208 11.7714 26.4573C11.7714 26.2121 11.894 26.0894 12.1392 26.0894C12.221 26.0894 12.2823 26.1303 12.3231 26.2121ZM29.3058 43.256C29.2649 43.3786 29.1831 43.5012 29.0605 43.6239C28.9379 43.6647 28.8357 43.5625 28.754 43.3173V43.1334C28.9175 43.0925 29.1014 43.1334 29.3058 43.256ZM10.7291 25.2311L10.6678 25.599C10.5043 25.599 10.3408 25.5377 10.1773 25.415C10.1773 25.2924 10.2795 25.1698 10.4839 25.0472C10.6065 25.0063 10.6882 25.0676 10.7291 25.2311ZM25.2594 39.9453C25.2594 40.027 25.1572 40.1088 24.9528 40.1905C24.8302 40.2314 24.7485 40.1905 24.7076 40.0679C24.6667 39.8227 24.728 39.6796 24.8915 39.6388C24.9324 39.6388 25.055 39.7409 25.2594 39.9453ZM2.82022 17.5062C2.77935 17.6288 2.61586 17.7105 2.32975 17.7514C2.32975 17.7514 2.30931 17.6083 2.26844 17.3222C2.30931 17.2405 2.45237 17.2405 2.6976 17.3222C2.73847 17.3631 2.77935 17.4244 2.82022 17.5062ZM14.5303 29.2775C14.5303 29.3184 14.4485 29.4206 14.285 29.5841C14.1624 29.6249 14.0602 29.5432 13.9785 29.3388C13.9785 29.3388 14.0807 29.2366 14.285 29.0323C14.4076 29.0732 14.4894 29.1549 14.5303 29.2775ZM29.8575 44.9727C29.8984 45.0953 29.7962 45.2383 29.551 45.4018C29.3875 45.4427 29.3058 45.3814 29.3058 45.2179C29.3058 45.0953 29.3058 44.9727 29.3058 44.85C29.5101 44.85 29.6941 44.8909 29.8575 44.9727ZM31.329 46.8119C31.1655 46.9345 31.002 46.9754 30.8385 46.9345C30.7976 46.9345 30.7772 46.8119 30.7772 46.5667C30.9407 46.1171 31.1246 46.1988 31.329 46.8119ZM18.6993 34.1822L18.5767 34.6114C18.454 34.5705 18.311 34.4888 18.1475 34.3662C18.1066 34.2027 18.1679 34.1005 18.3314 34.0596C18.454 34.0188 18.5767 34.0596 18.6993 34.1822ZM22.0713 37.9221C21.9487 38.0038 21.8056 38.0038 21.6421 37.9221C21.5604 37.7586 21.5195 37.6769 21.5195 37.6769C21.6012 37.636 21.7443 37.5542 21.9487 37.4316C22.0304 37.5542 22.0713 37.7177 22.0713 37.9221ZM32.126 47.6703C32.0851 47.8746 32.0034 48.0177 31.8807 48.0994C31.799 48.0994 31.6968 48.0177 31.5742 47.8542C31.5742 47.8133 31.5538 47.7724 31.5129 47.7316C31.7173 47.4863 31.9216 47.4659 32.126 47.6703ZM10.8517 27.193C10.8108 27.3156 10.6882 27.4382 10.4839 27.5609C10.3612 27.52 10.2999 27.3565 10.2999 27.0704C10.3817 26.9478 10.5656 26.9886 10.8517 27.193ZM27.4052 43.9304C27.4461 44.053 27.4052 44.1552 27.2826 44.2369C27.2008 44.2778 27.0578 44.2165 26.8534 44.053C26.8534 44.0121 26.976 43.8895 27.2213 43.6852C27.2213 43.6852 27.2826 43.7669 27.4052 43.9304ZM2.63629 19.4067L2.57498 19.7133C2.37062 19.7542 2.20713 19.6929 2.08451 19.5294C2.08451 19.5294 2.14582 19.4272 2.26844 19.2228C2.43193 19.2228 2.55455 19.2841 2.63629 19.4067ZM23.604 40.6197C23.604 40.7014 23.5631 40.8036 23.4814 40.9262L23.0522 40.8649C23.0522 40.7423 23.134 40.5788 23.2975 40.3745C23.461 40.4153 23.5631 40.4971 23.604 40.6197ZM3.73986 20.6942C3.73986 20.776 3.71942 20.9395 3.67855 21.1847C3.55593 21.1438 3.41287 21.0825 3.24938 21.0008C3.20851 20.8782 3.29026 20.7555 3.49462 20.6329C3.53549 20.6329 3.61724 20.6534 3.73986 20.6942ZM29.4897 46.3828C29.5306 46.5054 29.4488 46.6689 29.2445 46.8732C28.9992 46.7097 28.897 46.5667 28.9379 46.4441C29.0605 46.158 29.2445 46.1375 29.4897 46.3828ZM18.3927 35.8989C18.2701 36.0215 18.1475 36.042 18.0249 35.9602C17.7796 35.9193 17.7388 35.7967 17.9023 35.5924L18.2088 35.4084C18.3723 35.6128 18.4336 35.7763 18.3927 35.8989ZM20.4772 37.9221C20.3546 38.1673 20.2116 38.2695 20.0481 38.2286C19.8846 38.0243 19.8437 37.8608 19.9255 37.7382C20.0481 37.6156 20.232 37.6769 20.4772 37.9221ZM28.2022 45.7697C28.2022 45.8105 28.1818 45.8923 28.1409 46.0149L27.6504 45.9536C27.6913 45.7901 27.7526 45.6471 27.8343 45.5244C27.957 45.4427 28.0796 45.5244 28.2022 45.7697ZM20.8451 38.7804C20.8451 38.7804 20.7634 38.903 20.5999 39.1483C20.4364 39.1483 20.3342 39.087 20.2933 38.9644C20.2933 38.7191 20.3546 38.5965 20.4772 38.5965C20.6407 38.6374 20.7634 38.6987 20.8451 38.7804ZM29.8575 47.8542C29.8575 47.9359 29.7962 48.0381 29.6736 48.1607C29.5919 48.1199 29.4693 48.079 29.3058 48.0381C29.3058 47.9155 29.3671 47.7724 29.4897 47.6089C29.6123 47.5681 29.7349 47.6498 29.8575 47.8542ZM6.0696 24.0662C6.11048 24.1889 6.00829 24.291 5.76306 24.3728C5.64044 24.4137 5.55869 24.3319 5.51782 24.1275C5.55869 24.0458 5.62 23.9641 5.70175 23.8823C5.90611 23.8823 6.02873 23.9436 6.0696 24.0662ZM10.7291 28.971C10.77 29.1345 10.6882 29.2775 10.4839 29.4001C10.4021 29.441 10.3204 29.3593 10.2386 29.1549C10.2386 28.9505 10.2795 28.8484 10.3612 28.8484C10.443 28.8484 10.5656 28.8892 10.7291 28.971ZM26.8534 45.0953C26.8534 45.0953 26.7921 45.2588 26.6695 45.5857C26.4242 45.4631 26.3016 45.3405 26.3016 45.2179C26.3425 45.1361 26.4447 45.0544 26.6082 44.9727C26.649 44.9727 26.7308 45.0135 26.8534 45.0953ZM22.01 40.8036C21.8874 41.0489 21.7443 41.1306 21.5808 41.0489C21.4582 40.9671 21.4378 40.8036 21.5195 40.5584C21.6012 40.4766 21.7647 40.5584 22.01 40.8036ZM6.86662 25.9055C6.78488 26.0281 6.60095 26.0486 6.31484 25.9668C6.23309 25.8851 6.23309 25.7829 6.31484 25.6603L6.56008 25.415C6.76444 25.6194 6.86662 25.7829 6.86662 25.9055ZM2.82022 21.7365C2.77935 21.9817 2.6976 22.1248 2.57498 22.1657C2.45237 22.0839 2.35018 21.9409 2.26844 21.7365C2.30931 21.6139 2.41149 21.5526 2.57498 21.5526C2.73847 21.5526 2.82022 21.6139 2.82022 21.7365ZM25.5046 44.4822C25.5455 44.6457 25.4842 44.7887 25.3207 44.9113C25.1572 44.9522 25.0346 44.8909 24.9528 44.7274V44.4209C25.1163 44.38 25.3002 44.4004 25.5046 44.4822ZM19.6189 39.1483C19.6598 39.2709 19.5985 39.3526 19.435 39.3935L19.0671 39.3322C19.0263 39.1687 19.0671 39.0052 19.1898 38.8417C19.3941 38.8417 19.5372 38.9439 19.6189 39.1483ZM4.16902 23.8823C4.20989 24.0458 4.14858 24.148 3.98509 24.1889H3.67855C3.63767 24.0662 3.65811 23.9027 3.73986 23.6984C3.94422 23.6166 4.08727 23.6779 4.16902 23.8823ZM27.8957 47.8542C27.6913 48.0177 27.5278 48.079 27.4052 48.0381C27.4052 47.9564 27.3847 47.8337 27.3439 47.6703C27.4665 47.3841 27.6504 47.4455 27.8957 47.8542ZM12.691 32.5269C12.7319 32.7313 12.6501 32.8948 12.4458 33.0174C12.4458 33.0174 12.364 32.9765 12.2005 32.8948C12.2005 32.813 12.1801 32.6904 12.1392 32.5269C12.3844 32.4043 12.5684 32.4043 12.691 32.5269ZM13.488 33.6918C13.4063 33.8961 13.2428 33.937 12.9975 33.8144C12.9158 33.6509 12.8749 33.5692 12.8749 33.5692L13.1815 33.3239C13.3041 33.3648 13.4063 33.4874 13.488 33.6918ZM26.4242 46.6893C26.4651 46.8528 26.4038 46.9345 26.2403 46.9345L25.8725 46.8732C25.8725 46.6689 25.9338 46.5054 26.0564 46.3828C26.1381 46.3419 26.2607 46.4441 26.4242 46.6893ZM20.1707 40.4358L20.0481 40.8036C19.9255 40.7628 19.7824 40.681 19.6189 40.5584C19.578 40.4766 19.6189 40.3949 19.7415 40.3132C20.0276 40.1088 20.1707 40.1497 20.1707 40.4358ZM5.76306 25.0472C5.96742 25.4559 5.92655 25.8033 5.64044 26.0894C5.35433 26.3755 5.08866 26.5186 4.84342 26.5186C4.43469 26.5186 4.10771 26.2938 3.86247 25.8442C3.78073 25.4763 3.78073 25.2107 3.86247 25.0472C4.14858 24.6793 4.45513 24.475 4.78211 24.4341C5.27258 24.5567 5.59957 24.7611 5.76306 25.0472ZM11.5874 32.4043C11.6283 32.6495 11.5466 32.813 11.3422 32.8948C11.3422 32.8948 11.2604 32.8539 11.097 32.7721C11.097 32.6904 11.0765 32.5678 11.0356 32.4043C11.24 32.2408 11.4239 32.2408 11.5874 32.4043ZM2.6976 23.9436C2.49324 24.1071 2.32975 24.148 2.20713 24.0662C2.12538 23.9845 2.10495 23.9027 2.14582 23.821L2.39106 23.5145C2.59542 23.5962 2.6976 23.7393 2.6976 23.9436ZM23.4814 44.85C23.5223 45.0544 23.4405 45.1975 23.2362 45.2792C23.1135 45.3201 23.0114 45.2179 22.9296 44.9727C22.9296 44.85 22.9909 44.7683 23.1135 44.7274C23.2362 44.7274 23.3588 44.7683 23.4814 44.85ZM18.3927 39.6388C18.3927 39.8431 18.3314 40.027 18.2088 40.1905C18.0862 40.1497 17.9636 40.0475 17.841 39.884C17.841 39.557 18.0249 39.4753 18.3927 39.6388ZM5.76306 27.2543C5.80393 27.4587 5.72219 27.6017 5.51782 27.6835C5.43608 27.6017 5.31346 27.4587 5.14997 27.2543C5.47695 27.0908 5.68131 27.0908 5.76306 27.2543ZM24.401 46.1375C24.2784 46.4236 24.1149 46.5054 23.9106 46.3828C23.9106 46.3828 23.8901 46.2601 23.8493 46.0149C23.9719 45.8514 24.1558 45.8923 24.401 46.1375ZM12.1392 34.3662C12.0575 34.4888 11.9348 34.5092 11.7714 34.4275C11.6079 34.3049 11.567 34.1822 11.6487 34.0596L11.9553 33.8757C12.1188 34.1618 12.1801 34.3253 12.1392 34.3662ZM13.0588 35.1019C13.0588 35.2245 13.018 35.3062 12.9362 35.3471H12.5071C12.4662 35.1428 12.5071 34.9793 12.6297 34.8566C12.7114 34.7749 12.8545 34.8566 13.0588 35.1019ZM16.0017 38.0447C16.0017 38.2082 15.9812 38.3104 15.9404 38.3513H15.4499C15.409 38.106 15.4703 37.9425 15.6338 37.8608C15.6338 37.8608 15.7564 37.9221 16.0017 38.0447ZM16.9826 38.9644L16.86 39.4548C16.8191 39.4548 16.6761 39.3731 16.4308 39.2096C16.39 39.087 16.4308 38.9848 16.5535 38.903C16.6761 38.8213 16.8191 38.8417 16.9826 38.9644ZM25.5659 47.6089C25.6068 47.7316 25.525 47.8746 25.3207 48.0381C25.1163 47.8746 25.0141 47.752 25.0141 47.6703C25.2185 47.3841 25.4024 47.3637 25.5659 47.6089ZM2.6976 25.7216C2.6976 25.8033 2.53411 25.8851 2.20713 25.9668C2.12538 25.8033 2.12538 25.6398 2.20713 25.4764C2.41149 25.272 2.57498 25.3537 2.6976 25.7216ZM3.73986 26.8865C3.78073 27.0908 3.69898 27.2339 3.49462 27.3156C3.372 27.2748 3.26982 27.1317 3.18807 26.8865C3.51506 26.6412 3.69898 26.6412 3.73986 26.8865ZM21.3969 45.5857C21.356 45.6266 21.2334 45.6266 21.029 45.5857C20.9064 45.4631 20.8451 45.3609 20.8451 45.2792C20.9677 45.1566 21.1108 45.0544 21.2743 44.9727C21.3969 45.2588 21.4378 45.4631 21.3969 45.5857ZM22.5004 46.6893C22.4596 46.8528 22.337 46.8732 22.1326 46.7506C21.9691 46.628 21.9282 46.5258 22.01 46.4441C22.01 46.4441 22.0917 46.3828 22.2552 46.2601C22.3778 46.2193 22.4596 46.2601 22.5004 46.3828C22.5004 46.4645 22.5004 46.5667 22.5004 46.6893ZM23.6653 47.9768C23.5427 48.0994 23.3996 48.1199 23.2362 48.0381C23.1544 47.9972 23.1135 47.8951 23.1135 47.7316L23.5427 47.4863C23.6244 47.8133 23.6653 47.9768 23.6653 47.9768ZM3.67855 28.7257C3.71942 28.8484 3.67855 28.9301 3.55593 28.971H3.18807C3.1472 28.7666 3.16764 28.6031 3.24938 28.4805C3.49462 28.3988 3.63767 28.4805 3.67855 28.7257ZM2.63629 27.6222C2.67717 27.8674 2.59542 28.0105 2.39106 28.0513C2.26844 28.0513 2.16626 27.9287 2.08451 27.6835C2.248 27.3974 2.43193 27.3769 2.63629 27.6222ZM20.7225 46.3215C20.4364 46.5258 20.2729 46.6076 20.232 46.5667C20.1503 46.5258 20.1094 46.3828 20.1094 46.1375C20.1911 46.0149 20.3546 46.0149 20.5999 46.1375C20.5999 46.2601 20.6407 46.3215 20.7225 46.3215ZM19.3124 44.7887C19.3124 44.9931 19.2511 45.1566 19.1284 45.2792C19.0058 45.2383 18.8832 45.1361 18.7606 44.9727C18.7606 44.7683 18.8423 44.6661 19.0058 44.6661C19.0876 44.6661 19.1898 44.707 19.3124 44.7887ZM21.7034 47.8542C21.6626 47.9359 21.6012 47.9972 21.5195 48.0381C21.5195 48.0381 21.3969 48.0177 21.1516 47.9768C21.1108 47.7724 21.1721 47.6089 21.3356 47.4863C21.4582 47.4863 21.5808 47.6089 21.7034 47.8542ZM3.55593 30.9942L3.31069 31.1781C3.18807 31.1372 3.08589 30.9942 3.00415 30.7489C3.04502 30.7081 3.18807 30.6468 3.43331 30.565C3.67855 30.6059 3.71942 30.7489 3.55593 30.9942ZM19.1284 46.3215C19.1693 46.4032 19.0671 46.5258 18.8219 46.6893C18.781 46.6893 18.6993 46.6076 18.5767 46.4441C18.6584 46.2397 18.6993 46.1375 18.6993 46.1375C18.9036 46.1375 19.0467 46.1988 19.1284 46.3215ZM17.0439 44.4209C16.8396 44.5844 16.6761 44.6661 16.5535 44.6661C16.39 44.4209 16.3695 44.2369 16.4922 44.1143C16.6965 44.0735 16.8804 44.1756 17.0439 44.4209ZM2.57498 29.8293C2.57498 29.8293 2.53411 29.911 2.45237 30.0745C2.16626 30.0337 2.0232 29.9519 2.0232 29.8293C2.10495 29.7476 2.18669 29.6658 2.26844 29.5841C2.4728 29.5841 2.57498 29.6658 2.57498 29.8293ZM17.657 45.6471C17.657 45.8514 17.6162 45.9536 17.5344 45.9536C17.4527 45.9945 17.3096 45.9332 17.1052 45.7697C17.1052 45.7288 17.2074 45.6062 17.4118 45.4018C17.4527 45.4018 17.5344 45.4836 17.657 45.6471ZM19.6802 47.8542C19.6802 47.9359 19.6189 48.0381 19.4963 48.1607C19.4146 48.1199 19.2919 48.0381 19.1284 47.9155C19.1284 47.9155 19.2306 47.8133 19.435 47.6089C19.435 47.6089 19.5167 47.6907 19.6802 47.8542ZM15.2047 43.7465C15.2455 43.8282 15.2251 43.9304 15.1434 44.053H14.7142C14.7142 43.8078 14.7551 43.6443 14.8368 43.5625C14.9186 43.5217 15.0412 43.583 15.2047 43.7465ZM15.6338 45.0953L15.5112 45.5857C15.4703 45.5857 15.3273 45.504 15.082 45.3405C15.0412 45.177 15.1025 45.0544 15.266 44.9727C15.3477 44.9727 15.4703 45.0135 15.6338 45.0953ZM2.63629 32.4656C2.63629 32.5473 2.61586 32.67 2.57498 32.8334C2.45237 32.8334 2.28887 32.7721 2.08451 32.6495C2.04364 32.5678 2.10495 32.4452 2.26844 32.2817C2.35018 32.2408 2.45237 32.2612 2.57498 32.343C2.57498 32.3838 2.59542 32.4247 2.63629 32.4656ZM17.7183 47.6703C17.7183 47.8337 17.6775 47.9359 17.5957 47.9768C17.514 47.9768 17.3709 47.9155 17.1666 47.7929C17.1666 47.752 17.2687 47.6294 17.4731 47.425C17.5957 47.425 17.6775 47.5068 17.7183 47.6703ZM12.7523 42.8881C12.6706 43.0925 12.4866 43.1334 12.2005 43.0108C12.1596 42.7247 12.2414 42.5612 12.4458 42.5203C12.6092 42.602 12.7114 42.7247 12.7523 42.8881ZM16.4922 46.5054C16.3695 46.7915 16.2265 46.8937 16.063 46.8119C15.9404 46.7302 15.9199 46.5667 16.0017 46.3215C16.0834 46.2397 16.2469 46.301 16.4922 46.5054ZM13.7946 44.1143C13.7946 44.1552 13.6311 44.1961 13.3041 44.2369C13.2223 44.1552 13.2223 44.0326 13.3041 43.8691C13.345 43.7873 13.4063 43.7465 13.488 43.7465C13.5698 43.7465 13.6311 43.8078 13.6719 43.9304C13.7537 44.053 13.7946 44.1143 13.7946 44.1143ZM5.88568 36.0828L5.76306 36.512C5.47695 36.4711 5.33389 36.3689 5.33389 36.2054C5.37477 36.0828 5.45651 36.0011 5.57913 35.9602C5.74262 35.9193 5.8448 35.9602 5.88568 36.0828ZM8.15411 38.7191L8.0315 39.1483C8.0315 39.1483 7.88844 39.087 7.60233 38.9644C7.56146 38.8417 7.6432 38.7191 7.84757 38.5965C7.92931 38.5556 8.0315 38.5965 8.15411 38.7191ZM12.2618 44.6048C11.6487 45.1361 11.0561 45.3405 10.4839 45.2179C9.70728 44.8909 9.21681 44.1961 9.01244 43.1334C8.3176 43.1334 7.97019 43.1334 7.97019 43.1334C7.52059 43.1334 6.88706 43.0108 6.0696 42.7655C5.25215 42.4794 4.65949 42.3364 4.29164 42.3364C3.76029 42.3364 3.29026 42.5203 2.88153 42.8881L2.57498 43.1334C2.45237 42.5612 2.57498 41.9889 2.94284 41.4167C3.26982 41.1306 3.63767 40.9262 4.0464 40.8036C3.5968 39.7409 3.35157 38.3308 3.31069 36.5733C3.31069 35.1019 3.31069 33.6305 3.31069 32.159C4.33251 33.2217 4.84342 34.6318 4.84342 36.3894C4.84342 36.8798 4.80255 37.3703 4.7208 37.8608C4.55731 39.0052 4.78211 39.8431 5.3952 40.3745C5.3952 39.3935 5.68131 38.76 6.25353 38.4739C6.41702 38.4739 6.64182 38.4534 6.92793 38.4126C6.68269 39.23 6.744 39.884 7.11186 40.3745C7.88844 41.1102 8.68546 41.2737 9.50291 40.8649C9.58466 40.8241 9.70728 40.7219 9.87077 40.5584L11.2196 41.4167C10.7291 42.5203 10.6882 43.3377 11.097 43.8691C11.3422 44.2369 11.7305 44.4822 12.2618 44.6048ZM8.95113 39.884C8.95113 39.884 8.84895 40.027 8.64459 40.3132C8.52197 40.3132 8.44022 40.2314 8.39935 40.0679C8.35848 39.8636 8.41979 39.7409 8.58328 39.7001C8.7059 39.7409 8.82851 39.8022 8.95113 39.884ZM13.9785 45.4631C13.7332 45.7084 13.5493 45.7901 13.4267 45.7084C13.4267 45.7084 13.4063 45.5857 13.3654 45.3405C13.488 45.2179 13.5902 45.177 13.6719 45.2179C13.7128 45.2588 13.815 45.3405 13.9785 45.4631ZM6.19222 37.6769C6.15135 37.7995 6.04917 37.9221 5.88568 38.0447C5.80393 38.0447 5.72219 37.9834 5.64044 37.8608C5.59957 37.7382 5.64044 37.6156 5.76306 37.4929C5.88568 37.4929 6.02873 37.5542 6.19222 37.6769ZM14.8981 46.5054C14.8572 46.5463 14.7755 46.628 14.6529 46.7506C14.4894 46.7915 14.3872 46.7302 14.3463 46.5667C14.3055 46.4032 14.3463 46.2806 14.469 46.1988C14.6733 46.1988 14.8164 46.301 14.8981 46.5054ZM15.7564 47.425C15.7564 47.6294 15.7156 47.7929 15.6338 47.9155C15.3886 47.8746 15.2251 47.7929 15.1434 47.6703C15.2251 47.3024 15.4295 47.2207 15.7564 47.425ZM2.57498 34.7953C2.65673 34.9588 2.57498 35.1019 2.32975 35.2245C2.20713 35.1428 2.10495 34.9997 2.0232 34.7953C2.10495 34.7136 2.20713 34.6523 2.32975 34.6114C2.49324 34.5705 2.57498 34.6318 2.57498 34.7953ZM12.8136 46.5054C12.8136 46.5463 12.6501 46.6076 12.3231 46.6893C12.2414 46.5667 12.2414 46.4236 12.3231 46.2601C12.4049 46.0967 12.5071 46.0762 12.6297 46.1988C12.7523 46.2806 12.8136 46.3828 12.8136 46.5054ZM14.0398 47.6089C14.0398 47.6907 13.9785 47.8337 13.8559 48.0381C13.6515 47.9972 13.5289 47.8951 13.488 47.7316C13.488 47.7316 13.5698 47.6294 13.7332 47.425C13.8559 47.425 13.958 47.4863 14.0398 47.6089ZM2.63629 36.8185C2.63629 36.8185 2.53411 36.9412 2.32975 37.1864C2.248 37.1864 2.16626 37.1046 2.08451 36.9412C2.04364 36.8594 2.06407 36.7572 2.14582 36.6346C2.18669 36.6346 2.35018 36.6959 2.63629 36.8185ZM11.097 46.4441C11.097 46.5258 11.0152 46.6076 10.8517 46.6893C10.6474 46.6893 10.5452 46.628 10.5452 46.5054C10.5452 46.4236 10.586 46.301 10.6678 46.1375C10.7904 46.0967 10.9335 46.1988 11.097 46.4441ZM12.2005 47.5476C12.2823 47.752 12.2005 47.9155 11.9553 48.0381C11.8735 48.0381 11.7918 47.9564 11.71 47.7929L11.6487 47.5476C12.0166 47.5476 12.2005 47.5476 12.2005 47.5476ZM2.6976 38.903C2.73847 39.1074 2.65673 39.2505 2.45237 39.3322C2.28887 39.1687 2.18669 39.0052 2.14582 38.8417C2.51367 38.6782 2.6976 38.6987 2.6976 38.903ZM8.39935 44.6661C8.35848 44.7887 8.29717 44.9318 8.21542 45.0953C8.05193 45.0953 7.90888 44.9522 7.78626 44.6661C8.11324 44.5435 8.3176 44.5435 8.39935 44.6661ZM9.13506 46.1375C9.21681 46.3419 9.1555 46.4849 8.95113 46.5667C8.74677 46.4849 8.62415 46.3623 8.58328 46.1988C8.62415 46.1171 8.74677 46.0353 8.95113 45.9536C9.11462 45.9945 9.17593 46.0558 9.13506 46.1375ZM10.0547 47.8542C9.93208 47.8951 9.76859 47.9359 9.56422 47.9768C9.40073 47.8951 9.3803 47.7929 9.50291 47.6703L9.74815 47.425C9.99339 47.5476 10.0956 47.6907 10.0547 47.8542ZM6.62139 44.2983C6.58051 44.38 6.5192 44.5026 6.43746 44.6661C6.31484 44.7479 6.19222 44.6252 6.0696 44.2983C6.11048 44.38 6.15135 44.3391 6.19222 44.1756C6.31484 44.1348 6.45789 44.1756 6.62139 44.2983ZM2.6976 40.9262C2.65673 41.1306 2.49324 41.2124 2.20713 41.1715C2.12538 41.008 2.12538 40.8445 2.20713 40.681C2.41149 40.5175 2.57498 40.5993 2.6976 40.9262ZM8.39935 47.7929C8.35848 47.9155 8.19499 47.9359 7.90888 47.8542C7.82713 47.7316 7.82713 47.6294 7.90888 47.5476L8.15411 47.3024C8.3176 47.5068 8.39935 47.6703 8.39935 47.7929ZM4.35295 43.5625C4.2712 43.6443 4.16902 43.7465 4.0464 43.8691C3.88291 43.9508 3.78073 43.8895 3.73986 43.6852C3.73986 43.5625 3.78073 43.4399 3.86247 43.3173C4.02597 43.3582 4.18946 43.4399 4.35295 43.5625ZM6.62139 46.0149C6.58051 46.1375 6.47833 46.2397 6.31484 46.3215H6.13091C6.09004 46.158 6.11048 45.974 6.19222 45.7697C6.19222 45.8105 6.33528 45.8923 6.62139 46.0149ZM5.08866 45.034C5.00691 45.0748 4.90473 45.1361 4.78211 45.2179C4.70037 45.2179 4.59818 45.1566 4.47557 45.034C4.47557 44.9931 4.57775 44.8705 4.78211 44.6661C4.9456 44.707 5.04778 44.8296 5.08866 45.034ZM6.56008 47.7316C6.43746 47.8542 6.27397 47.8951 6.0696 47.8542C5.98786 47.7316 5.98786 47.5885 6.0696 47.425C6.11048 47.3841 6.23309 47.3841 6.43746 47.425C6.43746 47.7929 6.47833 47.8951 6.56008 47.7316ZM4.35295 46.3215C4.35295 46.4032 4.2712 46.5258 4.10771 46.6893C3.94422 46.7302 3.84204 46.6689 3.80117 46.5054C3.80117 46.3419 3.8216 46.2193 3.86247 46.1375C4.10771 46.1375 4.2712 46.1988 4.35295 46.3215ZM2.75891 44.7887C2.79978 44.9113 2.73847 45.0544 2.57498 45.2179C2.53411 45.2179 2.41149 45.0953 2.20713 44.85C2.20713 44.8092 2.30931 44.7274 2.51367 44.6048C2.63629 44.6048 2.71804 44.6661 2.75891 44.7887ZM4.53688 47.7316C4.53688 47.7316 4.496 47.8542 4.41426 48.0994C4.33251 48.0994 4.20989 48.0381 4.0464 47.9155C3.96466 47.7929 4.02597 47.6703 4.23033 47.5476C4.47557 47.5476 4.57775 47.6089 4.53688 47.7316ZM2.63629 46.1988C2.71804 46.4032 2.63629 46.5054 2.39106 46.5054H2.14582C2.10495 46.3419 2.14582 46.158 2.26844 45.9536C2.43193 45.9945 2.55455 46.0762 2.63629 46.1988ZM3.06546 47.3024L3.00415 47.7929C2.79978 47.7929 2.63629 47.7111 2.51367 47.5476C2.51367 47.5476 2.61586 47.4455 2.82022 47.2411C2.94284 47.2002 3.02458 47.2207 3.06546 47.3024ZM19.3124 5.79612C17.187 5.75525 15.4908 5.85743 14.2237 6.10267L14.1624 6.04136L14.6529 5.61219C14.6529 5.36696 14.6529 5.24434 14.6529 5.24434C13.7946 6.06179 12.3231 6.85881 10.2386 7.63539C10.2386 7.4719 10.2999 7.26754 10.4226 7.0223C10.586 6.77707 10.6882 6.61357 10.7291 6.53183C10.8108 6.04136 10.8517 5.79612 10.8517 5.79612C9.66641 7.55365 8.4811 8.75939 7.29579 9.41336C7.45928 8.96376 7.52059 8.20761 7.47971 7.14492C7.15273 8.08499 6.49877 9.45423 5.51782 11.2526C5.47695 11.0074 5.35433 10.5374 5.14997 9.84252C5.06822 9.63816 4.86386 9.37249 4.53688 9.0455C4.82298 9.69947 4.96604 10.3739 4.96604 11.0687C4.96604 11.8044 4.78211 12.7854 4.41426 14.0115C4.0464 15.4012 3.8216 16.3822 3.73986 16.9544C3.73986 17.0361 3.8216 17.077 3.98509 17.077C4.18946 16.1778 4.65949 14.8699 5.3952 13.1532C5.96742 12.3358 6.94837 11.8248 8.33804 11.6205L8.21542 11.5592C7.60233 11.1913 6.9688 11.2322 6.31484 11.6818C6.27397 11.5183 6.37615 11.2118 6.62139 10.7622C7.43884 9.78121 8.58328 9.29074 10.0547 9.29074C10.5043 9.29074 10.9539 9.33161 11.4035 9.41336C11.0356 9.00463 10.443 8.75939 9.62553 8.67765C11.7509 7.2471 14.9799 6.28659 19.3124 5.79612Z" fill="#EEA42A"/>
</svg>
