<svg width="87" height="10" viewBox="0 0 87 10" fill="none" xmlns="http://www.w3.org/2000/svg">
<path d="M27.9482 2.95703C28.7783 2.12695 29.5596 1.52474 30.292 1.15039C31.0407 0.776042 31.8382 0.588867 32.6846 0.588867C33.1729 0.588867 33.5879 0.662109 33.9297 0.808594C34.2878 0.938802 34.6621 1.18294 35.0527 1.54102C34.4505 1.3457 34.0111 1.24805 33.7344 1.24805C32.3509 1.24805 31.1465 1.8584 30.1211 3.0791C29.112 4.28353 28.5342 5.78906 28.3877 7.5957L0.384766 5.1543V4.69043L27.9482 2.95703ZM36.2002 4.00684C36.2002 4.93457 35.8665 5.80534 35.1992 6.61914C34.5482 7.43294 33.8646 7.83984 33.1484 7.83984C32.709 7.83984 32.3428 7.7015 32.0498 7.4248C31.7731 7.13184 31.6348 6.74121 31.6348 6.25293C31.6348 5.30892 31.9766 4.43001 32.6602 3.61621C33.3438 2.80241 34.068 2.39551 34.833 2.39551C35.2887 2.39551 35.6305 2.53385 35.8584 2.81055C36.0863 3.08724 36.2002 3.486 36.2002 4.00684ZM46.7959 2.00488C46.096 1.59798 45.3962 1.39453 44.6963 1.39453C43.8662 1.39453 43.0931 1.66309 42.377 2.2002C41.6608 2.72103 40.7005 3.75456 39.4961 5.30078C38.3568 6.76562 37.3314 7.80729 36.4199 8.42578C35.5247 9.04427 34.6133 9.35352 33.6855 9.35352C32.5788 9.35352 31.6836 8.95475 31 8.15723C31.7161 8.5804 32.3835 8.79199 33.002 8.79199C33.7995 8.79199 34.5075 8.56413 35.126 8.1084C35.7445 7.65267 36.6478 6.66797 37.8359 5.1543C39.0892 3.55924 40.196 2.41178 41.1562 1.71191C42.1165 1.01204 43.0605 0.662109 43.9883 0.662109C45.0625 0.662109 45.9984 1.1097 46.7959 2.00488ZM46.2832 4.00684C46.2832 4.93457 45.9495 5.80534 45.2822 6.61914C44.6312 7.43294 43.9313 7.83984 43.1826 7.83984C42.7757 7.83984 42.4258 7.69336 42.1328 7.40039C41.8398 7.10742 41.6934 6.72493 41.6934 6.25293C41.6934 5.34147 42.0352 4.4707 42.7188 3.64062C43.4186 2.81055 44.1592 2.39551 44.9404 2.39551C45.3636 2.39551 45.6891 2.54199 45.917 2.83496C46.1611 3.11165 46.2832 3.50228 46.2832 4.00684ZM56.8789 2.00488C56.1953 1.59798 55.4954 1.39453 54.7793 1.39453C53.9655 1.39453 53.2005 1.65495 52.4844 2.17578C51.7845 2.69661 50.8161 3.73828 49.5791 5.30078C48.4398 6.76562 47.4144 7.80729 46.5029 8.42578C45.6077 9.04427 44.7044 9.35352 43.793 9.35352C42.7025 9.35352 41.7992 8.95475 41.083 8.15723C41.8317 8.5804 42.499 8.79199 43.085 8.79199C43.8988 8.79199 44.6149 8.56413 45.2334 8.1084C45.8519 7.65267 46.7552 6.66797 47.9434 5.1543C49.1641 3.55924 50.2627 2.41178 51.2393 1.71191C52.2158 1.01204 53.168 0.662109 54.0957 0.662109C55.1699 0.662109 56.0977 1.1097 56.8789 2.00488ZM56.3906 4.00684C56.3906 4.95085 56.057 5.82975 55.3896 6.64355C54.7223 7.44108 54.0225 7.83984 53.29 7.83984C52.8831 7.83984 52.5413 7.69336 52.2646 7.40039C51.988 7.10742 51.8496 6.72493 51.8496 6.25293C51.8496 5.61816 52.0042 5.00781 52.3135 4.42188C52.639 3.83594 53.0459 3.35579 53.5342 2.98145C54.0225 2.59082 54.527 2.39551 55.0479 2.39551C55.471 2.39551 55.7965 2.54199 56.0244 2.83496C56.2686 3.11165 56.3906 3.50228 56.3906 4.00684ZM58.6367 2.63965L86.6396 4.69043V5.1543L59.0518 7.10742C57.6195 8.66992 56.0814 9.45117 54.4375 9.45117C53.347 9.45117 52.3949 9.01986 51.5811 8.15723C52.3786 8.61296 53.0785 8.84082 53.6807 8.84082C54.9339 8.84082 56.0244 8.26302 56.9521 7.10742C57.8799 5.95182 58.4414 4.46257 58.6367 2.63965ZM26.8008 5.10547C26.9635 4.84505 27.0775 4.6416 27.1426 4.49512C27.2077 4.33236 27.2891 4.20215 27.3867 4.10449L7.83105 5.10547H26.8008ZM35.1016 3.25C34.4017 3.28255 33.7751 3.59993 33.2217 4.20215C32.6683 4.80436 32.3916 5.47168 32.3916 6.2041C32.3916 6.56217 32.5381 6.89583 32.8311 7.20508C33.3031 5.34961 34.0599 4.03125 35.1016 3.25ZM45.1846 3.25C44.501 3.28255 43.8825 3.59993 43.3291 4.20215C42.7757 4.80436 42.499 5.47168 42.499 6.2041C42.499 6.56217 42.6455 6.89583 42.9385 7.20508C43.4105 5.33333 44.1592 4.01497 45.1846 3.25ZM55.292 3.25C54.6084 3.28255 53.9818 3.59993 53.4121 4.20215C52.8587 4.80436 52.582 5.47168 52.582 6.2041C52.582 6.56217 52.7367 6.89583 53.0459 7.20508C53.5016 5.36589 54.2503 4.04753 55.292 3.25ZM60.7852 3.90918C60.6549 4.39746 60.4596 4.79622 60.1992 5.10547H79.0957L60.7852 3.90918Z" fill="#EEA42A"/>
</svg>
