<svg width="89" height="8" viewBox="0 0 89 8" fill="none" xmlns="http://www.w3.org/2000/svg">
<path d="M59.8809 3.6416L88.2744 3.91016V4.10547L59.8809 4.30078C59.7507 5.34245 59.3193 6.20508 58.5869 6.88867C57.8545 7.55599 56.9837 7.88965 55.9746 7.88965C54.7539 7.88965 53.6553 7.47461 52.6787 6.64453C51.5557 7.50716 50.4082 7.93848 49.2363 7.93848C48.1458 7.93848 47.1123 7.55599 46.1357 6.79102C45.1917 7.55599 44.0931 7.93848 42.8398 7.93848C42.0423 7.93848 41.2367 7.71875 40.4229 7.2793C39.609 6.83984 38.8929 6.21322 38.2744 5.39941C37.6885 6.18066 36.9723 6.79915 36.126 7.25488C35.2796 7.71061 34.417 7.93848 33.5381 7.93848C32.4313 7.93848 31.4548 7.59668 30.6084 6.91309C29.7783 6.21322 29.2819 5.34245 29.1191 4.30078L0.774414 4.10547V3.91016L29.1191 3.6416C29.2493 2.59993 29.6969 1.74544 30.4619 1.07812C31.2432 0.394531 32.1465 0.0527344 33.1719 0.0527344C34.2624 0.0527344 35.3691 0.484049 36.4922 1.34668C37.127 0.858398 37.6559 0.52474 38.0791 0.345703C38.5186 0.150391 39.0231 0.0527344 39.5928 0.0527344C40.7321 0.0527344 41.7819 0.484049 42.7422 1.34668C43.8815 0.484049 45.0452 0.0527344 46.2334 0.0527344C47.7796 0.0527344 49.3258 0.899089 50.8721 2.5918C52.402 0.899089 53.9401 0.0527344 55.4863 0.0527344C56.6582 0.0527344 57.6429 0.386393 58.4404 1.05371C59.2542 1.72103 59.7344 2.58366 59.8809 3.6416ZM59.4414 3.6416C59.2786 2.8278 58.8311 2.17676 58.0986 1.68848C57.3825 1.2002 56.528 0.956055 55.5352 0.956055C53.9727 0.956055 52.4915 1.59082 51.0918 2.86035C51.1895 2.97428 51.2708 3.07194 51.3359 3.15332C51.401 3.21842 51.5312 3.36491 51.7266 3.59277L59.4414 3.6416ZM59.4902 4.30078L52.3857 4.39844C53.346 5.53776 54.0866 6.2946 54.6074 6.66895C55.1283 7.02702 55.7386 7.20605 56.4385 7.20605C57.2686 7.20605 57.9603 6.9375 58.5137 6.40039C59.0671 5.86328 59.3926 5.16341 59.4902 4.30078ZM49.627 3.59277C48.7318 2.56738 47.9749 1.85938 47.3564 1.46875C46.7542 1.06185 46.0951 0.858398 45.3789 0.858398C44.6139 0.858398 43.8327 1.08626 43.0352 1.54199C43.735 2.19303 44.1012 2.54297 44.1338 2.5918C44.3942 2.85221 44.5977 3.07194 44.7441 3.25098C44.8906 3.43001 44.972 3.52767 44.9883 3.54395L49.627 3.59277ZM52.4346 6.40039C51.7184 5.87956 51.0348 5.21224 50.3838 4.39844L45.7695 4.44727C46.6159 5.42383 47.3564 6.13184 47.9912 6.57129C48.6423 6.99447 49.2852 7.20605 49.9199 7.20605C50.5872 7.20605 51.4255 6.9375 52.4346 6.40039ZM43.0352 3.59277C42.1888 2.53483 41.4727 1.81055 40.8867 1.41992C40.3008 1.01302 39.666 0.80957 38.9824 0.80957C38.25 0.80957 37.5013 1.06999 36.7363 1.59082C37.3548 2.09538 38.0384 2.7627 38.7871 3.59277H43.0352ZM39.4219 4.39844C40.1868 5.35872 40.903 6.05859 41.5703 6.49805C42.2376 6.9375 42.9212 7.15723 43.6211 7.15723C44.4512 7.15723 45.1917 6.95378 45.8428 6.54688C45.1917 6.00977 44.4837 5.29362 43.7188 4.39844H39.4219ZM29.6318 4.30078C29.7783 5.08203 30.234 5.74121 30.999 6.27832C31.7803 6.79915 32.6755 7.05957 33.6846 7.05957C34.4495 7.05957 35.2471 6.8724 36.0771 6.49805C36.9072 6.10742 37.5583 5.64355 38.0303 5.10645C37.9814 5.05762 37.8757 4.93555 37.7129 4.74023C37.5501 4.54492 37.4362 4.43099 37.3711 4.39844L29.6318 4.30078ZM36.7852 3.59277C35.418 1.7373 34.0508 0.80957 32.6836 0.80957C31.8698 0.80957 31.1699 1.06999 30.584 1.59082C30.0143 2.11165 29.6807 2.79525 29.583 3.6416L36.7852 3.59277Z" fill="#121212"/>
</svg>
